<?xml version="1.0" standalone="no"?>
<!DOCTYPE svg PUBLIC "-//W3C//DTD SVG 20010904//EN"
 "http://www.w3.org/TR/2001/REC-SVG-20010904/DTD/svg10.dtd">
<svg version="1.0" xmlns="http://www.w3.org/2000/svg"
 width="356.000000pt" height="30.000000pt" viewBox="0 0 356.000000 30.000000"
 preserveAspectRatio="xMidYMid meet">

<g transform="translate(0.000000,30.000000) scale(0.100000,-0.100000)"
fill="#000000" stroke="none">
<path d="M150 155 l0 -95 38 0 c63 0 77 18 77 95 0 77 -14 95 -77 95 l-38 0 0
-95z m78 1 c2 -41 -1 -62 -10 -67 -31 -20 -38 -10 -38 62 0 67 1 70 23 67 20
-3 22 -10 25 -62z"/>
<path d="M740 229 c-18 -33 -4 -68 36 -86 25 -13 34 -23 32 -37 -4 -28 -35
-33 -43 -7 -8 26 -35 28 -35 3 0 -28 21 -42 62 -42 69 0 80 71 16 105 -27 14
-38 27 -38 43 0 26 25 30 38 6 14 -26 41 -14 31 14 -12 31 -83 32 -99 1z"/>
<path d="M1010 235 c0 -8 9 -15 20 -15 11 0 20 7 20 15 0 8 -9 15 -20 15 -11
0 -20 -7 -20 -15z"/>
<path d="M1690 155 c0 -88 1 -95 20 -95 17 0 20 7 20 40 0 38 2 40 30 40 20 0
30 5 30 15 0 10 -10 15 -30 15 -25 0 -30 4 -30 25 0 21 5 25 30 25 20 0 30 5
30 15 0 11 -12 15 -50 15 l-50 0 0 -95z"/>
<path d="M2132 238 c-7 -7 -12 -25 -12 -40 0 -22 9 -33 41 -53 26 -17 39 -32
37 -43 -5 -26 -38 -28 -45 -3 -5 20 -27 29 -36 14 -3 -5 -1 -18 4 -30 12 -33
82 -33 103 0 22 33 9 65 -35 88 -41 20 -51 45 -23 56 10 4 20 0 26 -10 11 -20
38 -23 38 -4 0 22 -22 37 -55 37 -17 0 -36 -5 -43 -12z"/>
<path d="M2530 235 c0 -8 9 -15 20 -15 11 0 20 7 20 15 0 8 -9 15 -20 15 -11
0 -20 -7 -20 -15z"/>
<path d="M2740 155 c0 -78 3 -95 15 -95 12 0 15 17 15 95 0 78 -3 95 -15 95
-12 0 -15 -17 -15 -95z"/>
<path d="M2899 234 c-18 -22 -23 -114 -7 -144 12 -21 21 -25 61 -26 l47 -1 0
49 c0 47 -1 48 -30 48 -33 0 -39 -14 -14 -28 22 -12 9 -54 -14 -50 -25 5 -30
135 -6 145 10 4 20 0 26 -10 11 -20 38 -23 38 -4 0 36 -75 52 -101 21z"/>
<path d="M3380 218 c0 -25 -3 -29 -12 -20 -16 16 -23 15 -42 -4 -17 -16 -22
-99 -8 -121 4 -6 28 -11 55 -11 l47 0 0 94 c0 87 -1 94 -20 94 -16 0 -20 -7
-20 -32z m-2 -85 c-2 -35 -7 -48 -18 -48 -10 0 -16 12 -18 33 -4 43 3 62 23
62 13 0 15 -10 13 -47z"/>
<path d="M450 221 c0 -11 -6 -22 -12 -24 -10 -4 -10 -7 -1 -14 6 -5 13 -33 15
-63 3 -52 5 -55 31 -58 29 -4 37 12 12 22 -10 4 -15 20 -15 51 0 33 4 45 15
45 8 0 15 5 15 10 0 6 -7 10 -15 10 -8 0 -15 9 -15 20 0 11 -7 20 -15 20 -8 0
-15 -9 -15 -19z"/>
<path d="M328 199 c-22 -12 -24 -39 -3 -39 8 0 15 5 15 10 0 6 7 10 16 10 24
0 12 -35 -14 -38 -26 -4 -45 -35 -37 -62 5 -15 15 -19 57 -18 l50 1 -4 63 c-2
35 -6 65 -8 68 -12 11 -57 15 -72 5z m42 -94 c0 -15 -6 -25 -14 -25 -22 0 -30
19 -16 35 18 22 30 18 30 -10z"/>
<path d="M553 200 c-13 -5 -23 -16 -23 -25 0 -18 26 -21 32 -3 3 7 12 9 22 5
23 -9 7 -32 -28 -41 -29 -7 -39 -31 -26 -56 8 -15 21 -19 55 -18 l45 1 0 56
c0 31 -4 61 -8 67 -11 17 -44 24 -69 14z m45 -92 c-4 -29 -38 -38 -38 -10 0
19 11 29 33 31 5 1 7 -9 5 -21z"/>
<path d="M902 194 c-17 -12 -22 -25 -22 -63 0 -26 5 -52 12 -59 15 -15 61 -15
76 0 17 17 15 38 -3 38 -8 0 -15 -7 -15 -16 0 -9 -7 -14 -17 -12 -14 3 -18 13
-18 48 0 35 4 45 18 48 10 2 17 -3 17 -12 0 -9 7 -16 15 -16 26 0 17 40 -11
50 -31 12 -25 13 -52 -6z"/>
<path d="M1100 190 c-23 -23 -27 -86 -7 -114 20 -27 81 -19 85 12 4 25 -15 30
-24 7 -8 -20 -30 -19 -38 1 -9 24 2 34 40 34 32 0 34 2 28 28 -12 51 -50 66
-84 32z m50 -25 c0 -8 -9 -15 -20 -15 -20 0 -26 11 -13 23 12 13 33 7 33 -8z"/>
<path d="M1271 201 c-7 -4 -23 -6 -37 -3 -24 4 -24 3 -24 -67 0 -64 2 -71 20
-71 18 0 20 7 20 61 0 52 2 60 18 57 13 -2 18 -15 20 -61 2 -42 7 -57 17 -57
12 0 15 15 15 65 0 52 -4 66 -18 74 -10 5 -24 6 -31 2z"/>
<path d="M1383 200 c-26 -11 -39 -66 -26 -107 8 -22 17 -29 43 -31 32 -3 60
15 60 40 0 14 -28 9 -34 -7 -3 -8 -12 -15 -21 -15 -11 0 -15 12 -15 50 0 38 4
50 15 50 9 0 18 -7 21 -15 7 -17 34 -21 34 -5 0 12 -37 50 -47 49 -5 0 -18 -4
-30 -9z"/>
<path d="M1520 203 c-39 -14 -55 -89 -27 -127 20 -27 81 -19 85 12 4 25 -15
30 -24 7 -10 -25 -34 -17 -34 10 0 22 4 25 35 25 28 0 35 4 35 20 0 20 -33 61
-47 59 -5 0 -15 -3 -23 -6z m38 -40 c2 -8 -5 -13 -17 -13 -12 0 -21 6 -21 16
0 18 31 15 38 -3z"/>
<path d="M1830 190 c-13 -13 -20 -33 -20 -56 0 -54 15 -74 56 -74 28 0 36 5
44 26 22 58 -2 124 -45 124 -8 0 -24 -9 -35 -20z m50 -60 c0 -37 -4 -50 -15
-50 -18 0 -29 41 -21 75 4 14 13 25 21 25 11 0 15 -13 15 -50z"/>
<path d="M2006 201 c-4 -6 -18 -8 -32 -5 -24 6 -24 5 -24 -65 0 -64 2 -71 20
-71 18 0 20 7 20 55 0 41 4 55 14 55 20 0 31 19 18 32 -6 6 -12 6 -16 -1z"/>
<path d="M2280 190 c-13 -13 -20 -33 -20 -56 0 -54 15 -74 56 -74 28 0 36 5
44 26 22 58 -2 124 -45 124 -8 0 -24 -9 -35 -20z m50 -60 c0 -37 -4 -50 -15
-50 -18 0 -29 41 -21 75 4 14 13 25 21 25 11 0 15 -13 15 -50z"/>
<path d="M2428 203 c-27 -7 -42 -66 -28 -108 10 -30 16 -35 44 -35 33 0 56 15
56 37 0 18 -20 16 -35 -4 -18 -24 -35 -7 -35 37 0 44 17 61 35 37 15 -21 35
-22 35 -3 0 14 -38 47 -50 45 -3 -1 -13 -3 -22 -6z"/>
<path d="M2630 203 c-29 -11 -40 -43 -15 -43 8 0 15 5 15 10 0 6 9 10 20 10
33 0 22 -28 -16 -40 -31 -11 -35 -15 -32 -43 3 -31 5 -32 51 -34 l47 -2 0 65
c0 60 -2 65 -26 74 -14 6 -26 10 -27 9 -1 0 -9 -3 -17 -6z m38 -95 c-4 -29
-38 -38 -38 -10 0 19 11 29 33 31 5 1 7 -9 5 -21z"/>
<path d="M3063 200 c-26 -11 -39 -66 -26 -107 8 -22 17 -29 43 -31 42 -4 60
17 60 70 0 25 -7 45 -20 58 -22 22 -25 23 -57 10z m43 -45 c8 -34 -3 -75 -21
-75 -11 0 -15 13 -15 50 0 37 4 50 15 50 8 0 17 -11 21 -25z"/>
<path d="M3192 194 c-17 -12 -22 -25 -22 -63 0 -26 5 -52 12 -59 17 -17 63
-15 79 5 15 18 17 99 3 112 -19 18 -50 20 -72 5z m46 -61 c-2 -35 -7 -48 -18
-48 -10 0 -16 12 -18 33 -4 43 3 62 23 62 13 0 15 -10 13 -47z"/>
<path d="M1010 130 c0 -63 2 -70 20 -70 18 0 20 7 20 70 0 63 -2 70 -20 70
-18 0 -20 -7 -20 -70z"/>
<path d="M2530 130 c0 -63 2 -70 20 -70 18 0 20 7 20 70 0 63 -2 70 -20 70
-18 0 -20 -7 -20 -70z"/>
</g>
</svg>
