<?xml version="1.0" standalone="no"?>
<!DOCTYPE svg PUBLIC "-//W3C//DTD SVG 20010904//EN"
 "http://www.w3.org/TR/2001/REC-SVG-20010904/DTD/svg10.dtd">
<svg version="1.0" xmlns="http://www.w3.org/2000/svg"
 width="1907.000000pt" height="1074.000000pt" viewBox="0 0 1907.000000 1074.000000"
 preserveAspectRatio="xMidYMid meet">

<g transform="translate(0.000000,1074.000000) scale(0.100000,-0.100000)"
fill="#000000" stroke="none">
<path d="M7405 9073 c-572 -69 -945 -135 -1350 -238 -849 -216 -1370 -507
-1549 -863 -15 -30 -40 -104 -56 -166 -37 -145 -69 -221 -136 -322 -141 -214
-374 -346 -719 -410 -140 -26 -611 -27 -795 -1 -197 27 -402 66 -570 108 -217
54 -211 53 -174 36 48 -22 455 -158 659 -220 390 -118 750 -206 1041 -253 217
-35 494 -44 614 -20 156 31 242 89 274 182 21 64 20 110 -6 213 -28 111 -30
285 -4 381 133 493 804 953 1931 1323 285 94 580 176 900 250 15 4 14 5 -5 4
-14 0 -38 -2 -55 -4z"/>
<path d="M3155 8454 c-713 -99 -1219 -275 -1437 -501 -75 -79 -97 -118 -127
-227 -12 -43 -34 -104 -49 -135 -37 -77 -131 -168 -219 -214 -117 -61 -202
-79 -405 -84 -199 -6 -304 4 -518 47 -80 16 -156 32 -170 35 -14 3 69 -27 184
-65 245 -82 442 -137 656 -181 139 -30 173 -33 330 -33 164 -1 178 0 223 23
83 40 105 97 81 204 -25 107 -16 216 24 300 87 187 273 343 597 502 247 121
548 227 890 315 175 45 169 46 -60 14z"/>
<path d="M7070 7693 c-19 -1 -87 -8 -150 -14 -784 -74 -1321 -389 -1521 -891
-12 -29 -40 -130 -64 -224 -72 -288 -155 -445 -324 -615 -223 -224 -525 -357
-942 -414 -160 -22 -520 -30 -714 -16 -419 30 -906 118 -1330 240 -93 27 -171
48 -173 47 -1 -2 73 -32 165 -69 1165 -458 2172 -717 2785 -717 397 0 644 101
743 303 43 89 54 160 53 347 -1 231 38 404 138 602 200 399 587 736 1179 1028
282 139 702 298 925 350 74 18 50 25 -131 39 -132 10 -551 13 -639 4z"/>
<path d="M13020 7599 c-471 -52 -836 -345 -984 -790 -56 -168 -67 -236 -73
-444 -14 -489 85 -818 310 -1031 207 -197 460 -288 1108 -399 297 -51 465 -89
588 -134 409 -149 575 -414 558 -890 -8 -215 -44 -340 -142 -492 -145 -225
-386 -376 -685 -430 -122 -23 -392 -18 -528 9 -661 131 -1068 655 -1099 1415
l-6 147 -54 0 -53 0 0 -815 0 -815 54 0 53 0 5 79 c5 86 24 130 71 165 23 17
42 21 95 20 71 -1 116 -17 412 -147 392 -173 727 -220 1105 -157 561 95 941
478 1054 1063 69 355 39 757 -74 1012 -61 139 -188 288 -322 377 -210 141
-453 223 -928 313 -548 104 -742 157 -930 253 -115 59 -209 149 -253 242 -56
120 -82 332 -63 515 46 437 294 724 701 812 113 24 357 24 485 -1 384 -73 671
-287 854 -637 99 -188 157 -377 188 -610 l18 -129 52 0 53 0 0 680 0 680 -53
0 -53 0 -17 -70 c-32 -121 -83 -174 -170 -174 -64 0 -126 27 -291 128 -289
178 -499 247 -786 260 -63 2 -153 0 -200 -5z"/>
<path d="M9800 7450 l0 -50 295 0 295 0 0 -2165 0 -2165 -295 0 -295 0 0 -50
0 -50 915 0 915 0 0 50 0 50 -290 0 -290 0 0 2165 0 2165 290 0 290 0 0 50 0
50 -915 0 -915 0 0 -50z"/>
<path d="M14940 7450 l0 -50 310 0 310 0 0 -2165 0 -2165 -310 0 -310 0 0 -50
0 -50 1179 0 c1149 0 1182 1 1302 21 222 37 433 118 604 230 101 67 257 222
320 318 252 384 243 949 -19 1290 -168 218 -437 378 -785 466 -112 28 -329 65
-383 65 -21 0 -38 5 -38 10 0 6 17 10 38 10 66 0 308 39 426 69 224 57 391
140 518 260 184 172 272 369 299 665 27 289 -55 513 -262 717 -176 174 -438
303 -744 364 -217 43 -266 45 -1385 45 l-1070 0 0 -50z m1885 -75 c400 -62
687 -260 835 -579 72 -152 93 -285 79 -496 -25 -382 -159 -619 -424 -750 -189
-93 -295 -110 -742 -117 l-353 -5 0 987 0 988 253 -6 c143 -4 295 -13 352 -22z
m-5 -2069 c511 -68 843 -341 940 -772 39 -173 37 -463 -6 -672 -86 -419 -332
-677 -730 -762 -87 -19 -143 -22 -451 -27 l-353 -6 0 1127 0 1126 248 0 c154
0 287 -6 352 -14z"/>
<path d="M8244 6546 c-41 -7 -59 -15 -57 -23 3 -7 0 -13 -5 -13 -6 0 -12 5
-14 12 -2 6 -12 -5 -22 -26 -12 -26 -22 -36 -33 -32 -8 3 -20 3 -26 -1 -7 -4
-34 -6 -61 -5 -35 1 -52 -3 -61 -14 -10 -15 -13 -15 -27 0 -21 20 -65 20 -135
0 -37 -11 -53 -20 -49 -29 3 -8 0 -16 -7 -18 -7 -2 2 -4 18 -4 17 0 24 2 18 4
-7 3 -13 9 -13 14 0 13 44 6 63 -10 13 -10 19 -9 34 8 9 12 21 21 26 21 5 0 1
-7 -7 -16 -24 -24 -39 -54 -26 -54 5 0 10 5 10 11 0 5 5 7 10 4 21 -13 10 -43
-20 -55 -17 -7 -28 -15 -25 -18 10 -10 -18 -32 -41 -32 -23 0 -28 -9 -25 -37
1 -7 -3 -13 -9 -13 -5 0 -9 -5 -8 -12 2 -7 -6 -12 -17 -13 -13 0 -21 -8 -23
-22 -3 -18 2 -21 30 -22 61 -1 68 -4 58 -16 -12 -14 -3 -25 19 -25 9 0 33 -16
55 -35 21 -19 44 -35 51 -35 13 0 30 -28 26 -43 -1 -5 3 -6 8 -2 11 6 51 -29
51 -44 0 -5 7 -11 15 -15 8 -3 15 -10 15 -16 0 -6 -4 -8 -10 -5 -5 3 -10 1
-10 -4 0 -6 8 -11 17 -11 16 0 16 -1 1 -16 -14 -14 -19 -12 -57 24 -22 21 -41
43 -41 48 0 5 4 4 8 -2 4 -7 15 -8 27 -4 18 7 18 8 -7 15 -16 4 -28 14 -28 22
0 8 -13 19 -30 24 -16 6 -30 15 -30 20 0 5 -8 9 -18 9 -10 0 -24 6 -30 12 -10
10 -15 10 -22 -2 -17 -27 -11 -48 15 -54 14 -4 29 -4 34 -2 4 3 14 -4 21 -15
8 -10 22 -19 32 -19 10 0 18 -4 18 -10 0 -14 -26 -12 -42 3 -7 8 -19 12 -27 9
-7 -2 -17 2 -22 9 -12 19 -95 -10 -92 -32 2 -8 -5 -15 -15 -16 -49 -4 -62 -8
-58 -20 4 -10 -1 -12 -19 -7 -16 4 -25 2 -25 -6 0 -7 -6 -10 -14 -7 -8 3 -17
-1 -20 -9 -6 -15 4 -17 62 -16 17 1 32 -3 32 -8 0 -6 -33 -10 -74 -10 -41 0
-83 -3 -93 -6 -13 -4 -14 -3 -5 4 11 7 10 11 -4 16 -10 4 -24 0 -34 -9 -15
-14 -38 -20 -82 -24 -5 -1 -8 -8 -8 -16 0 -8 -5 -15 -10 -15 -6 0 -22 -12 -36
-27 -20 -22 -34 -27 -82 -29 -31 -1 -45 0 -29 2 15 3 27 9 27 14 0 12 -91 9
-107 -3 -7 -5 -18 -5 -25 -1 -15 9 -146 6 -162 -4 -6 -3 -15 -7 -21 -7 -5 0
-25 -4 -42 -9 -18 -4 -38 -4 -45 0 -6 4 -27 8 -46 8 -26 1 -36 6 -38 19 -2 13
2 16 17 12 12 -4 19 -2 19 7 0 15 -77 22 -186 18 -20 -1 -41 3 -47 9 -14 14
-30 14 -22 1 3 -5 -3 -10 -14 -10 -11 0 -60 -33 -108 -74 -99 -83 -182 -166
-167 -166 16 0 10 -40 -7 -51 -8 -5 -27 -9 -44 -9 -25 -1 -45 -18 -123 -103
-50 -57 -125 -145 -165 -198 -115 -151 -146 -186 -247 -276 -343 -306 -815
-477 -1443 -523 -124 -9 -152 -14 -170 -30 -22 -21 -47 -27 -47 -11 0 5 10 12
23 16 l22 8 -23 4 c-13 3 -29 0 -36 -6 -10 -8 -22 -8 -40 -1 -44 16 -77 12
-83 -9 -3 -11 -15 -21 -27 -23 -11 -2 -22 -10 -22 -18 -1 -8 -3 -19 -4 -25 -1
-5 -2 -13 -1 -17 0 -4 -9 -4 -22 1 -20 8 -25 5 -36 -21 -8 -18 -26 -36 -42
-42 -16 -6 -29 -14 -29 -18 0 -4 -5 -8 -11 -8 -8 0 -7 5 1 15 11 13 10 18 -6
30 -23 17 -31 18 -39 5 -5 -8 -11 -8 -20 0 -7 6 -24 10 -37 9 -39 -4 -59 1
-53 11 3 6 -5 10 -19 10 -13 0 -31 7 -39 15 -8 8 -16 12 -19 10 -2 -2 -19 -6
-38 -9 -19 -2 -50 -9 -67 -14 -19 -6 -35 -7 -38 -2 -3 5 -12 7 -20 3 -8 -3
-15 0 -15 6 0 6 -5 11 -11 11 -7 0 -17 7 -23 15 -9 11 -20 12 -51 5 -37 -8
-38 -8 -20 6 19 15 18 15 -10 8 -16 -3 -34 -11 -40 -15 -12 -12 -28 -12 -21 0
5 8 90 51 101 51 2 0 2 -7 -1 -15 -4 -8 -2 -15 4 -15 17 0 22 28 6 34 -29 11
-73 6 -81 -9 -12 -20 -55 -24 -58 -5 -2 11 6 17 23 18 32 3 55 22 27 22 -15 0
-16 3 -7 12 27 27 18 31 -168 62 -160 26 -190 26 -220 -2 -23 -21 -68 -37 -78
-27 -3 3 0 5 6 5 6 0 9 7 6 15 -4 8 -1 15 6 15 10 0 10 3 0 15 -14 17 -40 3
-40 -21 0 -8 -5 -14 -11 -14 -5 0 -8 -4 -4 -9 6 -11 -46 -51 -67 -51 -7 0 -22
-13 -31 -30 -19 -31 -41 -42 -31 -15 5 11 -1 15 -24 15 -17 0 -34 -5 -38 -12
-4 -7 -3 -8 4 -4 24 14 11 -10 -15 -28 -18 -14 -25 -15 -21 -5 3 8 9 23 13 34
l7 20 -16 -20 c-8 -11 -20 -26 -26 -32 -8 -10 -7 -13 2 -13 7 0 0 -12 -15 -25
-15 -14 -36 -25 -45 -24 -13 0 -11 3 6 11 15 8 20 17 17 29 -7 22 75 92 98 84
16 -7 86 54 106 93 7 13 27 30 44 37 l32 13 -30 12 c-31 12 -75 6 -75 -10 0
-6 5 -10 11 -10 5 0 7 -5 4 -10 -4 -6 -13 -9 -20 -8 -8 2 -21 -6 -29 -17 -15
-19 -15 -19 -16 13 0 22 -4 32 -12 29 -7 -2 -13 -12 -13 -22 0 -13 -11 -22
-33 -29 -33 -9 -40 -20 -21 -31 6 -4 17 1 24 11 8 11 15 14 15 8 0 -6 -11 -23
-25 -38 -25 -27 -26 -27 -74 1 -2 2 3 11 13 22 16 18 16 19 -9 25 -14 4 -30 4
-35 1 -14 -9 -12 -42 3 -48 9 -4 9 -7 0 -14 -7 -5 -13 -29 -14 -53 -1 -25 -10
-60 -20 -78 -19 -32 -19 -34 1 -73 26 -49 46 -59 66 -30 19 27 37 27 29 1 -6
-20 1 -24 37 -21 12 2 16 -3 12 -13 -4 -10 -1 -16 9 -16 9 0 22 -2 29 -5 9 -4
19 4 26 17 8 18 11 19 11 6 1 -19 26 -24 36 -8 3 6 1 10 -4 10 -6 0 -11 5 -11
11 0 6 9 9 20 6 11 -3 27 1 34 9 8 8 21 12 29 9 7 -3 25 -1 40 4 34 13 44 -3
15 -23 -18 -13 -19 -16 -5 -16 10 0 17 -8 17 -20 0 -16 -7 -20 -37 -20 -28 0
-34 3 -23 10 8 5 11 10 5 10 -19 -1 -43 -26 -47 -50 -1 -14 -10 -25 -18 -25
-8 0 -14 6 -13 13 5 20 -14 14 -41 -13 -27 -27 -51 -34 -43 -12 4 10 -3 12
-24 9 -17 -3 -29 0 -29 7 0 6 -9 11 -20 11 -11 0 -20 -3 -20 -7 0 -16 63 -102
71 -97 5 3 6 -1 3 -9 -3 -8 9 -28 26 -46 17 -17 27 -31 20 -31 -8 0 -8 -6 0
-20 15 -27 52 -27 48 0 -2 14 5 25 22 33 14 7 25 18 25 24 0 7 6 18 13 25 9 9
12 8 12 -10 0 -12 -4 -22 -10 -22 -5 0 -10 -6 -10 -13 0 -7 -9 -18 -20 -25
-11 -7 -20 -21 -20 -32 0 -11 -4 -20 -10 -20 -5 0 -10 -5 -10 -10 0 -6 11 -8
25 -4 32 8 115 11 115 4 0 -4 16 -4 35 -2 27 3 35 1 35 -12 0 -9 -5 -16 -11
-16 -5 0 -7 6 -3 13 4 6 -2 4 -13 -5 -11 -10 -25 -18 -31 -18 -7 0 -12 -4 -12
-10 0 -5 4 -10 8 -10 4 0 8 -11 8 -24 0 -14 -4 -22 -8 -20 -5 3 -6 10 -3 15 4
5 2 9 -3 9 -12 0 -20 -21 -15 -37 7 -19 21 -16 58 14 31 25 33 29 19 44 -14
16 -12 18 21 29 28 9 39 9 50 0 12 -10 18 -10 30 0 14 11 19 7 16 -12 0 -5 4
-8 9 -8 6 0 10 11 10 25 0 14 -5 25 -11 25 -7 0 0 11 15 25 15 14 32 23 37 19
5 -3 16 0 24 6 11 9 15 9 15 1 0 -6 6 -11 14 -11 18 0 8 -50 -10 -51 -28 -3
-32 -4 -40 -11 -4 -5 9 -8 29 -8 21 0 37 4 37 10 0 11 28 9 47 -3 6 -4 18 -4
27 -1 9 3 16 1 16 -5 0 -6 -9 -11 -20 -11 -11 0 -20 -4 -20 -10 0 -15 50 -12
50 3 0 7 7 4 15 -7 13 -17 15 -18 21 -2 5 12 10 14 19 6 11 -9 12 -6 8 12 -3
14 -1 18 4 11 6 -9 14 -7 32 6 23 18 23 18 2 24 -11 3 -21 2 -21 -2 0 -4 -13
-12 -29 -18 -25 -9 -29 -8 -27 6 2 9 12 17 24 19 13 2 19 8 15 18 -3 8 0 14 7
14 7 0 10 7 7 14 -4 9 2 18 15 22 16 5 18 8 7 15 -10 6 -11 9 -2 9 7 0 22 -9
33 -20 11 -11 28 -20 38 -20 10 0 23 -5 30 -12 9 -9 12 -9 12 0 0 7 9 12 19
12 11 0 23 5 26 10 3 6 -2 10 -12 10 -15 0 -16 2 -3 10 9 6 17 5 21 -2 8 -12
49 7 49 22 0 6 6 10 14 10 7 0 22 11 32 25 10 14 28 25 39 25 17 -1 16 -3 -7
-16 -16 -8 -28 -23 -28 -34 0 -13 -7 -20 -20 -20 -11 0 -20 -6 -20 -13 0 -8
-11 -20 -25 -27 -23 -12 -24 -15 -10 -30 15 -16 13 -18 -20 -24 -21 -4 -35
-13 -35 -21 0 -8 -5 -15 -11 -15 -6 0 -8 7 -5 16 11 28 -28 11 -42 -19 -9 -18
-19 -26 -28 -23 -16 6 -18 -12 -5 -33 6 -9 17 -12 32 -7 46 13 102 17 108 8 4
-6 17 -2 31 10 21 17 22 22 10 31 -18 15 -25 47 -10 47 6 0 8 5 5 10 -3 6 -1
10 6 10 7 0 9 -10 7 -25 -3 -14 -2 -25 3 -25 16 0 40 33 35 47 -10 25 65 12
91 -15 24 -26 21 -52 -7 -52 -29 0 -50 -11 -50 -26 0 -8 -7 -17 -15 -20 -13
-5 -12 -10 6 -25 12 -11 26 -19 30 -19 16 0 21 22 8 31 -19 12 -6 11 25 -1 16
-6 27 -6 31 0 4 6 18 10 33 10 25 0 67 18 50 21 -17 3 -24 6 -58 21 -30 14
-33 17 -16 23 11 5 27 3 38 -4 22 -14 38 -7 38 17 0 15 1 15 17 0 15 -16 17
-16 29 0 8 9 14 12 14 5 0 -6 -12 -25 -26 -42 l-26 -31 44 5 c32 4 49 0 67
-14 l24 -19 -21 -11 c-18 -9 -22 -9 -22 3 0 21 -30 29 -36 8 -3 -9 -10 -25
-15 -34 -12 -23 -11 -31 1 -23 6 3 10 1 10 -5 0 -6 -11 -15 -25 -20 -22 -8
-24 -12 -13 -24 11 -11 16 -11 33 0 17 11 25 10 54 -3 37 -18 29 -29 -10 -15
-13 5 -31 6 -39 1 -8 -4 -24 -11 -35 -15 -18 -7 -17 -8 8 -12 15 -2 28 -8 28
-13 1 -5 2 -15 3 -21 2 -22 47 -21 68 1 l19 21 -38 -6 c-35 -5 -39 -4 -39 15
0 18 5 20 31 15 17 -3 42 -1 57 5 23 9 30 7 41 -9 8 -11 17 -17 20 -14 3 4 14
-2 24 -12 17 -17 17 -18 0 -11 -49 18 -67 19 -67 3 0 -11 9 -16 28 -16 16 0
37 -7 48 -15 18 -14 17 -14 -13 -15 -17 0 -35 -5 -39 -11 -3 -6 -17 -8 -30 -5
-14 4 -24 2 -24 -4 0 -5 -20 -10 -45 -10 -31 0 -47 -5 -51 -15 -5 -11 -11 -12
-24 -5 -13 7 -27 5 -47 -5 -22 -12 -24 -15 -8 -15 32 0 3 -18 -35 -22 -36 -3
-61 -17 -54 -30 3 -4 -5 -12 -16 -18 -27 -14 -26 -30 3 -30 16 0 18 3 8 9 -9
6 -10 11 -2 15 6 4 16 4 23 0 6 -4 31 -6 55 -5 30 1 42 -3 41 -11 -2 -8 5 -12
16 -10 11 2 15 -1 11 -7 -3 -6 -17 -11 -31 -11 -13 0 -24 -4 -24 -9 0 -8 -23
-18 -63 -27 -10 -2 -16 0 -12 6 3 5 13 10 21 10 8 0 14 5 14 10 0 6 6 10 14
10 7 0 19 7 26 15 11 14 10 14 -14 5 -34 -13 -39 -13 -31 0 10 17 -6 11 -63
-21 -43 -24 -56 -28 -68 -18 -12 10 -15 10 -12 -2 2 -9 -4 -13 -17 -12 -26 2
-57 -16 -49 -29 4 -7 9 -6 15 3 4 8 21 14 37 15 15 1 39 4 53 8 19 4 17 3 -6
-9 -24 -11 -26 -14 -10 -15 l20 -1 -20 -9 c-28 -12 -55 -13 -37 -1 11 7 10 9
-2 14 -12 5 -20 -1 -27 -20 -7 -18 -13 -23 -20 -16 -7 7 -18 3 -34 -13 -17
-16 -36 -24 -60 -24 -22 0 -34 4 -30 10 3 6 2 10 -3 10 -6 0 -12 -7 -16 -15
-3 -8 -16 -15 -30 -15 -14 0 -28 -5 -32 -11 -4 -8 -9 -8 -13 -1 -4 7 -12 7
-20 3 -18 -12 -5 -32 16 -24 11 4 14 3 9 -6 -11 -17 18 -47 159 -160 192 -154
447 -322 460 -301 3 5 -1 13 -9 16 -9 3 -16 13 -16 21 0 7 -12 25 -27 39 -14
13 -24 26 -22 29 8 7 59 -44 59 -59 0 -7 17 -18 39 -24 48 -15 54 -15 45 0 -4
7 -3 8 4 4 16 -10 15 -36 -1 -36 -7 0 -18 5 -25 12 -12 12 -13 11 -16 -24 -1
-7 4 -13 9 -13 6 -1 26 -11 44 -23 24 -14 39 -18 47 -11 9 7 11 5 10 -8 0 -10
6 -18 14 -18 8 0 17 -2 20 -5 15 -16 131 -70 149 -70 12 0 21 -4 21 -9 0 -11
164 -76 300 -119 143 -46 247 -70 409 -98 145 -25 382 -44 369 -29 -4 4 2 16
13 28 10 11 19 27 19 35 0 9 7 11 20 7 11 -3 20 -2 20 3 0 5 12 17 26 27 23
15 27 15 49 1 31 -20 55 -20 55 -1 0 12 -4 13 -19 6 -15 -9 -20 -7 -24 9 -6
25 7 34 30 21 10 -5 39 -12 64 -16 75 -11 79 -18 30 -64 -24 -23 -52 -41 -62
-41 -11 0 -19 -4 -19 -10 0 -6 29 -10 66 -10 56 0 65 2 55 14 -8 9 -8 16 -2
20 5 4 13 1 17 -5 3 -6 19 -9 35 -5 16 3 29 2 29 -2 0 -4 12 -9 26 -10 32 -2
284 34 374 54 104 24 102 23 96 52 l-6 27 16 -23 c19 -26 25 -27 90 -7 44 13
50 18 49 42 0 18 6 29 18 31 20 4 25 -33 5 -41 -8 -3 -6 -6 4 -6 46 -2 438
154 438 174 0 17 -27 22 -75 14 -22 -3 -33 -7 -25 -8 12 -1 12 -3 -2 -12 -28
-16 -68 -1 -68 27 0 15 6 24 15 24 15 0 21 32 16 92 -1 14 2 29 8 32 10 7 23
-24 19 -45 -2 -7 6 -15 17 -17 16 -4 17 -2 7 11 -7 8 -9 23 -5 32 6 16 7 16
15 -4 5 -15 13 -21 25 -17 10 3 25 1 33 -4 13 -8 12 -11 -5 -24 -11 -9 -26
-16 -32 -16 -7 0 -13 -4 -13 -8 0 -12 45 -49 69 -57 12 -3 19 -11 15 -16 -3
-6 27 6 68 26 134 67 235 128 244 148 5 12 15 23 23 25 8 3 11 0 7 -7 -13 -21
6 -11 97 52 200 136 505 396 491 418 -3 5 1 9 9 9 15 0 98 85 162 165 22 28
42 52 45 55 26 25 90 110 90 119 0 6 7 14 15 17 8 3 17 15 20 25 4 11 17 30
29 42 42 42 239 374 230 388 -3 5 -1 9 4 9 20 0 145 300 210 500 53 168 57
184 38 177 -10 -4 -13 -1 -9 9 3 7 11 14 19 14 8 0 14 5 14 10 0 7 -6 7 -19 0
-29 -15 -31 -13 -24 23 6 34 37 72 52 63 14 -9 71 325 71 417 0 27 -3 29 -30
25 -19 -3 -30 0 -30 7 0 14 28 39 53 48 15 6 17 25 17 209 0 112 -7 261 -15
333 -8 72 -15 133 -15 138 0 15 -20 6 -20 -9 0 -14 -3 -14 -15 -4 -8 7 -15 18
-15 26 0 7 -9 19 -20 27 l-21 14 22 6 c13 4 28 -1 37 -10 12 -12 17 -12 20 -3
3 7 1 15 -4 19 -5 3 -9 28 -9 54 0 26 -5 51 -11 55 -6 4 -16 17 -23 29 -9 17
-8 24 3 30 12 7 9 29 -19 139 -38 151 -54 190 -78 188 -9 -1 -14 2 -11 7 7 12
-76 9 -152 -5z m77 -22 c13 -8 -9 -34 -27 -34 -8 0 -14 5 -14 11 0 7 -10 9
-25 7 -27 -6 -32 1 -14 19 10 10 62 9 80 -3z m-64 -68 c-20 -14 -53 -28 -74
-31 l-38 -5 40 15 c22 9 47 22 55 30 8 8 23 15 34 15 14 0 10 -6 -17 -24z
m-247 -40 c0 -3 -4 -8 -10 -11 -5 -3 -10 -1 -10 4 0 6 5 11 10 11 6 0 10 -2
10 -4z m-83 -12 c-3 -3 -12 -4 -19 -1 -8 3 -5 6 6 6 11 1 17 -2 13 -5z m196
-21 c-7 -2 -19 -2 -25 0 -7 3 -2 5 12 5 14 0 19 -2 13 -5z m-22 -55 c54 -16
51 -38 -3 -38 -52 0 -71 11 -62 33 7 20 14 21 65 5z m-165 -32 c3 -8 12 -12
20 -9 8 3 14 0 14 -6 0 -6 -14 -11 -31 -11 -17 0 -39 -5 -50 -10 -16 -9 -19
-7 -19 10 0 11 -6 20 -12 20 -9 0 -8 4 2 10 23 15 70 12 76 -4z m141 -32 c-3
-3 -12 -4 -19 -1 -8 3 -5 6 6 6 11 1 17 -2 13 -5z m-104 -24 c24 0 38 -18 43
-53 2 -20 0 -39 -6 -42 -5 -3 -10 1 -10 9 0 18 -20 32 -29 20 -3 -5 -21 -14
-38 -21 -38 -13 -56 2 -21 17 19 9 16 10 -19 6 -24 -2 -43 -1 -43 3 0 11 67
41 82 37 7 -1 10 -1 6 1 -16 9 -8 35 8 29 9 -3 21 -6 27 -6z m-106 -26 c-3 -3
-12 -4 -19 -1 -8 3 -5 6 6 6 11 1 17 -2 13 -5z m-22 -64 c-3 -5 -12 -10 -18
-10 -7 0 -6 4 3 10 19 12 23 12 15 0z m619 -51 c-4 -7 4 -20 17 -30 30 -23 8
-25 -27 -3 -19 13 -22 20 -13 30 14 17 33 19 23 3z m-126 -97 c-10 -2 -18 -7
-18 -12 0 -4 -9 -10 -20 -13 -13 -3 -20 0 -20 9 0 12 -5 12 -30 -1 -21 -11
-36 -13 -48 -6 -17 10 -12 12 53 24 27 5 104 4 83 -1z m-261 -8 c-3 -3 -12 -4
-19 -1 -8 3 -5 6 6 6 11 1 17 -2 13 -5z m328 -23 c4 -9 0 -11 -11 -7 -8 3 -28
6 -42 6 -16 0 -22 3 -15 8 19 12 62 8 68 -7z m-225 -138 c-8 -3 -18 -10 -21
-15 -3 -5 -12 -2 -19 7 -11 13 -8 15 21 14 19 0 27 -3 19 -6z m-610 -158 c-11
-13 -34 -20 -97 -28 -12 -2 -26 -6 -29 -10 -4 -4 -12 -7 -18 -7 -6 0 -3 8 6
17 10 9 32 16 50 16 18 0 42 6 53 13 28 20 51 19 35 -1z m-170 -15 c11 -7 6
-10 -22 -10 -20 0 -38 -6 -41 -12 -3 -10 -8 -10 -22 2 -17 14 -16 15 6 21 36
10 62 10 79 -1z m-20 -40 c-8 -5 -19 -10 -25 -10 -5 0 -3 5 5 10 8 5 20 10 25
10 6 0 3 -5 -5 -10z m-50 -14 c0 -3 -4 -8 -10 -11 -5 -3 -10 -1 -10 4 0 6 5
11 10 11 6 0 10 -2 10 -4z m-893 -39 c0 -7 -7 -19 -16 -27 -13 -13 -14 -12 -8
3 3 9 2 17 -4 17 -6 0 -7 5 -4 10 9 14 32 12 32 -3z m53 -1 c0 -3 -4 -8 -10
-11 -5 -3 -10 -1 -10 4 0 6 5 11 10 11 6 0 10 -2 10 -4z m-80 -106 c-6 -11
-17 -20 -25 -20 -20 0 -19 10 3 26 25 19 34 17 22 -6z m1410 16 c0 -3 -4 -8
-10 -11 -5 -3 -10 -1 -10 4 0 6 5 11 10 11 6 0 10 -2 10 -4z m297 -22 c-3 -3
-12 -4 -19 -1 -8 3 -5 6 6 6 11 1 17 -2 13 -5z m-1722 -34 c-3 -5 -13 -10 -21
-10 -8 0 -14 -5 -14 -12 0 -6 -3 -8 -6 -5 -10 9 16 37 33 37 8 0 11 -4 8 -10z
m282 4 c-3 -3 -12 -4 -19 -1 -8 3 -5 6 6 6 11 1 17 -2 13 -5z m-514 -51 c-7
-2 -19 -2 -25 0 -7 3 -2 5 12 5 14 0 19 -2 13 -5z m517 2 c0 -3 -10 -10 -22
-15 -23 -9 -23 -9 -2 -9 12 -1 27 6 34 14 7 8 16 12 21 9 10 -6 -16 -35 -46
-52 -14 -8 -16 -12 -5 -12 8 0 0 -8 -18 -17 -33 -16 -59 -10 -32 7 13 8 12 10
-2 10 -25 0 -22 17 3 23 12 3 18 10 14 16 -10 17 4 31 31 31 13 0 24 -2 24 -5z
m-519 -44 c-6 -10 -7 -21 -4 -25 3 -3 2 -6 -3 -6 -14 0 -46 -58 -39 -70 3 -6
-2 -10 -12 -10 -14 0 -15 -2 -5 -9 10 -6 8 -10 -10 -15 -19 -5 -20 -8 -8 -16
13 -8 12 -10 -2 -10 -10 0 -18 -4 -18 -10 0 -5 6 -10 13 -10 6 0 -1 -7 -17
-15 -16 -9 -31 -13 -34 -10 -3 3 2 29 11 57 9 28 14 55 11 60 -3 4 0 8 6 8 6
0 8 5 5 10 -3 6 -1 10 4 10 13 0 51 36 51 48 0 14 24 32 42 32 15 0 17 -4 9
-19z m69 -41 c0 -5 -5 -10 -11 -10 -5 0 -7 5 -4 10 3 6 8 10 11 10 2 0 4 -4 4
-10z m80 -5 c-7 -8 -9 -15 -4 -15 16 0 -21 -20 -38 -20 -14 0 -13 4 5 25 24
27 59 37 37 10z m1480 -5 c0 -5 -4 -10 -10 -10 -5 0 -10 5 -10 10 0 6 5 10 10
10 6 0 10 -4 10 -10z m-1440 -19 c0 -6 -4 -13 -10 -16 -5 -3 -10 1 -10 9 0 9
5 16 10 16 6 0 10 -4 10 -9z m-120 -30 c0 -14 -6 -19 -20 -18 -11 1 -20 5 -20
10 0 5 7 7 15 3 9 -3 15 0 15 9 0 8 2 15 5 15 3 0 5 -9 5 -19z m40 -2 c0 -7
10 -9 28 -5 24 6 25 5 7 -6 -24 -14 -45 -34 -45 -43 0 -3 5 -3 10 0 12 7 12 3
4 -19 -8 -21 -40 -20 -48 1 -5 12 1 23 19 36 20 15 23 22 14 33 -8 10 -8 14 0
14 6 0 11 -5 11 -11z m2245 -9 c-3 -5 -17 -10 -31 -10 -17 0 -23 -4 -18 -12 5
-7 3 -8 -6 -3 -7 4 -16 2 -20 -5 -4 -7 -13 -9 -20 -5 -9 6 -3 13 21 25 38 20
84 26 74 10z m-2170 -20 c-4 -6 -10 -8 -15 -5 -4 3 -10 -1 -13 -7 -2 -7 -8
-10 -12 -6 -11 11 4 28 26 28 11 0 17 -5 14 -10z m546 -29 c-12 -12 -26 -21
-32 -21 -7 0 -9 -12 -5 -35 5 -25 2 -42 -9 -57 -12 -19 -15 -19 -15 -5 0 9 4
17 8 17 4 0 8 9 8 19 0 16 -4 17 -24 10 -36 -14 -41 -11 -39 19 2 20 8 28 25
30 12 2 22 8 22 14 0 5 7 7 16 4 10 -4 18 1 21 13 5 20 35 34 41 19 2 -3 -6
-16 -17 -27z m1504 -1 c-4 -7 3 -9 22 -5 15 3 22 2 16 -1 -7 -3 -13 -14 -13
-25 0 -12 -7 -19 -18 -19 -10 0 -23 -5 -30 -12 -9 -9 -12 -8 -12 5 0 11 8 17
25 17 14 0 25 5 25 11 0 7 -15 9 -42 4 l-43 -6 30 20 c34 22 49 26 40 11z
m-558 -26 c-2 -3 -22 -7 -43 -10 -28 -3 -33 -2 -19 5 11 4 23 7 26 5 4 -2 13
3 20 12 9 11 15 12 17 4 2 -6 2 -13 -1 -16z m-1697 -26 c0 -5 -7 -7 -16 -4 -8
3 -13 2 -10 -3 3 -5 -3 -11 -13 -14 -14 -3 -18 -1 -14 9 3 8 -1 15 -8 15 -8 1
0 5 16 8 33 8 45 5 45 -11z m-74 -32 c3 -8 13 -12 23 -9 21 5 48 -22 31 -32
-5 -3 -10 -1 -10 4 0 13 -10 14 -29 2 -9 -6 -10 -14 -5 -22 5 -8 9 -18 9 -24
0 -5 11 -10 25 -10 35 -1 35 -43 0 -67 -14 -10 -20 -18 -13 -18 6 0 15 5 18
10 6 10 45 15 45 6 0 -16 -15 -36 -27 -36 -8 0 -12 -4 -8 -9 3 -5 -5 -17 -17
-25 -21 -15 -24 -15 -39 5 -9 12 -21 19 -27 15 -6 -3 -14 -1 -17 5 -11 17 0
20 28 10 22 -9 25 -7 24 10 -1 15 -7 19 -20 15 -10 -2 -25 -2 -33 1 -23 8 3
33 35 33 20 0 23 2 11 10 -11 7 -11 10 -2 10 10 0 10 5 2 20 -6 11 -8 26 -4
32 5 8 2 9 -10 5 -14 -5 -15 -3 -6 13 8 15 6 21 -10 30 -11 6 -18 15 -15 21 9
14 35 11 41 -5z m2329 -6 c3 -5 -3 -10 -14 -10 -12 0 -21 5 -21 10 0 6 6 10
14 10 8 0 18 -4 21 -10z m60 0 c3 -6 -4 -10 -17 -10 -18 0 -20 2 -8 10 19 12
18 12 25 0z m-1744 -23 c-1 -12 -15 -9 -19 4 -3 6 1 10 8 8 6 -3 11 -8 11 -12z
m-741 -12 c0 -8 -7 -15 -15 -15 -16 0 -20 12 -8 23 11 12 23 8 23 -8z m780 5
c0 -5 -4 -10 -10 -10 -5 0 -10 5 -10 10 0 6 5 10 10 10 6 0 10 -4 10 -10z
m-17 -26 c-7 -3 -10 -11 -7 -19 3 -8 0 -22 -6 -32 -10 -16 -11 -16 -6 0 4 11
0 17 -12 18 -16 1 -16 2 0 6 10 2 15 10 11 19 -3 9 1 14 13 13 11 0 14 -3 7
-5z m-52 -46 c6 -11 8 -22 6 -25 -3 -2 -8 5 -12 16 -3 12 -13 21 -21 21 -8 0
-14 4 -14 10 0 15 30 0 41 -22z m1613 17 c-4 -8 -11 -15 -16 -15 -6 0 -5 6 2
15 7 8 14 15 16 15 2 0 1 -7 -2 -15z m-2457 -1 c-3 -3 -12 -4 -19 -1 -8 3 -5
6 6 6 11 1 17 -2 13 -5z m1250 -20 c-3 -3 -12 -4 -19 -1 -8 3 -5 6 6 6 11 1
17 -2 13 -5z m331 -31 c-28 -58 -33 -63 -58 -63 -19 0 -30 -7 -38 -25 -7 -16
-17 -23 -27 -19 -11 5 -12 11 -4 25 7 15 6 19 -6 19 -8 0 -15 5 -15 11 0 5 5
7 10 4 6 -4 31 5 55 20 25 14 50 23 55 20 6 -3 10 -1 10 4 0 6 5 11 11 11 6 0
9 -3 7 -7z m-468 -33 c0 -5 -4 -10 -9 -10 -6 0 -13 5 -16 10 -3 6 1 10 9 10 9
0 16 -4 16 -10z m-945 -10 c-3 -5 -10 -10 -16 -10 -5 0 -9 5 -9 10 0 6 7 10
16 10 8 0 12 -4 9 -10z m597 -15 c-5 -28 -17 -33 -26 -10 -4 11 12 30 30 35 1
0 -1 -11 -4 -25z m-859 -13 c-2 -7 8 -12 22 -12 32 0 32 -18 0 -26 -15 -4 -32
-1 -42 7 -9 8 -26 13 -37 12 -15 -1 -16 0 -3 3 9 3 17 12 17 20 0 10 8 14 23
12 12 -2 21 -9 20 -16z m264 2 c-3 -3 -12 -4 -19 -1 -8 3 -5 6 6 6 11 1 17 -2
13 -5z m518 -22 c-3 -3 -11 0 -18 7 -9 10 -8 11 6 5 10 -3 15 -9 12 -12z m345
8 c0 -5 -10 -10 -22 -10 -19 0 -20 2 -8 10 19 13 30 13 30 0z m180 2 c0 -5 10
-14 23 -20 17 -8 18 -11 5 -11 -10 -1 -18 -7 -19 -13 0 -10 -2 -10 -6 -1 -3
10 -8 9 -20 -2 -17 -17 -33 -20 -33 -5 0 6 -7 10 -15 10 -8 0 -15 5 -15 10 0
6 7 10 15 10 8 0 15 -4 15 -10 0 -21 20 -9 26 15 6 23 24 36 24 17z m-1010
-12 c0 -5 -4 -10 -9 -10 -6 0 -13 5 -16 10 -3 6 1 10 9 10 9 0 16 -4 16 -10z
m-185 -10 c-3 -5 -10 -10 -16 -10 -5 0 -9 5 -9 10 0 6 7 10 16 10 8 0 12 -4 9
-10z m170 -10 c3 -5 -1 -10 -10 -10 -9 0 -13 5 -10 10 3 6 8 10 10 10 2 0 7
-4 10 -10z m60 0 c3 -6 -4 -10 -17 -10 -18 0 -20 -2 -8 -10 8 -5 11 -12 7 -17
-13 -12 -27 20 -15 34 13 16 25 17 33 3z m2411 -12 c-10 -6 -20 -7 -24 -3 -9
8 20 25 31 18 5 -3 2 -10 -7 -15z m-2831 2 c3 -5 1 -10 -4 -10 -6 0 -11 5 -11
10 0 6 2 10 4 10 3 0 8 -4 11 -10z m499 -5 c3 -8 4 -15 2 -15 -3 0 -11 -3 -19
-6 -8 -3 -17 2 -21 11 -3 9 -2 13 4 10 6 -3 10 -1 10 4 0 16 17 13 24 -4z
m231 5 c-3 -5 -12 -10 -18 -10 -7 0 -6 4 3 10 19 12 23 12 15 0z m157 1 c-8
-4 -13 -12 -13 -17 1 -13 -48 -24 -55 -13 -3 5 10 16 28 24 36 16 61 20 40 6z
m301 3 c7 -8 -17 -34 -32 -34 -14 0 -14 8 2 25 13 16 21 18 30 9z m97 -4 c0
-5 -7 -10 -16 -10 -8 0 -12 5 -9 10 3 6 10 10 16 10 5 0 9 -4 9 -10z m-510
-20 c0 -5 -2 -10 -4 -10 -3 0 -8 5 -11 10 -3 6 -1 10 4 10 6 0 11 -4 11 -10z
m476 -3 c4 -4 19 -7 33 -7 37 0 13 -19 -32 -25 -29 -4 -35 -2 -31 10 4 8 1 15
-5 15 -6 0 -11 4 -11 8 0 10 36 9 46 -1z m-901 -47 c1 -19 -3 -30 -11 -30 -8
0 -11 7 -7 18 5 14 3 13 -10 -3 -9 -11 -17 -15 -17 -7 0 6 -10 12 -22 13 -22
1 -22 1 2 9 14 4 19 8 13 9 -22 2 -14 21 8 21 13 0 18 -5 14 -12 -3 -7 0 -5 7
4 15 21 21 16 23 -22z m385 30 c0 -5 -7 -10 -15 -10 -8 0 -15 5 -15 10 0 6 7
10 15 10 8 0 15 -4 15 -10z m-340 -10 c0 -5 -4 -10 -10 -10 -5 0 -10 5 -10 10
0 6 5 10 10 10 6 0 10 -4 10 -10z m300 -10 c0 -5 8 -10 18 -10 15 -1 15 -2 -2
-11 -14 -9 -20 -8 -27 2 -12 19 -11 29 1 29 6 0 10 -4 10 -10z m1260 0 c0 -5
-4 -10 -10 -10 -5 0 -10 5 -10 10 0 6 5 10 10 10 6 0 10 -4 10 -10z m-1315
-10 c3 -5 1 -10 -4 -10 -6 0 -11 5 -11 10 0 6 2 10 4 10 3 0 8 -4 11 -10z
m645 3 c-8 -3 -18 -11 -22 -17 -4 -6 -10 -7 -15 -3 -9 10 16 27 37 26 13 -1
13 -1 0 -6z m-98 -35 c-9 -9 -15 -9 -24 0 -9 9 -8 12 6 12 11 0 15 5 10 13 -6
10 -4 10 7 0 10 -10 10 -16 1 -25z m-67 12 c3 -5 2 -10 -4 -10 -5 0 -13 5 -16
10 -3 6 -2 10 4 10 5 0 13 -4 16 -10z m830 0 c3 -5 -1 -10 -9 -10 -9 0 -16 5
-16 10 0 6 4 10 9 10 6 0 13 -4 16 -10z m312 4 c-3 -3 -12 -4 -19 -1 -8 3 -5
6 6 6 11 1 17 -2 13 -5z m-1977 -14 c0 -5 -4 -10 -10 -10 -5 0 -10 5 -10 10 0
6 5 10 10 10 6 0 10 -4 10 -10z m350 0 c0 -5 -5 -10 -11 -10 -5 0 -7 5 -4 10
3 6 8 10 11 10 2 0 4 -4 4 -10z m668 -2 c-3 -7 -15 -14 -29 -16 -23 -2 -23 -2
-5 13 24 18 39 20 34 3z m789 6 c-3 -3 -12 -4 -19 -1 -8 3 -5 6 6 6 11 1 17
-2 13 -5z m-1537 -19 c0 -9 -6 -12 -16 -8 -13 5 -13 7 -2 14 17 11 18 11 18
-6z m183 0 c9 -8 13 -24 10 -35 -3 -11 0 -20 6 -20 5 0 8 -7 4 -16 -6 -16 -7
-16 -18 0 -7 9 -17 16 -23 16 -14 0 -27 45 -17 59 9 15 21 14 38 -4z m-553 -9
c0 6 11 12 25 12 13 0 22 -4 19 -9 -3 -5 0 -9 5 -9 6 0 11 -4 11 -8 0 -15 -73
2 -77 18 -4 13 -3 13 6 0 6 -8 11 -10 11 -4z m180 -1 c0 -12 -19 -12 -23 0 -4
9 -1 12 9 8 7 -3 14 -7 14 -8z m316 -3 c1 -7 0 -8 -3 -2 -2 5 -9 8 -14 4 -5
-3 -9 0 -9 6 0 15 23 7 26 -8z m124 6 c0 -9 4 -8 10 2 9 13 11 13 20 0 6 -10
10 -11 10 -2 0 6 12 12 26 12 14 0 23 -4 19 -10 -3 -5 -2 -10 4 -10 5 0 13 5
16 10 10 15 25 12 25 -6 0 -9 -9 -18 -20 -21 -11 -3 -20 -9 -20 -14 0 -14 -33
-49 -46 -49 -7 0 -31 -19 -54 -42 -23 -24 -36 -33 -28 -20 11 19 11 24 -2 32
-12 7 -11 12 5 32 11 12 27 28 35 35 8 6 11 15 7 19 -4 5 -12 2 -17 -6 -13
-21 -19 -10 -13 23 5 27 23 38 23 15z m376 -2 c18 -14 18 -15 -6 -25 -19 -7
-20 -10 -7 -10 12 -1 17 -7 15 -18 -6 -34 -26 -24 -33 17 -5 29 -11 40 -21 36
-7 -3 -16 -1 -19 4 -10 16 49 12 71 -4z m1096 7 c-6 -2 -10 -9 -6 -14 3 -5 -6
-9 -20 -9 -14 0 -26 -4 -26 -10 0 -5 -4 -10 -10 -10 -5 0 -9 5 -7 12 5 25 23
37 52 37 17 0 24 -3 17 -6z m-1964 -15 c6 -1 12 -6 12 -11 0 -5 -8 -6 -17 -3
-9 4 -20 1 -25 -6 -13 -21 -9 -29 10 -20 26 14 48 3 26 -12 -19 -14 -11 -36
12 -36 8 0 14 -8 14 -17 0 -12 -3 -14 -8 -6 -4 6 -20 15 -35 18 -26 7 -33 0
-28 -28 1 -5 -7 -6 -18 -2 -11 3 -21 0 -24 -9 -4 -9 4 -16 24 -20 33 -6 31
-20 -4 -36 -20 -10 -20 -10 -4 3 24 20 22 23 -15 24 -18 1 -27 -1 -20 -3 6 -3
12 -11 12 -17 0 -5 -3 -7 -7 -4 -3 4 -11 3 -17 -2 -19 -15 -108 -22 -104 -9 3
7 15 15 29 19 13 4 17 7 8 8 -8 1 -24 7 -35 15 -17 13 -12 14 44 9 61 -4 63
-4 53 15 -6 11 -7 22 -4 26 3 3 0 6 -9 6 -8 0 -15 7 -15 15 0 18 0 18 30 4 18
-8 30 -8 47 1 l22 12 -31 19 c-38 23 -39 31 -3 27 22 -2 26 1 24 16 -3 15 1
17 20 12 13 -4 29 -8 36 -8z m1772 2 c0 -5 -7 -10 -15 -10 -8 0 -15 5 -15 10
0 6 7 10 15 10 8 0 15 -4 15 -10z m-1000 -40 c0 -5 -8 -10 -17 -10 -15 0 -16
2 -3 10 19 12 20 12 20 0z m-135 -20 c-3 -5 -10 -10 -16 -10 -5 0 -9 5 -9 10
0 6 7 10 16 10 8 0 12 -4 9 -10z m374 -7 c8 -16 4 -18 -30 -20 -32 -1 -39 2
-39 18 0 25 55 27 69 2z m658 11 c-3 -3 -12 -4 -19 -1 -8 3 -5 6 6 6 11 1 17
-2 13 -5z m103 -14 c0 -11 -4 -20 -10 -20 -16 0 -12 -22 8 -36 16 -13 16 -14
-5 -20 -13 -3 -21 -10 -18 -14 8 -12 -23 -33 -40 -26 -19 7 -20 26 -1 26 9 0
17 15 21 40 4 22 11 40 16 40 5 0 8 3 8 8 -3 14 1 22 11 22 6 0 10 -9 10 -20z
m-1020 0 c0 -5 -8 -10 -17 -10 -15 0 -16 2 -3 10 19 12 20 12 20 0z m40 -12
c-13 -5 -25 -6 -29 -3 -9 10 21 24 37 17 12 -4 10 -7 -8 -14z m890 -29 c0 -5
-9 -9 -20 -9 -11 0 -20 6 -20 14 0 9 7 12 20 9 11 -3 20 -9 20 -14z m-810 -14
c0 -8 -4 -15 -9 -15 -13 0 -22 16 -14 24 11 11 23 6 23 -9z m60 3 c0 -10 2
-10 9 0 4 8 19 12 32 10 21 -3 17 -7 -28 -30 -43 -23 -51 -25 -48 -10 2 9 4
23 4 30 1 6 8 12 16 12 8 0 15 -6 15 -12z m360 2 c0 -5 -5 -10 -11 -10 -5 0
-7 5 -4 10 3 6 8 10 11 10 2 0 4 -4 4 -10z m530 0 c0 -5 -7 -10 -15 -10 -8 0
-15 5 -15 10 0 6 7 10 15 10 8 0 15 -4 15 -10z m-467 -26 c-4 -10 -9 -12 -15
-6 -12 12 -1 35 12 27 5 -3 6 -13 3 -21z m-847 -21 c-7 -7 -26 7 -26 19 0 6 6
6 15 -2 9 -7 13 -15 11 -17z m1354 17 c0 -5 -4 -10 -10 -10 -5 0 -10 5 -10 10
0 6 5 10 10 10 6 0 10 -4 10 -10z m-1583 -6 c-3 -3 -12 -4 -19 -1 -8 3 -5 6 6
6 11 1 17 -2 13 -5z m1288 -4 c3 -5 1 -10 -4 -10 -6 0 -11 5 -11 10 0 6 2 10
4 10 3 0 8 -4 11 -10z m-1199 -25 c1 -8 -2 -15 -7 -15 -5 0 -9 10 -9 22 0 23
12 17 16 -7z m1031 19 c-3 -3 -12 -4 -19 -1 -8 3 -5 6 6 6 11 1 17 -2 13 -5z
m393 -26 c-29 -11 -24 -15 10 -10 41 6 38 -14 -2 -22 -20 -4 -28 -10 -21 -14
8 -5 8 -11 0 -23 -10 -14 -14 -14 -25 -3 -10 11 -10 14 0 15 10 0 10 2 0 6 -6
2 -10 9 -7 14 4 5 -1 6 -9 3 -24 -9 -19 10 10 39 22 22 29 24 45 14 18 -11 18
-12 -1 -19z m-1305 13 c3 -5 1 -12 -5 -16 -5 -3 -10 1 -10 9 0 18 6 21 15 7z
m419 -16 c-4 -8 -8 -15 -10 -15 -2 0 -4 7 -4 15 0 8 4 15 10 15 5 0 7 -7 4
-15z m461 5 c-3 -5 -15 -10 -26 -10 -11 0 -17 5 -14 10 3 6 15 10 26 10 11 0
17 -4 14 -10z m-551 -18 c-15 -2 -20 -8 -17 -21 3 -11 -2 -21 -11 -24 -13 -5
-15 -3 -7 12 6 10 8 21 5 24 -12 12 7 25 29 19 22 -7 22 -7 1 -10z m-384 -2
c0 -5 -5 -10 -11 -10 -5 0 -7 -4 -4 -10 3 -6 -1 -7 -9 -4 -19 7 -21 20 -3 27
20 9 27 8 27 -3z m-555 -10 c14 -5 23 -14 20 -20 -3 -5 -1 -10 4 -10 6 0 11
-7 11 -15 0 -22 -37 -19 -71 6 -24 17 -29 18 -29 5 0 -9 -7 -16 -16 -16 -13 0
-14 -3 -5 -14 9 -11 4 -13 -28 -13 -33 0 -38 3 -34 18 3 11 14 19 25 19 23 0
58 30 36 31 -17 1 22 17 44 18 9 1 29 -3 43 -9z m125 -19 c0 6 5 7 11 3 16
-10 -1 -21 -43 -27 -40 -6 -52 2 -42 27 5 14 10 14 40 1 20 -8 34 -10 34 -4z
m464 12 c-5 -5 -12 -12 -16 -18 -4 -6 -8 -2 -8 8 0 9 7 17 17 17 9 0 12 -3 7
-7z m453 1 c-3 -3 -12 -4 -19 -1 -8 3 -5 6 6 6 11 1 17 -2 13 -5z m-717 -8 c0
-2 -7 -7 -16 -10 -8 -3 -12 -2 -9 4 6 10 25 14 25 6z m570 0 c0 -3 -4 -8 -10
-11 -5 -3 -10 -1 -10 4 0 6 5 11 10 11 6 0 10 -2 10 -4z m74 -5 c3 -4 3 -11 0
-14 -8 -8 -34 3 -34 14 0 11 27 12 34 0z m-610 -26 c7 -19 -5 -19 -30 0 -19
14 -19 14 2 15 12 0 24 -7 28 -15z m46 5 c0 -5 -7 -10 -15 -10 -8 0 -15 5 -15
10 0 6 7 10 15 10 8 0 15 -4 15 -10z m160 -11 c0 -5 -7 -9 -15 -9 -15 0 -20
12 -9 23 8 8 24 -1 24 -14z m1841 -13 c-27 -12 -38 -1 -21 19 10 12 16 13 27
3 13 -11 12 -14 -6 -22z m-5171 14 c0 -5 -2 -10 -4 -10 -3 0 -8 5 -11 10 -3 6
-1 10 4 10 6 0 11 -4 11 -10z m3264 -5 c-7 -16 -24 -21 -24 -6 0 8 7 13 27 20
1 1 0 -6 -3 -14z m338 -17 c-28 -11 -49 -8 -24 4 12 6 22 16 22 22 0 6 5 4 10
-4 7 -11 5 -17 -8 -22z m1153 22 c-4 -6 -11 -8 -16 -5 -5 3 -6 0 -3 -8 3 -8
-2 -21 -10 -30 -12 -11 -13 -17 -3 -20 6 -2 9 -8 4 -12 -4 -5 -13 -3 -19 3 -7
7 -26 12 -42 12 l-31 0 40 35 c36 32 95 50 80 25z m-2025 -10 c12 -8 11 -10
-7 -10 -13 0 -23 5 -23 10 0 13 11 13 30 0z m817 -12 c2 -18 0 -20 -7 -8 -12
18 -13 30 -2 30 4 0 9 -10 9 -22z m-1152 2 c18 -7 16 -10 -17 -24 -20 -8 -38
-19 -40 -24 -5 -13 -68 -23 -68 -11 0 6 -4 7 -10 4 -5 -3 -10 -1 -10 5 0 7 6
10 13 7 7 -3 24 1 38 9 13 7 18 13 12 14 -19 0 -16 18 5 23 27 7 55 6 77 -3z
m775 0 c0 -12 -28 -25 -36 -17 -9 9 6 27 22 27 8 0 14 -5 14 -10z m134 -11
c-7 -11 -44 -12 -44 -1 0 15 11 20 30 15 11 -3 17 -9 14 -14z m330 -4 c-4 -8
-10 -15 -15 -15 -5 0 -10 -8 -10 -17 -1 -17 -2 -17 -6 0 -4 14 -8 16 -18 7 -8
-7 -20 -10 -27 -8 -10 4 35 30 79 47 1 1 0 -6 -3 -14z m-427 -10 c0 -8 -4 -15
-9 -15 -10 0 -11 14 -1 23 9 10 10 9 10 -8z m553 5 c0 -5 -5 -10 -11 -10 -5 0
-7 5 -4 10 3 6 8 10 11 10 2 0 4 -4 4 -10z m97 4 c-3 -3 -12 -4 -19 -1 -8 3
-5 6 6 6 11 1 17 -2 13 -5z m1317 0 c21 -8 20 -20 0 -28 -17 -6 -44 9 -44 25
0 10 21 12 44 3z m-5907 -26 c-3 -8 -6 -5 -6 6 -1 11 2 17 5 13 3 -3 4 -12 1
-19z m2153 7 c9 -10 9 -15 1 -15 -6 0 -11 5 -11 10 0 7 -8 6 -22 -1 -21 -11
-22 -11 -9 4 17 21 25 21 41 2z m1280 8 c0 -12 54 -10 62 2 5 6 8 5 8 -3 0 -9
7 -11 21 -7 15 5 19 4 15 -4 -4 -6 -2 -11 3 -11 17 0 13 -26 -6 -41 -15 -12
-16 -12 -10 4 6 17 -3 23 -17 10 -10 -11 -76 -11 -76 -1 0 5 -8 7 -18 4 -10
-4 -26 0 -37 8 -16 11 -17 15 -4 29 14 16 59 23 59 10z m1230 -3 c0 -5 -4 -10
-10 -10 -5 0 -10 5 -10 10 0 6 5 10 10 10 6 0 10 -4 10 -10z m-1456 -25 c9
-13 16 -35 16 -47 -1 -21 -2 -21 -11 -5 -5 9 -7 22 -4 27 4 6 -12 10 -39 10
-44 0 -45 1 -34 20 17 27 52 25 72 -5z m586 11 c0 -3 -4 -8 -10 -11 -5 -3 -10
-1 -10 4 0 6 5 11 10 11 6 0 10 -2 10 -4z m107 -8 c-2 -7 2 -17 10 -23 10 -7
4 -10 -21 -11 -23 0 -33 3 -28 10 4 6 7 14 8 19 1 4 2 9 3 12 0 3 8 5 17 5 9
0 14 -6 11 -12z m658 2 c3 -6 0 -16 -8 -24 -11 -12 -17 -11 -38 5 -20 15 -21
19 -6 19 9 0 17 -4 17 -10 0 -5 5 -10 11 -10 6 0 9 7 5 15 -6 17 9 21 19 5z
m-4587 -29 c-15 -25 -38 -35 -38 -17 0 13 41 47 48 41 2 -2 -2 -12 -10 -24z
m5442 19 c0 -5 -7 -10 -16 -10 -8 0 -12 5 -9 10 3 6 10 10 16 10 5 0 9 -4 9
-10z m-5066 -14 c-10 -8 -21 -12 -24 -10 -5 6 21 24 34 24 6 0 1 -6 -10 -14z
m2931 4 c3 -5 -1 -10 -9 -10 -9 0 -16 5 -16 10 0 6 4 10 9 10 6 0 13 -4 16
-10z m1215 -21 c7 -12 7 -20 -1 -24 -6 -4 -13 2 -16 14 -3 12 -9 21 -14 21 -5
0 -9 4 -9 10 0 15 29 0 40 -21z m-241 0 c-11 -7 -9 -13 9 -31 13 -13 22 -18
21 -13 -4 24 3 35 31 50 36 19 50 20 25 2 -14 -11 -15 -16 -5 -22 10 -6 10 -9
0 -15 -9 -6 -6 -10 9 -15 28 -8 38 0 23 18 -7 8 -9 17 -5 20 13 14 20 6 19
-20 -1 -21 -10 -33 -38 -48 l-37 -20 -29 28 c-15 15 -33 27 -39 27 -5 0 -21 9
-34 21 -28 24 -14 38 32 31 22 -3 27 -7 18 -13z m348 15 c-3 -3 -12 -4 -19 -1
-8 3 -5 6 6 6 11 1 17 -2 13 -5z m-781 -29 c-2 -14 -16 -22 -16 -10 0 3 0 12
0 21 0 8 4 13 9 10 5 -4 8 -13 7 -21z m84 5 c0 -6 -11 -16 -25 -22 -25 -11
-25 -11 -4 -29 14 -12 16 -18 7 -22 -8 -3 -6 -6 5 -6 14 -1 17 -6 11 -23 -15
-49 -64 -60 -64 -15 0 11 -7 29 -17 39 -15 17 -15 18 1 18 10 0 17 7 15 18 -3
33 1 41 24 45 40 8 47 7 47 -3z m-1672 -17 c-5 -25 -28 -28 -28 -4 0 12 6 21
16 21 9 0 14 -7 12 -17z m1276 -12 l28 -30 -35 -6 c-20 -4 -40 -4 -45 -1 -6 3
-12 0 -15 -6 -7 -20 -19 -2 -19 28 0 50 45 58 86 15z m914 11 c2 -7 -3 -12
-12 -12 -9 0 -16 7 -16 16 0 17 22 14 28 -4z m-1348 -2 c0 -5 -5 -10 -11 -10
-5 0 -7 5 -4 10 3 6 8 10 11 10 2 0 4 -4 4 -10z m25 0 c3 -5 1 -10 -4 -10 -6
0 -11 5 -11 10 0 6 2 10 4 10 3 0 8 -4 11 -10z m-2411 -25 c3 -9 0 -15 -9 -15
-9 0 -12 6 -9 15 4 8 7 15 9 15 2 0 5 -7 9 -15z m3816 5 c0 -5 -4 -10 -10 -10
-5 0 -10 5 -10 10 0 6 5 10 10 10 6 0 10 -4 10 -10z m-3760 -10 c0 -5 -5 -10
-11 -10 -5 0 -7 5 -4 10 3 6 8 10 11 10 2 0 4 -4 4 -10z m1200 0 c0 -5 -8 -10
-17 -10 -9 0 -27 -10 -40 -22 -18 -17 -23 -18 -23 -6 0 9 17 23 38 31 46 20
42 19 42 7z m1453 0 c21 0 23 -29 2 -31 -24 -2 -29 -4 -42 -12 -8 -5 -13 -4
-13 2 0 6 -7 11 -15 11 -8 0 -15 -7 -15 -15 0 -12 -13 -14 -76 -8 -65 5 -78 4
-86 -11 -5 -9 -14 -14 -19 -11 -5 4 -6 12 -2 18 5 9 3 9 -8 0 -21 -17 -175
-11 -171 6 1 7 -2 10 -7 7 -5 -3 -13 0 -19 7 -8 9 -3 16 19 26 25 11 33 11 53
-2 29 -19 103 -18 111 1 4 12 8 12 22 1 12 -10 14 -10 9 -1 -4 7 -1 12 9 12 8
0 18 -7 21 -15 4 -10 17 -14 39 -12 23 1 31 6 27 16 -3 8 -1 12 5 8 5 -3 23
-2 39 3 16 5 45 7 64 5 19 -3 43 -5 53 -5z m1060 3 c-7 -2 -21 -2 -30 0 -10 3
-4 5 12 5 17 0 24 -2 18 -5z m-63 -13 c0 -5 -9 -14 -21 -20 -19 -11 -20 -10
-9 9 11 22 30 29 30 11z m170 6 c0 -12 -13 -36 -19 -36 -4 0 -7 9 -8 20 -1 11
4 20 13 20 8 0 14 -2 14 -4z m-4625 -16 c3 -5 2 -10 -4 -10 -5 0 -13 5 -16 10
-3 6 -2 10 4 10 5 0 13 -4 16 -10z m1182 4 c-3 -3 -12 -4 -19 -1 -8 3 -5 6 6
6 11 1 17 -2 13 -5z m-423 -10 c9 -3 16 -13 16 -22 0 -13 3 -12 15 4 15 20 21
9 6 -14 -8 -13 -54 -12 -67 1 -7 6 1 37 10 37 2 0 11 -3 20 -6z m172 -6 c5 -7
0 -9 -14 -6 -20 6 -48 -13 -37 -24 3 -3 -6 -3 -20 -1 -31 6 -32 15 -2 29 30
16 64 16 73 2z m194 -3 c-32 -19 -44 -19 -28 0 7 8 22 14 33 14 18 0 17 -1 -5
-14z m1827 9 c-3 -3 -12 -4 -19 -1 -8 3 -5 6 6 6 11 1 17 -2 13 -5z m653 -3
c0 -12 -20 -25 -27 -18 -7 7 6 27 18 27 5 0 9 -4 9 -9z m940 -12 c-7 -11 -14
-19 -16 -16 -7 7 7 37 17 37 6 0 5 -9 -1 -21z m153 1 c-3 -11 -9 -20 -14 -20
-14 0 -11 28 4 33 6 3 13 6 14 6 0 1 -1 -8 -4 -19z m-1138 -16 c0 -10 4 -25 8
-32 13 -19 -20 -27 -38 -9 -21 21 -19 37 5 37 11 0 20 5 20 11 0 5 -4 7 -10 4
-5 -3 -10 -1 -10 5 0 7 6 10 13 7 6 -2 12 -12 12 -23z m1029 10 c8 -21 8 -24
-3 -24 -5 0 -11 9 -14 20 -6 24 8 27 17 4z m-2048 -9 c18 -13 18 -14 1 -15
-17 0 -17 -1 -3 -16 23 -23 21 -24 -31 -23 -27 0 -42 3 -35 6 8 3 9 9 4 16 -5
7 -12 20 -15 30 -5 14 -1 17 26 17 18 0 42 -7 53 -15z m916 -7 c-7 -7 -12 -8
-12 -2 0 14 12 26 19 19 2 -3 -1 -11 -7 -17z m995 7 c0 -8 -9 -15 -20 -15 -12
0 -17 -5 -14 -14 4 -9 -3 -16 -17 -18 -27 -5 -46 0 -46 14 0 5 9 6 20 3 11 -4
20 -2 20 4 0 6 -5 11 -11 11 -5 0 -7 5 -4 10 4 6 10 8 14 6 4 -3 13 -1 21 5
22 13 37 11 37 -6z m-3404 -15 c-3 -11 -9 -20 -14 -20 -14 0 -11 28 4 33 6 3
13 6 14 6 0 1 -1 -8 -4 -19z m177 10 c0 -5 -4 -10 -10 -10 -5 0 -10 5 -10 10
0 6 5 10 10 10 6 0 10 -4 10 -10z m660 -21 c0 -5 -7 -9 -15 -9 -8 0 -15 7 -15
15 0 9 6 12 15 9 8 -4 15 -10 15 -15z m720 6 c0 -9 -6 -12 -15 -9 -8 4 -15 10
-15 15 0 5 7 9 15 9 8 0 15 -7 15 -15z m696 0 c9 -8 11 -15 5 -15 -5 0 -13 5
-16 10 -9 14 -52 12 -58 -2 -2 -7 -8 -10 -12 -6 -13 13 6 28 36 28 17 0 37 -7
45 -15z m1034 -5 c-8 -5 -17 -7 -19 -4 -3 3 1 9 9 14 8 5 17 7 19 4 3 -3 -1
-9 -9 -14z m390 10 c0 -5 -4 -10 -10 -10 -5 0 -10 5 -10 10 0 6 5 10 10 10 6
0 10 -4 10 -10z m-4561 -3 c-2 -1 -13 -9 -24 -17 -19 -14 -19 -14 -6 3 7 9 18
17 24 17 6 0 8 -1 6 -3z m701 -10 c0 -5 -9 -7 -19 -4 -26 6 -44 -7 -46 -34 -1
-13 -7 -25 -15 -27 -9 -3 -10 0 -4 9 6 12 5 12 -8 1 -10 -8 -14 -20 -11 -29 5
-12 2 -15 -10 -10 -9 3 -19 2 -22 -3 -4 -6 -14 -10 -24 -10 -10 0 -28 -9 -41
-20 -25 -22 -40 -26 -40 -10 0 6 7 10 16 10 8 0 13 4 10 9 -3 5 -15 7 -26 4
-16 -4 -19 -2 -14 13 4 11 11 24 16 31 6 7 7 17 3 22 -3 7 0 8 9 5 9 -3 16
-16 16 -28 0 -11 4 -16 8 -11 4 6 20 21 36 33 16 12 22 22 15 22 -8 0 -1 7 15
15 37 19 46 19 46 -2 0 -16 -2 -16 -10 -3 -9 13 -12 12 -25 -4 -17 -23 -20
-46 -5 -46 6 0 10 4 10 9 0 5 8 12 18 15 11 4 25 17 32 30 9 18 21 24 41 24
16 -1 29 -5 29 -11z m2730 3 c0 -5 -4 -10 -10 -10 -5 0 -10 5 -10 10 0 6 5 10
10 10 6 0 10 -4 10 -10z m-1190 -16 c0 -2 -9 -4 -21 -4 -11 0 -18 4 -14 10 5
8 35 3 35 -6z m-1256 -9 c-7 -17 -20 -20 -29 -6 -3 5 3 12 12 14 10 3 19 5 20
6 1 0 0 -6 -3 -14z m109 -1 c-3 -8 -11 -13 -19 -10 -7 3 -14 0 -16 -6 -2 -6
-13 -9 -23 -7 -16 4 -13 7 15 21 44 22 51 22 43 2z m1837 1 c0 -9 -6 -12 -15
-9 -8 4 -12 10 -9 15 8 14 24 10 24 -6z m296 -1 c-17 -12 -18 -14 -3 -14 11 0
17 -8 17 -21 0 -15 4 -19 15 -15 8 3 22 9 32 13 10 4 14 3 9 -5 -3 -6 -1 -14
5 -18 6 -3 15 0 20 7 5 9 9 10 9 2 0 -6 9 -9 20 -6 11 3 20 12 20 19 0 8 7 14
15 14 17 0 20 -26 4 -35 -6 -4 -8 -13 -5 -21 3 -9 -1 -14 -14 -14 -10 0 -31
-11 -47 -23 -31 -26 -73 -41 -73 -25 0 5 10 18 21 27 l21 17 -26 18 c-25 16
-27 16 -24 0 2 -12 -4 -18 -21 -19 -13 -1 -29 -8 -35 -17 -6 -8 -26 -23 -43
-33 -18 -11 -33 -25 -33 -32 0 -7 -4 -13 -10 -13 -5 0 -10 -7 -10 -15 0 -9 -9
-15 -25 -15 -18 0 -25 5 -25 20 0 11 6 20 13 21 6 0 3 4 -8 9 -14 6 -15 9 -5
10 12 0 11 4 -4 15 -19 14 -19 15 10 17 16 1 39 1 51 1 15 -1 20 3 16 13 -3 8
1 14 11 14 9 0 15 6 14 13 -2 6 3 11 10 10 16 -4 16 14 0 19 -15 5 13 38 31
38 12 0 15 13 5 23 -4 3 -13 0 -21 -8 -18 -18 -36 -20 -30 -2 2 6 9 12 15 12
5 0 13 2 15 5 3 3 23 6 44 7 35 2 37 1 19 -13z m1059 6 c3 -5 1 -10 -4 -10 -6
0 -11 5 -11 10 0 6 2 10 4 10 3 0 8 -4 11 -10z m-3408 -14 c-3 -8 -1 -17 6
-19 9 -3 8 -8 -2 -18 -10 -11 -15 -11 -18 -1 -6 14 -39 16 -48 2 -3 -5 -17
-10 -29 -10 -13 0 -34 -9 -47 -20 l-24 -19 23 -1 c12 0 22 -5 22 -11 0 -5 -5
-7 -11 -4 -5 4 -24 1 -40 -5 -22 -9 -33 -10 -41 -2 -8 8 -4 13 15 18 15 3 24
10 21 16 -3 5 3 12 14 15 11 2 23 15 26 26 4 14 9 18 13 11 10 -15 89 8 86 24
-2 7 6 12 18 12 14 0 19 -5 16 -14z m2191 3 c-2 -6 -7 -10 -11 -10 -4 1 -15 1
-24 2 -15 0 -15 2 2 9 28 12 37 12 33 -1z m372 7 c0 -3 -4 -8 -10 -11 -5 -3
-10 -1 -10 4 0 6 5 11 10 11 6 0 10 -2 10 -4z m460 -6 c0 -5 -4 -10 -10 -10
-5 0 -10 5 -10 10 0 6 5 10 10 10 6 0 10 -4 10 -10z m615 0 c-3 -5 -11 -10
-16 -10 -6 0 -7 5 -4 10 3 6 11 10 16 10 6 0 7 -4 4 -10z m-3815 -10 c0 -5 -4
-10 -10 -10 -5 0 -10 5 -10 10 0 6 5 10 10 10 6 0 10 -4 10 -10z m2420 0 c0
-5 -4 -10 -10 -10 -5 0 -10 5 -10 10 0 6 5 10 10 10 6 0 10 -4 10 -10z m-2696
-14 c-6 -17 -34 -30 -34 -16 0 5 8 14 18 19 22 13 22 13 16 -3z m521 -6 c-3
-5 -12 -10 -18 -10 -7 0 -6 4 3 10 19 12 23 12 15 0z m41 -15 c-3 -22 -11 -27
-51 -30 -25 -3 -35 0 -32 8 3 7 9 11 15 10 6 -2 23 4 39 12 34 18 32 18 29 0z
m59 7 c-53 -42 -60 -46 -33 -19 16 15 31 27 35 27 4 0 3 -3 -2 -8z m3395 -2
c0 -5 -5 -10 -11 -10 -5 0 -7 5 -4 10 3 6 8 10 11 10 2 0 4 -4 4 -10z m119
-24 c-10 -5 -19 -13 -19 -18 0 -11 17 -10 25 2 3 6 12 10 20 10 17 0 8 -40
-11 -47 -7 -2 -11 -10 -8 -17 5 -13 -32 -66 -46 -66 -4 0 -11 18 -15 40 -6 33
-2 48 20 85 21 37 28 43 40 33 11 -11 10 -14 -6 -22z m-4124 4 c-10 -11 -25
-20 -34 -20 -12 0 -9 6 9 20 33 26 48 26 25 0z m215 12 c0 -4 -10 -9 -22 -9
-18 -2 -20 0 -8 7 18 12 30 13 30 2z m-505 -12 c3 -5 -1 -10 -9 -10 -9 0 -16
5 -16 10 0 6 4 10 9 10 6 0 13 -4 16 -10z m1822 4 c-3 -3 -12 -4 -19 -1 -8 3
-5 6 6 6 11 1 17 -2 13 -5z m1771 -29 c0 -14 -5 -25 -10 -25 -6 0 -7 -8 -3
-17 15 -40 14 -55 -5 -60 -11 -3 -22 -14 -25 -24 -9 -27 -27 -24 -24 4 2 12 0
27 -4 33 -4 7 0 15 9 18 9 3 14 13 10 21 -3 8 -1 17 5 20 5 4 7 10 4 15 -3 4
2 11 10 14 8 3 15 9 14 13 -3 16 1 24 10 19 5 -3 9 -17 9 -31z m757 4 c0 -14
-7 -25 -16 -27 -12 -2 -15 4 -11 28 5 36 27 35 27 -1z m-4155 17 c0 -3 -4 -8
-10 -11 -5 -3 -10 -1 -10 4 0 6 5 11 10 11 6 0 10 -2 10 -4z m45 -36 c-4 -7 2
-7 19 -1 19 8 26 6 30 -5 4 -10 2 -13 -7 -8 -6 3 0 -5 15 -20 17 -17 38 -26
58 -26 19 0 30 -5 29 -12 -3 -27 2 -38 16 -38 8 0 15 4 15 8 0 5 17 14 39 20
48 15 48 15 54 -2 4 -11 1 -13 -11 -10 -14 5 -14 4 -3 -4 14 -10 23 -9 66 3
11 3 29 -1 40 -10 19 -16 19 -16 -7 -10 -16 3 -28 1 -28 -4 0 -5 -14 -12 -31
-16 -44 -10 -76 -29 -72 -42 5 -15 -34 -37 -42 -23 -3 5 2 10 12 10 13 0 15 3
5 8 -14 9 -6 42 10 42 5 0 2 7 -6 15 -12 12 -20 13 -35 6 -14 -8 -20 -8 -23 1
-3 9 -10 8 -22 -5 -19 -19 -51 -23 -61 -7 -4 6 -11 8 -16 5 -5 -4 -9 1 -9 9 0
9 -5 16 -11 16 -6 0 -3 7 5 16 22 21 20 27 -4 14 -11 -6 -20 -15 -20 -21 0 -6
-10 -9 -22 -7 -17 2 -23 -2 -23 -17 0 -14 -8 -21 -25 -23 -14 -2 -29 -8 -35
-13 -14 -14 -55 -11 -55 4 0 7 12 20 28 29 15 10 21 18 15 18 -7 0 -13 7 -13
16 0 8 -4 13 -9 10 -5 -4 -7 3 -4 13 3 12 11 17 19 14 8 -3 14 0 14 6 0 6 7
11 15 11 8 0 14 6 13 13 -2 7 10 13 30 15 18 2 30 8 27 13 -4 5 -3 14 1 20 5
8 10 6 16 -5 5 -9 6 -21 3 -26z m3090 30 c3 -5 -1 -10 -9 -10 -9 0 -16 5 -16
10 0 6 4 10 9 10 6 0 13 -4 16 -10z m65 -5 c0 -8 -7 -15 -15 -15 -26 0 -18 20
13 29 1 1 2 -6 2 -14z m688 2 c-7 -7 -24 -17 -38 -23 -23 -10 -26 -9 -28 10
-1 15 1 17 8 7 7 -12 12 -12 32 2 28 19 45 22 26 4z m850 1 c-2 -6 -10 -14
-16 -16 -7 -2 -10 2 -6 12 7 18 28 22 22 4z m-4213 -8 c3 -5 1 -10 -4 -10 -6
0 -11 5 -11 10 0 6 2 10 4 10 3 0 8 -4 11 -10z m735 0 c0 -5 -7 -10 -16 -10
-8 0 -12 5 -9 10 3 6 10 10 16 10 5 0 9 -4 9 -10z m2330 1 c0 -5 -7 -11 -15
-15 -8 -3 -15 -17 -15 -31 0 -15 -4 -24 -10 -20 -5 3 -10 1 -10 -6 0 -7 -3
-10 -6 -6 -3 3 -2 12 2 19 12 19 12 49 0 45 -6 -2 -11 -13 -12 -24 -1 -11 -4
-25 -8 -32 -12 -18 -26 -3 -24 25 3 28 31 49 53 40 8 -3 17 -1 20 4 8 13 25
13 25 1z m1545 -1 c-3 -5 -10 -10 -16 -10 -5 0 -9 5 -9 10 0 6 7 10 16 10 8 0
12 -4 9 -10z m-1115 -10 c18 -12 2 -12 -25 0 -13 6 -15 9 -5 9 8 0 22 -4 30
-9z m-4179 -9 c-8 -5 -11 -16 -7 -26 5 -15 2 -17 -25 -11 -24 4 -35 2 -45 -11
-9 -13 -16 -15 -23 -8 -16 16 14 53 47 58 53 8 68 7 53 -2z m762 -13 c-13 -12
-26 -18 -30 -14 -4 4 1 14 11 22 31 22 43 17 19 -8z m2497 7 c-7 -8 -17 -12
-22 -9 -6 4 -5 10 3 15 22 14 33 10 19 -6z m40 5 c0 -5 -2 -10 -4 -10 -3 0 -8
5 -11 10 -3 6 -1 10 4 10 6 0 11 -4 11 -10z m1895 0 c-3 -5 -10 -10 -16 -10
-5 0 -9 5 -9 10 0 6 7 10 16 10 8 0 12 -4 9 -10z m70 1 c3 -5 1 -12 -5 -16 -5
-3 -10 1 -10 9 0 18 6 21 15 7z m-5392 -15 c4 -9 -2 -17 -14 -21 -15 -5 -17
-10 -9 -24 10 -20 4 -31 -18 -31 -11 0 -12 3 -3 14 6 7 9 21 5 30 -8 22 2 46
20 46 7 0 16 -7 19 -14z m1482 4 c-27 -12 -35 -12 -35 0 0 6 12 10 28 9 24 0
25 -1 7 -9z m165 1 c0 -5 -22 -11 -50 -15 -27 -4 -50 -11 -50 -17 0 -6 4 -7
10 -4 6 4 7 -1 3 -11 -4 -11 -8 -13 -11 -6 -2 7 -15 12 -28 12 -13 0 -24 4
-24 8 0 8 16 14 95 37 22 7 55 5 55 -4z m1838 -14 c2 -10 -3 -17 -13 -17 -9 0
-13 5 -10 10 3 6 -1 10 -9 10 -14 0 -20 -12 -17 -32 0 -4 -11 -15 -25 -24 -18
-13 -22 -19 -12 -25 19 -12 4 -21 -28 -17 l-28 3 27 28 c15 15 35 27 44 27 12
0 13 3 4 14 -10 12 -7 18 16 30 33 18 47 16 51 -7z m46 8 c4 -13 2 -14 -14 -5
-23 13 -26 20 -6 20 8 0 16 -7 20 -15z m-2100 -19 c-7 -17 -24 -22 -24 -6 0 6
-8 11 -17 11 -10 1 -4 4 12 8 36 9 37 8 29 -13z m1746 14 c0 -5 -10 -10 -22
-10 -19 0 -20 2 -8 10 19 13 30 13 30 0z m-2365 -10 c-3 -5 -11 -10 -16 -10
-6 0 -7 5 -4 10 3 6 11 10 16 10 6 0 7 -4 4 -10z m858 -10 c-10 -11 -19 -20
-20 -20 -2 0 -3 9 -3 20 0 13 7 20 20 20 19 0 19 -1 3 -20z m1711 -17 c-10 -7
-23 -13 -28 -12 -6 0 -5 3 2 6 10 4 9 9 -5 20 -17 14 -17 14 4 10 13 -3 26 0
30 6 5 8 8 7 11 -3 3 -7 -3 -19 -14 -27z m-2414 17 c0 -5 -5 -10 -11 -10 -5 0
-7 5 -4 10 3 6 8 10 11 10 2 0 4 -4 4 -10z m2348 -8 l22 -19 -28 -14 c-15 -7
-30 -15 -33 -17 -13 -6 -19 30 -9 49 13 24 21 24 48 1z m312 8 c0 -5 -4 -10
-10 -10 -5 0 -10 5 -10 10 0 6 5 10 10 10 6 0 10 -4 10 -10z m300 -4 c0 -14
-29 -30 -38 -21 -3 3 0 5 6 5 7 0 12 7 12 15 0 8 5 15 10 15 6 0 10 -6 10 -14z
m61 4 c5 0 0 -9 -11 -20 -11 -11 -25 -20 -32 -20 -6 0 -3 7 8 15 17 13 17 16
4 26 -13 9 -12 10 3 5 10 -3 23 -6 28 -6z m-2511 -10 c-20 -13 -33 -13 -25 0
3 6 14 10 23 10 15 0 15 -2 2 -10z m150 -12 c0 -13 -23 -5 -28 10 -2 7 2 10
12 6 9 -3 16 -11 16 -16z m3330 12 c0 -5 -4 -10 -10 -10 -5 0 -10 5 -10 10 0
6 5 10 10 10 6 0 10 -4 10 -10z m-5000 -10 c0 -5 -7 -10 -15 -10 -8 0 -15 5
-15 10 0 6 7 10 15 10 8 0 15 -4 15 -10z m3535 0 c-11 -17 5 -32 21 -19 9 7
14 8 14 1 0 -19 -38 -23 -67 -8 -20 11 -23 15 -10 16 9 0 17 5 17 10 0 6 7 10
16 10 8 0 12 -4 9 -10z m595 -3 c0 -8 -17 -22 -37 -32 -21 -10 -46 -22 -55
-26 -26 -13 -38 -11 -38 5 0 9 -7 12 -20 9 -12 -3 -20 0 -20 7 0 8 9 11 25 8
14 -3 30 1 36 8 13 16 39 19 39 4 0 -5 5 -10 11 -10 6 0 8 7 5 16 -4 12 -1 14
14 9 11 -4 20 -2 20 4 0 6 5 11 10 11 6 0 10 -6 10 -13z m-2570 -7 c0 -5 -2
-10 -4 -10 -3 0 -8 5 -11 10 -3 6 -1 10 4 10 6 0 11 -4 11 -10z m2917 4 c-3
-3 -12 -4 -19 -1 -8 3 -5 6 6 6 11 1 17 -2 13 -5z m1023 -8 c0 -3 -4 -8 -10
-11 -5 -3 -10 -1 -10 4 0 6 5 11 10 11 6 0 10 -2 10 -4z m-5275 -15 c3 -5 1
-12 -5 -16 -5 -3 -10 1 -10 9 0 18 6 21 15 7z m585 -21 c0 -3 -4 -11 -9 -19
-12 -19 -28 -6 -28 23 0 22 2 23 18 13 11 -7 19 -14 19 -17z m490 20 c0 -5 -5
-10 -11 -10 -5 0 -7 5 -4 10 3 6 8 10 11 10 2 0 4 -4 4 -10z m2090 0 c0 -5 -4
-10 -9 -10 -6 0 -13 5 -16 10 -3 6 1 10 9 10 9 0 16 -4 16 -10z m252 -14 c13
-19 9 -26 -16 -26 -22 0 -42 31 -29 44 7 7 36 -5 45 -18z m809 10 c-1 -16 -28
-15 -28 1 0 7 7 13 14 11 8 -2 14 -7 14 -12z m-941 -26 c0 -11 -7 -20 -15 -20
-18 0 -19 6 -2 25 16 19 17 18 17 -5z m595 -26 c-3 -29 -21 -51 -32 -39 -5 4
-2 10 5 12 6 3 12 18 12 34 0 17 4 28 9 25 5 -4 8 -18 6 -32z m1044 26 c-6 -5
-18 -6 -26 -3 -19 8 -16 11 13 11 17 0 22 -3 13 -8z m-5152 -6 c-3 -3 -12 -4
-19 -1 -8 3 -5 6 6 6 11 1 17 -2 13 -5z m1591 -6 c-4 -17 -20 -28 -31 -21 -9
5 11 33 24 33 5 0 8 -6 7 -12z m1782 2 c0 -5 -7 -10 -15 -10 -8 0 -15 5 -15
10 0 6 7 10 15 10 8 0 15 -4 15 -10z m200 -10 c0 -21 -15 -27 -25 -10 -3 6 -1
10 5 10 6 0 8 5 5 10 -3 6 -1 10 4 10 6 0 11 -9 11 -20z m890 16 c0 -1 -5 -17
-11 -35 -8 -22 -17 -31 -32 -31 -20 1 -21 2 -4 14 9 7 17 23 17 35 0 12 6 21
15 21 8 0 15 -2 15 -4z m1040 0 c0 -3 -4 -8 -10 -11 -5 -3 -10 -1 -10 4 0 6 5
11 10 11 6 0 10 -2 10 -4z m-4003 -12 c-3 -3 -12 -4 -19 -1 -8 3 -5 6 6 6 11
1 17 -2 13 -5z m1763 2 c0 -3 -4 -8 -10 -11 -5 -3 -10 -1 -10 4 0 6 5 11 10
11 6 0 10 -2 10 -4z m150 -5 c0 -5 -7 -11 -15 -15 -15 -5 -20 5 -8 17 9 10 23
9 23 -2z m50 -16 c0 -18 -5 -25 -20 -25 -14 0 -20 7 -20 21 0 15 5 19 16 15 8
-3 12 -2 9 4 -3 6 -1 10 4 10 6 0 11 -11 11 -25z m-3254 -2 c-3 -17 -26 -32
-26 -16 0 8 20 33 26 33 1 0 1 -8 0 -17z m201 11 c-3 -3 -12 -4 -19 -1 -8 3
-5 6 6 6 11 1 17 -2 13 -5z m3261 -6 c-3 -7 -15 -14 -29 -16 -24 -4 -24 -3 -4
12 24 19 38 20 33 4z m368 0 c4 -6 2 -14 -4 -16 -7 -2 -12 -10 -12 -18 0 -8
-4 -14 -10 -14 -5 0 -10 14 -10 30 0 31 22 42 36 18z m-523 -18 c16 -19 16
-20 -11 -21 l-27 -1 28 -11 c33 -13 34 -21 6 -50 -14 -14 -23 -18 -26 -10 -6
16 -33 5 -33 -14 0 -12 -2 -12 -16 1 -17 17 -28 21 -20 7 3 -5 -2 -12 -11 -16
-10 -3 -19 -1 -21 4 -2 6 -13 11 -25 10 -21 0 -21 -1 -2 -10 16 -7 14 -9 -12
-6 -18 2 -33 1 -33 -3 0 -10 -39 -9 -45 1 -4 5 1 9 9 9 8 0 22 7 31 16 13 14
14 19 3 26 -9 6 -5 7 11 3 16 -5 21 -4 17 4 -9 14 26 2 37 -13 4 -7 9 -2 13
11 4 15 17 24 39 29 20 3 37 15 45 30 16 29 21 30 43 4z m-3215 -15 c0 -16 -6
-25 -17 -26 -10 0 -12 -2 -3 -6 6 -2 10 -9 6 -14 -8 -14 -40 -10 -55 7 -21 26
6 54 62 63 4 1 7 -10 7 -24z m1167 7 c11 -6 16 -12 10 -13 -5 -1 -19 -3 -30
-4 -58 -9 -149 -65 -132 -81 4 -4 13 -2 19 4 21 21 40 14 21 -8 -10 -11 -30
-20 -45 -20 -28 0 -37 13 -18 25 6 4 8 11 5 16 -9 13 36 56 68 63 15 3 27 11
27 17 0 6 -6 9 -13 6 -8 -3 -20 -1 -28 4 -21 13 93 5 116 -9z m270 -7 c0 -11
-8 -21 -19 -23 -15 -3 -17 0 -12 14 4 10 1 21 -6 26 -9 6 -5 8 12 6 17 -2 25
-9 25 -23z m1541 13 c-10 -6 -22 -6 -26 -2 -5 5 3 10 18 11 22 1 24 0 8 -9z
m89 2 c-3 -5 -12 -10 -18 -10 -7 0 -6 4 3 10 19 12 23 12 15 0z m342 -5 c8 -9
13 -19 9 -22 -3 -3 -1 -12 4 -18 8 -10 3 -16 -19 -23 -35 -12 -46 -6 -25 15 8
8 11 19 8 25 -4 7 -2 8 4 4 16 -9 15 7 0 22 -7 7 -9 12 -4 12 4 0 14 -7 23
-15z m143 0 c7 -9 8 -15 2 -15 -5 0 -12 7 -16 15 -3 8 -4 15 -2 15 2 0 9 -7
16 -15z m-843 -10 c-5 -16 -37 -18 -37 -3 0 8 9 14 20 14 11 0 19 -5 17 -11z
m818 5 c3 -5 1 -10 -4 -10 -6 0 -11 5 -11 10 0 6 2 10 4 10 3 0 8 -4 11 -10z
m1359 -11 c-8 -14 -34 -10 -34 5 0 9 7 12 20 9 11 -3 17 -9 14 -14z m-5049 1
c-3 -5 -10 -10 -16 -10 -5 0 -9 5 -9 10 0 6 7 10 16 10 8 0 12 -4 9 -10z
m1550 -2 c4 -3 -12 -8 -35 -10 -32 -3 -38 -1 -26 8 16 11 51 12 61 2z m1975
-8 c0 -4 -9 -6 -21 -3 -15 4 -17 8 -8 14 14 8 29 3 29 -11z m368 -6 c4 17 27
22 36 8 7 -12 -5 -27 -34 -42 -23 -13 -24 -14 -5 -21 16 -6 16 -8 4 -8 -9 -1
-19 -8 -23 -16 -9 -24 -26 -17 -26 10 0 14 5 25 10 25 6 0 10 4 10 10 0 5 -7
7 -15 4 -9 -4 -15 0 -15 9 0 8 6 18 13 20 6 3 1 6 -13 6 -19 1 -22 3 -11 10
10 7 23 3 40 -11 23 -17 26 -18 29 -4z m929 7 c10 -15 9 -20 -2 -25 -9 -3 -12
0 -8 10 3 8 -1 14 -11 14 -9 0 -16 5 -16 10 0 17 25 11 37 -9z m-3691 -18 c-4
-28 -14 -31 -53 -18 -18 6 -16 25 2 25 8 0 15 5 15 10 0 6 9 10 19 10 15 0 19
-6 17 -27z m324 6 c0 -14 -17 -10 -23 5 -4 10 -1 13 9 9 7 -3 14 -9 14 -14z
m3530 7 c0 -3 -4 -8 -10 -11 -5 -3 -10 -1 -10 4 0 6 5 11 10 11 6 0 10 -2 10
-4z m-4990 -16 c0 -5 -7 -10 -15 -10 -8 0 -15 5 -15 10 0 6 7 10 15 10 8 0 15
-4 15 -10z m3707 4 c-3 -3 -12 -4 -19 -1 -8 3 -5 6 6 6 11 1 17 -2 13 -5z
m1078 -4 c3 -6 -4 -10 -17 -10 -18 0 -20 2 -8 10 19 12 18 12 25 0z m155 0 c0
-5 -7 -10 -16 -10 -8 0 -12 5 -9 10 3 6 10 10 16 10 5 0 9 -4 9 -10z m-3654
-29 c0 -11 -5 -17 -13 -14 -14 6 -17 16 -6 26 11 12 19 7 19 -12z m3800 -19
c-4 -3 -11 0 -16 8 -15 24 -11 33 6 15 9 -9 13 -19 10 -23z m361 16 c-3 -8 -6
-5 -6 6 -1 11 2 17 5 13 3 -3 4 -12 1 -19z m-603 -3 c-4 -8 -9 -15 -13 -15 -4
0 -8 7 -8 15 0 8 6 15 13 15 8 0 11 -6 8 -15z m94 -2 c-2 -10 -13 -19 -26 -21
-25 -4 -28 2 -9 23 17 20 39 18 35 -2z m-3783 -3 c3 -5 1 -10 -4 -10 -6 0 -11
5 -11 10 0 6 2 10 4 10 3 0 8 -4 11 -10z m3145 0 c0 -5 -4 -10 -10 -10 -5 0
-10 5 -10 10 0 6 5 10 10 10 6 0 10 -4 10 -10z m-330 -10 c0 -5 -5 -10 -11
-10 -5 0 -7 5 -4 10 3 6 8 10 11 10 2 0 4 -4 4 -10z m300 -10 c0 -5 -4 -10
-10 -10 -5 0 -10 5 -10 10 0 6 5 10 10 10 6 0 10 -4 10 -10z m125 1 c3 -5 1
-12 -5 -16 -5 -3 -10 1 -10 9 0 18 6 21 15 7z m942 3 c-3 -3 -12 -4 -19 -1 -8
3 -5 6 6 6 11 1 17 -2 13 -5z m146 -1 c-7 -2 -21 -2 -30 0 -10 3 -4 5 12 5 17
0 24 -2 18 -5z m-3789 -18 c-4 -8 -17 -15 -31 -15 -13 0 -22 4 -18 10 3 5 12
7 19 4 8 -3 17 -1 21 5 9 16 15 13 9 -4z m271 6 c11 -18 -33 -33 -55 -19 -11
7 -20 16 -20 20 0 11 68 10 75 -1z m2389 -12 c-8 -14 -34 -10 -34 5 0 9 7 12
20 9 11 -3 17 -9 14 -14z m487 -12 c-8 -8 -11 -7 -11 4 0 20 13 34 18 19 3 -7
-1 -17 -7 -23z m241 21 c-9 -9 -15 -9 -24 0 -9 9 -7 12 12 12 19 0 21 -3 12
-12z m-4313 -1 c-2 -1 -11 -8 -20 -15 -13 -9 -16 -9 -16 3 0 8 9 15 20 15 11
0 18 -1 16 -3z m4651 -21 c0 -27 -15 -42 -25 -26 -8 13 3 50 16 50 5 0 9 -11
9 -24z m-1447 2 c2 -7 -6 -22 -18 -33 -12 -12 -21 -30 -20 -42 1 -16 -5 -23
-24 -26 -34 -7 -37 -2 -22 27 8 13 10 29 7 35 -9 14 29 51 53 51 11 0 21 -6
24 -12z m817 2 c0 -5 -2 -10 -4 -10 -3 0 -8 5 -11 10 -3 6 -1 10 4 10 6 0 11
-4 11 -10z m-3620 -10 c0 -5 -4 -10 -10 -10 -5 0 -10 5 -10 10 0 6 5 10 10 10
6 0 10 -4 10 -10z m840 0 c0 -5 -2 -10 -4 -10 -3 0 -8 5 -11 10 -3 6 -1 10 4
10 6 0 11 -4 11 -10z m1184 -9 c18 -20 9 -35 -13 -21 -8 4 -10 13 -6 21 6 9 3
11 -9 6 -45 -18 -63 -18 -63 -3 0 24 69 21 91 -3z m241 -1 c3 -5 1 -10 -4 -10
-6 0 -11 5 -11 10 0 6 2 10 4 10 3 0 8 -4 11 -10z m170 4 c-17 -7 -5 -84 12
-84 11 0 7 -6 -10 -20 -14 -11 -30 -20 -35 -20 -13 0 -9 38 6 67 10 17 9 25
-3 37 -21 21 -19 26 13 25 15 0 22 -3 17 -5z m275 -4 c0 -5 -4 -10 -10 -10 -5
0 -10 5 -10 10 0 6 5 10 10 10 6 0 10 -4 10 -10z m420 0 c0 -5 -7 -10 -16 -10
-8 0 -12 5 -9 10 3 6 10 10 16 10 5 0 9 -4 9 -10z m250 -11 c0 -6 -4 -7 -10
-4 -5 3 -10 11 -10 16 0 6 5 7 10 4 6 -3 10 -11 10 -16z m80 11 c0 -5 -7 -10
-15 -10 -8 0 -15 5 -15 10 0 6 7 10 15 10 8 0 15 -4 15 -10z m233 -35 c-20
-41 -31 -45 -29 -10 0 15 6 23 13 21 6 -3 14 2 17 10 3 8 8 14 11 14 2 0 -3
-16 -12 -35z m-1553 15 c0 -5 -5 -10 -11 -10 -5 0 -7 5 -4 10 3 6 8 10 11 10
2 0 4 -4 4 -10z m160 -10 c0 -5 -2 -10 -4 -10 -3 0 -8 5 -11 10 -3 6 -1 10 4
10 6 0 11 -4 11 -10z m1670 0 c0 -5 -4 -10 -10 -10 -5 0 -10 5 -10 10 0 6 5
10 10 10 6 0 10 -4 10 -10z m70 6 c0 -3 -4 -8 -10 -11 -5 -3 -10 -1 -10 4 0 6
5 11 10 11 6 0 10 -2 10 -4z m-1060 -10 c0 -11 -19 -15 -25 -6 -3 5 1 10 9 10
9 0 16 -2 16 -4z m365 -14 c-3 -3 -11 0 -18 7 -9 10 -8 11 6 5 10 -3 15 -9 12
-12z m-1105 -7 c11 -13 8 -15 -15 -15 -23 0 -26 2 -15 15 7 8 14 15 15 15 1 0
8 -7 15 -15z m290 0 c0 -8 -6 -15 -14 -15 -17 0 -28 14 -19 24 12 12 33 6 33
-9z m1025 5 c3 -5 1 -10 -4 -10 -6 0 -11 5 -11 10 0 6 2 10 4 10 3 0 8 -4 11
-10z m350 0 c3 -5 1 -10 -4 -10 -6 0 -11 5 -11 10 0 6 2 10 4 10 3 0 8 -4 11
-10z m271 -10 c0 -13 -7 -20 -18 -20 -11 0 -18 7 -18 20 0 13 7 20 18 20 11 0
18 -7 18 -20z m59 1 c-3 -6 -11 -11 -16 -11 -5 0 -4 6 3 14 14 16 24 13 13 -3z
m-1859 -3 c4 -6 3 -8 -3 -5 -6 4 -13 0 -17 -8 -3 -8 -13 -15 -23 -14 -14 0
-15 2 -3 6 8 3 19 12 23 19 10 17 14 17 23 2z m1034 2 c0 -5 -4 -10 -10 -10
-5 0 -10 5 -10 10 0 6 5 10 10 10 6 0 10 -4 10 -10z m590 0 c0 -5 -5 -10 -11
-10 -5 0 -7 5 -4 10 3 6 8 10 11 10 2 0 4 -4 4 -10z m-1090 -5 c0 -2 -9 -9
-20 -15 -12 -6 -20 -7 -20 -1 0 5 8 12 18 14 9 3 18 5 20 6 1 0 2 -1 2 -4z
m-760 -15 c0 -5 11 -10 23 -10 38 0 40 -12 5 -42 -18 -15 -35 -23 -36 -18 -3
8 -8 7 -17 0 -13 -11 -45 -4 -45 11 0 5 -11 9 -25 9 -14 0 -25 5 -25 10 0 6 8
10 18 10 14 0 15 2 2 10 -12 8 -10 10 10 10 14 0 32 5 40 10 20 13 50 13 50 0z
m158 -15 c3 -11 0 -15 -7 -10 -6 3 -9 10 -6 15 3 4 0 11 -5 13 -6 3 -5 4 2 3
7 -1 15 -11 16 -21z m212 11 c0 -3 -4 -8 -10 -11 -5 -3 -10 -1 -10 4 0 6 5 11
10 11 6 0 10 -2 10 -4z m536 -12 c-9 -8 -16 -19 -16 -24 0 -11 -39 -20 -45
-10 -10 16 7 39 33 43 15 2 31 5 35 6 5 0 1 -6 -7 -15z m-548 -31 c16 -16 16
-16 -1 -10 -22 8 -38 -6 -58 -51 -8 -19 -19 -30 -27 -27 -7 3 -10 0 -7 -5 3
-6 1 -10 -4 -10 -6 0 -11 6 -12 13 0 6 -5 2 -11 -10 -14 -30 -26 -29 -38 2 -5
14 -15 25 -22 25 -9 0 -9 3 -2 8 6 4 13 15 17 25 5 13 13 16 32 11 18 -4 27
-2 31 11 5 12 9 13 14 4 6 -8 11 -5 19 10 14 25 46 27 69 4z m191 -4 c-26 -20
-54 -26 -44 -9 3 6 14 10 23 10 13 0 14 2 3 9 -9 6 -5 9 15 9 l27 0 -24 -19z
m-2019 1 c0 -5 -4 -10 -10 -10 -5 0 -10 5 -10 10 0 6 5 10 10 10 6 0 10 -4 10
-10z m3140 0 c0 -5 -4 -10 -10 -10 -5 0 -10 5 -10 10 0 6 5 10 10 10 6 0 10
-4 10 -10z m330 3 c-26 -11 -46 -36 -32 -41 19 -6 3 -22 -23 -22 -23 0 -23 1
-10 27 16 31 33 43 60 42 14 0 16 -2 5 -6z m-3402 -19 c4 -6 20 -14 36 -18 39
-10 22 -22 -41 -29 -43 -5 -51 -3 -46 9 3 7 10 14 16 14 6 0 7 3 4 6 -4 4 -13
1 -22 -6 -16 -13 -20 -4 -9 24 6 17 51 17 62 0z m2812 -4 c0 -5 -5 -10 -11
-10 -5 0 -7 5 -4 10 3 6 8 10 11 10 2 0 4 -4 4 -10z m-940 -10 c0 -5 -4 -10
-10 -10 -5 0 -10 5 -10 10 0 6 5 10 10 10 6 0 10 -4 10 -10z m79 -11 c-16 -10
-23 -4 -14 10 3 6 11 8 17 5 6 -4 5 -9 -3 -15z m316 10 c11 -17 -1 -21 -15 -4
-8 9 -8 15 -2 15 6 0 14 -5 17 -11z m-2508 -5 c-3 -3 -12 -4 -19 -1 -8 3 -5 6
6 6 11 1 17 -2 13 -5z m1483 -6 c0 -8 17 -14 42 -16 23 -1 45 -8 49 -14 4 -6
12 -7 19 -3 8 5 11 4 6 -3 -3 -6 2 -15 11 -21 28 -17 -3 -31 -39 -19 -16 6
-32 8 -35 5 -3 -3 8 -9 23 -13 16 -4 34 -14 41 -23 8 -11 12 -12 13 -3 0 20
20 14 20 -6 0 -10 -11 -25 -25 -32 -14 -7 -25 -19 -25 -26 0 -7 -13 -15 -30
-19 -25 -5 -29 -11 -28 -33 3 -36 53 -85 79 -77 23 8 38 -20 20 -38 -6 -6 -11
-18 -11 -27 0 -17 -31 -24 -40 -9 -3 4 -23 9 -45 10 -37 4 -40 2 -40 -21 -1
-14 3 -28 8 -31 5 -3 2 -9 -7 -12 -9 -4 -16 -2 -16 3 0 5 -7 7 -15 4 -12 -5
-14 2 -8 41 5 39 3 47 -8 43 -9 -3 -13 -17 -11 -37 1 -22 -3 -34 -15 -38 -43
-17 -92 -103 -69 -122 9 -7 16 -5 26 9 8 11 21 20 30 21 10 0 11 2 3 6 -18 7
-16 23 2 23 8 0 15 -6 15 -14 0 -8 14 -23 30 -33 17 -9 30 -22 30 -28 0 -12
-36 -45 -50 -45 -22 0 -19 -21 6 -30 19 -8 25 -15 21 -30 -6 -23 3 -26 21 -8
9 9 12 8 13 -5 3 -33 4 -38 15 -45 6 -4 13 -15 17 -24 5 -14 1 -18 -14 -18
-11 0 -17 4 -14 10 3 5 -4 15 -17 20 -28 13 -125 -19 -120 -40 2 -7 -9 -25
-23 -40 l-25 -27 20 -18 c14 -13 33 -18 57 -17 39 3 83 -20 83 -44 0 -9 -5
-12 -11 -8 -6 3 -15 1 -19 -6 -6 -10 -15 -10 -38 -2 -20 7 -32 7 -34 1 -2 -6
-14 -1 -28 11 -13 12 -32 19 -42 17 -11 -3 -18 0 -18 9 0 8 5 14 10 14 6 0 10
5 10 10 0 6 -6 10 -12 9 -7 -1 -20 -1 -28 0 -13 1 -13 2 0 11 13 8 12 10 -2
10 -10 0 -18 -3 -18 -7 0 -9 -49 -33 -67 -33 -7 0 -13 4 -13 10 0 5 5 9 10 7
6 -1 20 14 32 33 l22 35 -32 -29 c-22 -20 -36 -26 -49 -21 -13 5 -15 9 -4 12
11 5 11 7 0 14 -11 6 -11 11 -1 21 9 9 12 9 13 -3 0 -7 4 -4 9 9 5 12 17 22
27 22 15 0 16 2 3 10 -13 8 -13 10 2 10 9 0 19 4 22 9 4 5 -3 7 -15 4 -11 -3
-23 -11 -25 -17 -3 -7 -19 -12 -37 -13 l-32 -2 27 10 c15 6 30 19 33 30 4 10
15 19 25 19 10 0 22 5 26 11 5 8 8 8 14 0 8 -15 40 -3 40 14 0 17 -59 17 -79
2 -17 -14 -41 -18 -41 -6 0 5 9 14 19 21 10 6 17 19 14 27 -3 12 -2 12 7 -1
11 -18 41 -25 39 -10 -4 23 4 32 26 32 18 0 25 -5 25 -20 0 -11 7 -20 15 -20
8 0 15 7 15 16 0 8 5 12 10 9 6 -3 10 0 10 8 0 7 11 24 25 37 14 13 25 27 25
31 0 5 -11 -3 -25 -16 -13 -14 -31 -25 -40 -25 -18 0 -21 40 -3 58 8 8 2 10
-28 5 -36 -6 -92 -33 -67 -33 16 0 24 -28 11 -36 -6 -4 -8 -3 -5 3 8 12 -75
26 -99 16 -15 -5 -13 -8 7 -15 l24 -9 -25 -20 c-20 -17 -26 -18 -35 -6 -5 7
-17 12 -25 10 -12 -4 -12 -2 1 9 13 11 14 15 3 26 -10 9 -11 19 -2 44 14 39
33 60 71 76 25 11 34 39 29 83 -1 4 10 10 23 13 14 4 25 11 25 16 0 6 7 10 15
10 8 0 15 7 15 15 0 8 7 15 16 15 11 0 14 5 10 16 -3 8 0 25 6 37 7 12 11 25
10 30 -1 4 3 7 8 7 6 0 10 5 10 12 0 13 49 88 64 99 5 4 6 11 2 17 -3 6 2 13
13 17 11 3 24 19 29 34 9 25 7 30 -11 40 -20 10 -19 11 10 7 18 -3 35 -1 38 4
9 14 25 12 25 -2z m-1102 -61 c-1 -33 -8 -49 -35 -75 -18 -19 -33 -35 -33 -36
0 -2 10 -2 22 -2 14 1 23 -5 23 -14 0 -9 11 -15 29 -17 38 -3 44 -10 20 -27
-10 -8 -20 -10 -22 -5 -2 5 -16 9 -30 9 -19 0 -23 3 -13 9 17 11 -1 23 -22 15
-10 -3 -18 2 -22 16 -7 22 -17 23 -65 8 -8 -3 -12 -3 -7 -1 15 9 7 21 -11 16
-14 -3 -20 4 -28 34 -7 31 -14 39 -39 43 -22 4 -30 11 -31 28 -1 15 4 22 18
22 15 0 18 -5 13 -20 -3 -11 -2 -20 4 -20 5 0 17 -3 27 -7 13 -5 16 -3 11 10
-4 11 -1 17 8 17 8 0 15 4 15 9 0 5 28 8 63 7 34 -1 54 0 45 2 -29 6 -20 20
15 24 45 5 47 2 45 -45z m49 47 c-3 -3 -12 -4 -19 -1 -8 3 -5 6 6 6 11 1 17
-2 13 -5z m1823 2 c0 -2 -11 -6 -25 -8 -14 -3 -25 -1 -25 3 0 5 11 9 25 9 14
0 25 -2 25 -4z m205 -20 c24 -24 24 -25 5 -31 -11 -4 -20 -13 -20 -21 0 -8
-10 -14 -22 -14 -19 0 -20 2 -6 18 22 25 28 48 15 61 -6 6 -8 11 -4 11 5 0 19
-11 32 -24z m215 -7 c0 -12 -37 -12 -44 0 -7 11 14 20 32 13 6 -2 12 -8 12
-13z m-2240 -5 c0 -2 -9 -4 -20 -4 -11 0 -20 4 -20 9 0 5 9 7 20 4 11 -3 20
-7 20 -9z m1326 7 c5 -5 18 -11 29 -14 11 -3 1 -4 -22 -4 -27 1 -43 7 -43 15
0 14 22 16 36 3z m1302 -41 c-16 -9 -25 -19 -21 -23 4 -4 -3 -10 -15 -14 -12
-3 -22 -12 -22 -19 0 -8 -9 -14 -20 -14 -25 0 -25 5 0 28 20 18 19 59 -1 46
-5 -3 -9 0 -9 6 0 7 8 9 20 5 12 -4 20 -2 20 5 0 7 6 10 14 7 8 -3 17 1 20 10
6 14 9 14 25 -3 18 -18 17 -19 -11 -34z m462 30 c0 -10 -8 -24 -17 -29 -10 -6
-12 -11 -5 -11 20 0 14 -20 -7 -20 -14 0 -19 7 -17 25 0 14 4 25 9 25 4 0 7 7
7 15 0 8 7 15 15 15 8 0 15 -9 15 -20z m70 -10 c0 -12 -7 -20 -17 -20 -15 0
-16 2 -3 10 13 9 13 10 0 10 -13 0 -13 1 0 10 20 13 20 13 20 -10z m-730 -5
c0 -2 -7 -5 -15 -9 -9 -3 -15 0 -15 9 0 9 6 12 15 9 8 -4 15 -7 15 -9z m-1060
-15 c0 -5 -4 -10 -10 -10 -5 0 -10 5 -10 10 0 6 5 10 10 10 6 0 10 -4 10 -10z
m1341 -33 c-8 -8 -11 -7 -11 4 0 20 13 34 18 19 3 -7 -1 -17 -7 -23z m-1401 7
c0 -2 -7 -4 -15 -4 -8 0 -15 4 -15 10 0 5 7 7 15 4 8 -4 15 -8 15 -10z m128
-2 c2 -7 -2 -10 -12 -6 -9 3 -16 11 -16 16 0 13 23 5 28 -10z m780 6 c-3 -7
-15 -14 -29 -15 -14 -1 -17 0 -6 3 9 3 17 10 17 15 0 5 5 9 11 9 6 0 9 -6 7
-12z m-868 -19 c9 -15 8 -24 -1 -35 -7 -8 -8 -14 -3 -13 5 1 21 1 37 0 32 -1
37 -21 4 -21 -12 0 -31 -10 -41 -21 -15 -18 -20 -19 -27 -8 -5 8 -25 14 -50
14 -23 0 -44 5 -46 12 -3 7 3 9 16 6 12 -3 21 -1 21 6 0 6 -6 11 -12 12 -10 0
-10 2 -1 6 7 2 20 -3 29 -11 8 -9 22 -16 30 -16 22 0 17 31 -6 37 -11 3 -20 9
-20 14 0 5 -11 4 -25 -1 -16 -6 -25 -6 -25 0 0 9 9 11 62 14 10 1 23 7 30 14
16 16 15 16 28 -9z m717 -13 c-21 -6 -35 -15 -31 -19 4 -4 2 -7 -4 -7 -7 0
-12 2 -12 4 0 2 -3 11 -6 20 -5 13 2 16 42 15 l49 -1 -38 -12z m357 -6 c5 -5
-1 -18 -13 -31 -24 -26 -71 -35 -71 -13 0 8 5 14 11 14 5 0 7 5 4 10 -3 6 1
10 9 10 8 0 17 4 20 9 4 5 -4 7 -16 3 -15 -4 -19 -2 -13 7 7 13 52 7 69 -9z
m71 10 c3 -5 -3 -10 -15 -10 -12 0 -18 5 -15 10 3 6 10 10 15 10 5 0 12 -4 15
-10z m553 -7 c-3 -18 -22 -43 -32 -43 -3 0 0 14 5 30 12 32 32 42 27 13z
m-1038 -19 c0 -8 -7 -14 -15 -14 -8 0 -15 -4 -15 -10 0 -5 -4 -10 -10 -10 -10
0 -14 43 -4 52 10 10 44 -4 44 -18z m876 -1 c-2 -16 -5 -30 -6 -33 -1 -3 -3
-11 -4 -19 0 -8 -6 -16 -13 -18 -14 -5 -6 64 10 85 15 19 18 15 13 -15z
m-3942 -12 c-22 -21 -27 -21 -18 3 3 9 13 16 22 16 13 0 12 -3 -4 -19z m676
-2 c0 -10 -40 -19 -56 -12 -25 9 -15 19 21 19 19 0 35 -3 35 -7z m90 2 c0 -5
15 -13 33 -17 17 -4 26 -9 20 -11 -7 -3 -13 -16 -13 -29 0 -24 -14 -32 -25
-14 -3 6 -15 10 -25 10 -23 0 -29 17 -16 47 11 23 26 31 26 14z m2050 -1 c8
-5 12 -12 9 -15 -8 -8 -39 5 -39 16 0 11 11 11 30 -1z m714 -5 c-7 -17 -20
-20 -29 -6 -3 5 3 12 12 14 10 3 19 5 20 6 1 0 0 -6 -3 -14z m-3564 -15 c0 -5
-4 -10 -10 -10 -5 0 -10 5 -10 10 0 6 5 10 10 10 6 0 10 -4 10 -10z m-61 -3
c-2 -1 -11 -8 -20 -15 -13 -9 -16 -9 -16 3 0 8 9 15 20 15 11 0 18 -1 16 -3z
m2641 -23 c0 -8 -4 -12 -10 -9 -5 3 -10 10 -10 16 0 5 5 9 10 9 6 0 10 -7 10
-16z m270 7 c0 -12 -20 -25 -27 -18 -7 7 6 27 18 27 5 0 9 -4 9 -9z m346 0
c-10 -16 -45 -19 -50 -5 -4 10 3 14 25 14 17 0 28 -4 25 -9z m924 -1 c0 -5 -5
-10 -11 -10 -5 0 -7 5 -4 10 3 6 8 10 11 10 2 0 4 -4 4 -10z m-3370 -10 c0 -5
-5 -10 -11 -10 -5 0 -7 5 -4 10 3 6 8 10 11 10 2 0 4 -4 4 -10z m1560 0 c0 -5
-4 -10 -10 -10 -5 0 -10 5 -10 10 0 6 5 10 10 10 6 0 10 -4 10 -10z m827 -21
c-1 -11 -9 -25 -19 -30 -15 -8 -18 -6 -18 11 0 11 7 20 15 20 8 0 15 5 15 10
0 6 2 10 4 10 3 0 4 -9 3 -21z m-180 -4 c0 -8 -4 -15 -9 -15 -4 0 -8 7 -8 15
0 8 4 15 8 15 5 0 9 -7 9 -15z m1133 -5 c0 -5 -5 -10 -11 -10 -5 0 -7 5 -4 10
3 6 8 10 11 10 2 0 4 -4 4 -10z m-3420 -9 c0 -4 11 -6 25 -3 18 3 25 0 25 -12
0 -9 -7 -16 -15 -16 -8 0 -15 4 -15 8 0 4 -11 9 -24 10 -17 1 -27 -5 -31 -18
-7 -21 -25 -28 -25 -9 0 23 22 49 40 49 11 0 20 -4 20 -9z m90 -1 c0 -5 -2
-10 -4 -10 -3 0 -8 5 -11 10 -3 6 -1 10 4 10 6 0 11 -4 11 -10z m3140 0 c0 -5
-7 -7 -15 -4 -8 4 -15 8 -15 10 0 2 7 4 15 4 8 0 15 -4 15 -10z m-1465 -30
c-5 -8 -11 -8 -21 1 -12 10 -12 14 -2 20 16 10 33 -5 23 -21z m429 15 c3 -8 1
-15 -4 -15 -6 0 -10 7 -10 15 0 8 2 15 4 15 2 0 6 -7 10 -15z m278 -24 c15
-18 15 -19 -9 -24 -38 -7 -44 23 -8 43 0 0 8 -9 17 -19z m-2147 -31 c7 0 15
-9 18 -20 3 -11 1 -18 -3 -15 -5 3 -11 1 -15 -5 -3 -5 1 -10 9 -10 18 0 21
-16 6 -25 -5 -3 -15 5 -21 18 -9 19 -21 26 -50 29 -22 2 -44 -1 -49 -6 -7 -7
-10 -5 -10 3 0 7 9 15 20 18 11 3 17 9 14 14 -3 5 2 9 10 9 9 0 16 5 16 11 0
5 5 7 10 4 6 -3 10 0 11 7 0 7 5 3 11 -9 6 -13 17 -23 23 -23z m2055 29 c0 -5
-6 -9 -12 -9 -7 0 -5 -5 5 -11 23 -13 22 -29 -3 -29 -13 0 -20 7 -20 20 0 10
-7 23 -16 28 -12 7 -9 9 15 10 17 0 31 -4 31 -9z m-2383 -5 c-3 -3 -12 -4 -19
-1 -8 3 -5 6 6 6 11 1 17 -2 13 -5z m1963 -4 c0 -5 -4 -10 -10 -10 -5 0 -10 5
-10 10 0 6 5 10 10 10 6 0 10 -4 10 -10z m-1865 -10 c3 -5 -1 -10 -10 -10 -9
0 -13 5 -10 10 3 6 8 10 10 10 2 0 7 -4 10 -10z m-895 -4 c0 -2 -7 -6 -15 -10
-8 -3 -15 -1 -15 4 0 6 7 10 15 10 8 0 15 -2 15 -4z m87 -2 c-3 -3 -12 -4 -19
-1 -8 3 -5 6 6 6 11 1 17 -2 13 -5z m689 -10 c-9 -8 -20 -12 -26 -9 -15 9 -2
25 21 25 19 0 19 -1 5 -16z m81 -18 c0 -8 -6 -12 -14 -9 -7 3 -10 9 -7 14 8
14 21 11 21 -5z m1937 -1 c3 -8 1 -15 -4 -15 -6 0 -10 7 -10 15 0 8 2 15 4 15
2 0 6 -7 10 -15z m344 -7 c-2 -13 -9 -22 -16 -20 -6 1 -12 -2 -12 -8 0 -5 -7
-10 -15 -10 -18 0 -20 31 -3 48 7 7 20 12 31 12 13 0 17 -6 15 -22z m-298 -2
c0 -2 -7 -6 -15 -10 -8 -3 -15 -1 -15 4 0 6 7 10 15 10 8 0 15 -2 15 -4z
m-400 -26 c0 -5 -4 -10 -9 -10 -6 0 -13 5 -16 10 -3 6 1 10 9 10 9 0 16 -4 16
-10z m430 -10 c0 -11 -4 -20 -10 -20 -5 0 -10 9 -10 20 0 11 5 20 10 20 6 0
10 -9 10 -20z m175 10 c3 -5 -1 -10 -9 -10 -9 0 -16 5 -16 10 0 6 4 10 9 10 6
0 13 -4 16 -10z m-1925 -25 c7 -9 8 -15 2 -15 -5 0 -12 7 -16 15 -3 8 -4 15
-2 15 2 0 9 -7 16 -15z m112 -7 c-7 -7 -12 -8 -12 -2 0 6 3 14 7 17 3 4 9 5
12 2 2 -3 -1 -11 -7 -17z m-31 5 c-11 -5 -11 -7 0 -14 11 -7 10 -9 -3 -9 -10
0 -18 7 -18 15 0 8 8 15 18 14 12 0 13 -2 3 -6z m1269 -13 c11 -7 6 -10 -22
-10 -20 0 -40 5 -43 10 -8 13 45 13 65 0z m437 4 c-3 -3 -12 -4 -19 -1 -8 3
-5 6 6 6 11 1 17 -2 13 -5z m943 -4 c0 -5 -5 -10 -11 -10 -5 0 -7 5 -4 10 3 6
8 10 11 10 2 0 4 -4 4 -10z m-3343 -6 c-3 -3 -12 -4 -19 -1 -8 3 -5 6 6 6 11
1 17 -2 13 -5z m2351 -11 c-2 -12 4 -19 19 -21 22 -3 22 -3 2 -23 -11 -11 -17
-24 -14 -28 2 -5 -2 -11 -10 -15 -8 -3 -15 -12 -15 -21 0 -27 -20 -16 -21 13
-1 15 -3 41 -4 57 -2 42 4 55 27 55 12 0 18 -6 16 -17z m-1733 -3 c3 -5 -1
-10 -10 -10 -9 0 -13 5 -10 10 3 6 8 10 10 10 2 0 7 -4 10 -10z m73 -10 c15 0
15 -2 2 -10 -23 -15 -50 -12 -50 6 0 11 5 14 16 10 9 -3 23 -6 32 -6z m1098
-27 c-10 -10 -19 5 -10 18 6 11 8 11 12 0 2 -7 1 -15 -2 -18z m-1976 -19 c0
-2 -9 -4 -20 -4 -11 0 -20 4 -20 9 0 5 9 7 20 4 11 -3 20 -7 20 -9z m3476 -42
c-20 -20 -22 -1 -3 28 10 18 12 18 15 4 2 -9 -3 -24 -12 -32z m-726 34 c0 -3
-4 -8 -10 -11 -5 -3 -10 -1 -10 4 0 6 5 11 10 11 6 0 10 -2 10 -4z m-760 -26
c12 -8 11 -10 -7 -10 -13 0 -23 5 -23 10 0 13 11 13 30 0z m-1914 -15 c4 -8 9
-13 14 -10 4 2 12 -7 18 -20 10 -22 9 -25 -8 -25 -10 0 -22 5 -25 11 -4 5 -19
9 -33 7 -21 -2 -28 2 -30 19 -3 21 1 23 51 32 4 0 10 -6 13 -14z m144 -7 c0
-5 5 -6 10 -3 6 3 10 1 10 -5 0 -8 -7 -9 -17 -5 -10 4 -26 10 -36 13 -14 3
-15 7 -6 12 14 10 39 2 39 -12z m-66 3 c3 -5 0 -11 -7 -14 -8 -3 -14 1 -14 9
0 16 13 19 21 5z m141 -1 c-3 -5 0 -10 7 -11 10 0 10 -2 1 -6 -7 -2 -13 -11
-13 -19 0 -8 -4 -14 -9 -14 -17 0 -23 20 -11 34 8 11 8 15 -2 19 -7 3 -3 6 10
6 13 1 20 -3 17 -9z m2705 -10 c0 -5 -7 -10 -15 -10 -8 0 -15 5 -15 10 0 6 7
10 15 10 8 0 15 -4 15 -10z m250 0 c0 -5 -4 -10 -10 -10 -5 0 -10 5 -10 10 0
6 5 10 10 10 6 0 10 -4 10 -10z m-2150 -10 c0 -5 -5 -10 -11 -10 -5 0 -7 5 -4
10 3 6 8 10 11 10 2 0 4 -4 4 -10z m2110 -20 c0 -5 -4 -10 -10 -10 -5 0 -10 5
-10 10 0 6 5 10 10 10 6 0 10 -4 10 -10z m180 0 c0 -5 -4 -10 -10 -10 -5 0
-10 5 -10 10 0 6 5 10 10 10 6 0 10 -4 10 -10z m70 0 c0 -5 -4 -10 -10 -10 -5
0 -10 5 -10 10 0 6 5 10 10 10 6 0 10 -4 10 -10z m-3105 -10 c4 -6 -6 -10 -22
-9 -25 0 -26 1 -8 9 11 5 21 9 22 9 1 1 5 -3 8 -9z m565 0 c0 -5 -2 -10 -4
-10 -3 0 -8 5 -11 10 -3 6 -1 10 4 10 6 0 11 -4 11 -10z m134 -5 c3 -8 1 -15
-4 -15 -6 0 -10 7 -10 15 0 8 2 15 4 15 2 0 6 -7 10 -15z m43 9 c-3 -3 -12 -4
-19 -1 -8 3 -5 6 6 6 11 1 17 -2 13 -5z m-101 -19 c-16 -17 -66 -20 -66 -5 0
6 10 8 24 4 13 -3 27 -1 30 5 4 6 12 11 17 11 6 0 4 -7 -5 -15z m1421 -1 c5
-16 -36 -25 -59 -13 -13 7 -18 6 -18 -2 0 -7 -2 -10 -5 -7 -3 3 -3 13 1 22 5
13 16 16 42 14 19 -2 37 -8 39 -14z m1073 12 c0 -2 -7 -7 -16 -10 -8 -3 -12
-2 -9 4 6 10 25 14 25 6z m-3343 -21 c0 -10 -6 -14 -14 -10 -8 3 -19 5 -24 5
-6 0 -7 5 -4 10 10 16 42 12 42 -5z m143 4 c0 -7 11 -9 31 -5 37 7 69 -8 69
-34 0 -16 -6 -18 -36 -14 -20 2 -45 13 -54 24 -10 11 -22 20 -29 20 -6 0 -11
5 -11 10 0 6 7 10 15 10 8 0 15 -5 15 -11z m593 -6 c-14 -11 -14 -13 -2 -13 8
0 21 6 28 13 11 10 12 7 6 -13 -10 -34 -12 -35 -30 -16 -9 9 -20 14 -24 12 -4
-3 -7 3 -7 12 0 11 8 17 23 17 21 0 22 -1 6 -12z m1662 -11 c-2 -9 -4 -20 -4
-24 -1 -4 -11 -12 -23 -19 -19 -10 -20 -9 -14 7 5 11 9 24 10 29 3 19 17 35
26 30 4 -3 7 -13 5 -23z m748 16 c6 -20 -3 -38 -22 -39 -10 0 -11 -2 -3 -6 17
-7 15 -23 -2 -23 -16 0 -24 24 -18 58 5 24 37 31 45 10z m-1733 -17 c0 -6 -4
-13 -10 -16 -5 -3 -10 1 -10 9 0 9 5 16 10 16 6 0 10 -4 10 -9z m-1398 -23
c-7 -7 -12 -8 -12 -2 0 6 3 14 7 17 3 4 9 5 12 2 2 -3 -1 -11 -7 -17z m818 6
c0 -2 -13 -10 -30 -19 -28 -15 -30 -14 -30 3 0 10 2 21 5 24 6 5 55 -2 55 -8z
m-120 -10 c0 -2 -7 -4 -15 -4 -8 0 -15 4 -15 10 0 5 7 7 15 4 8 -4 15 -8 15
-10z m744 1 c3 -9 0 -15 -9 -15 -8 0 -15 -9 -15 -20 0 -13 -7 -20 -20 -20 -25
0 -26 21 -1 40 11 7 18 17 15 22 -3 4 1 8 9 8 8 0 17 -7 21 -15z m526 5 c0 -5
7 -7 15 -4 8 4 15 2 15 -4 0 -11 -30 -21 -47 -15 -18 6 -16 33 2 33 8 0 15 -4
15 -10z m740 -4 c0 -2 -9 -6 -20 -9 -11 -3 -18 -1 -14 4 5 9 34 13 34 5z
m-2495 -26 c3 -5 1 -10 -4 -10 -6 0 -11 5 -11 10 0 6 2 10 4 10 3 0 8 -4 11
-10z m425 0 c0 -5 -7 -10 -15 -10 -8 0 -15 5 -15 10 0 6 7 10 15 10 8 0 15 -4
15 -10z m102 3 c-6 -2 -9 -9 -6 -15 4 -5 -7 -8 -27 -6 -51 6 -49 28 3 27 24 0
37 -3 30 -6z m1588 3 c0 -11 -19 -15 -25 -6 -3 5 1 10 9 10 9 0 16 -2 16 -4z
m-2201 -22 c2 -2 -5 -4 -16 -4 -12 0 -23 -3 -26 -7 -2 -5 -2 -3 -1 4 2 6 -2
14 -9 17 -7 3 2 3 18 -1 17 -3 32 -7 34 -9z m2901 1 c0 -8 -4 -15 -9 -15 -13
0 -22 16 -14 24 11 11 23 6 23 -9z m185 -5 c-3 -5 -12 -7 -20 -3 -21 7 -19 13
6 13 11 0 18 -4 14 -10z m-1179 -16 c29 8 33 -10 4 -19 -11 -3 -20 -12 -20
-20 0 -14 -45 -26 -67 -18 -17 7 -13 44 7 60 10 8 20 8 33 1 11 -5 30 -7 43
-4z m294 6 c8 -5 11 -12 8 -16 -10 -9 -38 3 -38 16 0 12 10 13 30 0z m-2180
-10 c0 -5 -4 -10 -9 -10 -6 0 -13 5 -16 10 -3 6 1 10 9 10 9 0 16 -4 16 -10z
m330 0 c0 -5 -5 -10 -11 -10 -5 0 -7 5 -4 10 3 6 8 10 11 10 2 0 4 -4 4 -10z
m170 0 c-8 -5 -19 -10 -25 -10 -5 0 -3 5 5 10 8 5 20 10 25 10 6 0 3 -5 -5
-10z m1497 -5 c5 -17 -12 -34 -37 -37 -21 -3 -26 2 -28 25 -3 27 -1 28 29 25
18 -2 34 -7 36 -13z m-1627 -16 c0 -5 -4 -9 -8 -9 -5 0 -9 7 -9 15 0 8 4 12 9
9 4 -3 8 -9 8 -15z m73 14 c-7 -2 -21 -2 -30 0 -10 3 -4 5 12 5 17 0 24 -2 18
-5z m130 -4 c21 0 21 -1 2 -9 -32 -14 -55 -11 -55 6 0 11 5 14 16 10 9 -3 25
-6 37 -7z m-848 -9 c13 -6 15 -9 5 -9 -8 0 -22 4 -30 9 -18 12 -2 12 25 0z
m345 0 c0 -5 -2 -10 -4 -10 -3 0 -8 5 -11 10 -3 6 -1 10 4 10 6 0 11 -4 11
-10z m1543 -10 c-3 -11 -14 -20 -24 -20 -21 0 -22 1 -13 24 9 25 43 21 37 -4z
m1362 10 c-3 -5 -13 -10 -21 -10 -8 0 -14 5 -14 10 0 6 9 10 21 10 11 0 17 -4
14 -10z m-837 -12 c18 -18 15 -27 -8 -21 -11 3 -20 12 -20 19 0 17 12 18 28 2z
m182 8 c0 -3 -4 -8 -10 -11 -5 -3 -10 -1 -10 4 0 6 5 11 10 11 6 0 10 -2 10
-4z m55 -6 c3 -5 2 -10 -4 -10 -5 0 -13 5 -16 10 -3 6 -2 10 4 10 5 0 13 -4
16 -10z m-1931 -24 c-8 -20 -41 -26 -54 -11 -9 11 -4 14 22 18 18 2 34 5 35 5
1 1 0 -4 -3 -12z m119 2 c31 -15 36 -29 8 -21 -10 3 -22 0 -25 -6 -11 -18 -36
-13 -36 7 0 34 12 38 53 20z m1499 -12 c9 -14 29 -15 46 -3 8 7 17 6 24 -1 16
-16 28 -15 28 2 0 14 37 29 52 20 5 -3 6 -14 3 -24 -8 -25 16 -30 38 -8 16 16
16 18 0 18 -9 0 -14 3 -10 6 9 9 47 -6 47 -18 0 -35 72 -66 83 -35 2 6 8 9 12
5 5 -5 0 -17 -10 -28 -17 -18 -17 -20 -2 -14 9 3 17 2 17 -4 0 -13 -43 -23
-54 -12 -13 13 -56 -19 -56 -42 0 -14 5 -18 15 -14 8 3 15 1 15 -4 0 -15 -69
-7 -75 9 -3 8 -4 15 -3 16 2 1 12 7 23 13 11 6 14 12 7 12 -7 0 -25 12 -40 28
-15 15 -35 26 -45 24 -10 -2 -24 2 -32 8 -11 9 -15 9 -15 1 0 -16 -30 -14 -36
2 -3 8 -11 14 -19 14 -8 0 -11 -5 -8 -10 3 -5 0 -13 -8 -18 -11 -7 -21 -99
-11 -99 2 0 12 5 23 10 15 8 19 7 19 -4 0 -8 6 -17 13 -19 6 -3 0 -6 -15 -6
-27 -1 -50 -20 -26 -22 7 -1 -5 -5 -27 -9 -22 -4 -47 -4 -55 1 -12 7 -12 8 4
9 12 0 16 5 12 15 -4 10 1 15 15 15 14 0 18 4 12 13 -12 18 -12 110 -1 125 8
9 5 12 -11 12 -23 0 -29 25 -8 33 16 7 50 -3 59 -17z m378 20 c0 -3 -4 -8 -10
-11 -5 -3 -10 -1 -10 4 0 6 5 11 10 11 6 0 10 -2 10 -4z m-1960 -15 c0 -12
-20 -25 -27 -18 -7 7 6 27 18 27 5 0 9 -4 9 -9z m1850 1 c0 -13 -12 -22 -22
-16 -10 6 -1 24 13 24 5 0 9 -4 9 -8z m-760 -32 c0 -5 -7 -10 -15 -10 -8 0
-15 5 -15 10 0 6 7 10 15 10 8 0 15 -4 15 -10z m263 -11 c-12 -4 -24 -12 -27
-18 -5 -7 0 -8 11 -4 17 6 17 5 -1 -15 -27 -31 -36 -27 -34 13 1 36 15 45 52
36 19 -4 19 -5 -1 -12z m-313 1 c0 -5 -2 -10 -4 -10 -3 0 -8 5 -11 10 -3 6 -1
10 4 10 6 0 11 -4 11 -10z m1030 -10 c0 -5 -11 -10 -25 -10 -14 0 -25 5 -25
10 0 6 11 10 25 10 14 0 25 -4 25 -10z m-1910 -10 c8 -5 11 -13 6 -17 -5 -4
-11 -3 -13 4 -3 7 -18 10 -41 7 -31 -3 -33 -2 -12 5 34 12 42 12 60 1z m1220
-25 c0 -9 -6 -12 -16 -8 -13 5 -13 7 -2 14 17 11 18 11 18 -6z m283 8 c-7 -2
-19 -2 -25 0 -7 3 -2 5 12 5 14 0 19 -2 13 -5z m-1523 -12 c0 -6 -4 -13 -10
-16 -5 -3 -10 1 -10 9 0 9 5 16 10 16 6 0 10 -4 10 -9z m-857 -8 c3 -5 -6 -9
-19 -9 -13 -1 -24 2 -24 7 0 11 37 12 43 2z m787 -7 c0 -19 -31 -29 -44 -16
-8 8 -6 9 6 5 12 -5 20 -1 24 9 8 20 14 21 14 2z m-663 -12 c-3 -3 -12 -4 -19
-1 -8 3 -5 6 6 6 11 1 17 -2 13 -5z m2260 -16 c-3 -8 -6 -5 -6 6 -1 11 2 17 5
13 3 -3 4 -12 1 -19z m48 12 c-3 -5 -10 -10 -16 -10 -5 0 -9 5 -9 10 0 6 7 10
16 10 8 0 12 -4 9 -10z m-2383 -7 c-6 -2 -10 -9 -6 -14 3 -5 0 -8 -8 -7 -7 2
-12 -4 -10 -12 3 -11 1 -12 -8 -3 -15 14 6 42 30 42 10 0 11 -2 2 -6z m2038
-13 c0 -5 -7 -10 -16 -10 -8 0 -12 5 -9 10 3 6 10 10 16 10 5 0 9 -4 9 -10z
m-370 -32 c0 -5 -12 -7 -27 -7 -17 1 -21 3 -10 6 9 2 17 12 17 21 0 15 2 15
10 2 5 -8 10 -18 10 -22z m221 1 c10 0 10 -2 2 -6 -7 -2 -13 -11 -13 -19 0 -8
-4 -14 -9 -14 -5 0 -11 -11 -13 -25 -4 -16 -1 -25 8 -25 7 0 14 -5 16 -11 3
-9 11 -8 28 1 21 11 22 14 8 19 -27 10 4 45 31 36 22 -7 29 -25 9 -25 -6 0 -2
-10 10 -23 12 -13 20 -26 17 -28 -9 -10 54 -69 73 -69 33 0 34 -27 2 -50 -25
-18 -33 -19 -52 -9 -13 7 -26 16 -29 21 -7 11 -34 12 -71 2 -18 -4 -28 -2 -28
5 0 16 -31 13 -52 -5 -12 -12 -21 -14 -30 -6 -7 5 -24 12 -38 14 -34 4 -32 32
2 36 28 3 48 32 23 32 -22 0 -18 41 4 47 25 6 34 30 14 37 -18 7 -12 27 20 66
19 24 24 26 38 14 8 -8 22 -14 30 -15z m-1791 11 c0 -5 -2 -10 -4 -10 -3 0 -8
5 -11 10 -3 6 -1 10 4 10 6 0 11 -4 11 -10z m1840 -18 c0 -13 -49 -56 -56 -49
-4 3 1 13 10 22 9 9 16 21 16 26 0 5 7 9 15 9 8 0 15 -4 15 -8z m215 -61 c-3
-6 1 -11 9 -11 19 0 21 -16 4 -23 -8 -3 -7 -6 4 -6 9 -1 19 -5 22 -10 11 -17
-49 -6 -67 12 -14 14 -16 22 -7 32 7 8 7 15 1 19 -5 4 -12 2 -16 -4 -9 -15
-25 -2 -19 15 3 8 13 15 22 17 21 4 56 -27 47 -41z m127 17 c-7 -7 -12 -8 -12
-2 0 14 12 26 19 19 2 -3 -1 -11 -7 -17z m-32 -28 c0 -26 -11 -50 -22 -50 -5
0 -8 6 -6 12 3 7 -1 19 -9 26 -15 16 -18 36 -3 27 6 -3 10 -2 10 4 0 6 7 8 15
5 8 -4 15 -14 15 -24z m70 20 c0 -5 -7 -10 -16 -10 -8 0 -12 5 -9 10 3 6 10
10 16 10 5 0 9 -4 9 -10z m26 -46 c-9 -8 -14 -20 -11 -25 4 -5 1 -9 -4 -9 -15
0 -14 37 2 43 24 10 28 7 13 -9z m291 0 c-3 -3 -12 -4 -19 -1 -8 3 -5 6 6 6
11 1 17 -2 13 -5z m-2037 -25 c0 -11 -4 -18 -10 -14 -5 3 -7 12 -3 20 7 21 13
19 13 -6z m1880 1 c0 -13 -11 -13 -30 0 -12 8 -11 10 8 10 12 0 22 -4 22 -10z
m-743 -27 c-3 -3 -11 -2 -17 2 -9 6 -9 10 1 16 14 8 27 -7 16 -18z m-19 -12
c10 -6 6 -11 -17 -19 -29 -10 -30 -10 -18 9 13 21 16 22 35 10z m522 -31 c0
-5 -2 -10 -4 -10 -3 0 -8 5 -11 10 -3 6 -1 10 4 10 6 0 11 -4 11 -10z m-5 -30
c3 -5 1 -10 -4 -10 -6 0 -11 5 -11 10 0 6 2 10 4 10 3 0 8 -4 11 -10z m-520
-10 c3 -5 1 -10 -4 -10 -6 0 -11 5 -11 10 0 6 2 10 4 10 3 0 8 -4 11 -10z m58
-11 c-6 -6 -19 -9 -29 -6 -17 3 -16 5 6 14 28 12 39 8 23 -8z m-628 -9 c3 -5
-1 -10 -9 -10 -8 0 -18 5 -21 10 -3 6 1 10 9 10 8 0 18 -4 21 -10z m165 0 c0
-5 -4 -10 -10 -10 -5 0 -10 5 -10 10 0 6 5 10 10 10 6 0 10 -4 10 -10z m442
-33 c30 4 39 3 34 -5 -4 -7 -14 -12 -22 -12 -8 0 -23 -6 -34 -12 -24 -16 -44
0 -33 27 4 11 8 14 11 7 2 -8 17 -10 44 -5z m-662 -7 c0 -5 -2 -10 -4 -10 -3
0 -8 5 -11 10 -3 6 -1 10 4 10 6 0 11 -4 11 -10z m527 -26 c-3 -3 -12 -4 -19
-1 -8 3 -5 6 6 6 11 1 17 -2 13 -5z"/>
<path d="M6035 4930 c3 -5 8 -10 11 -10 2 0 4 5 4 10 0 6 -5 10 -11 10 -5 0
-7 -4 -4 -10z"/>
<path d="M5830 4515 c0 -8 5 -15 10 -15 6 0 10 7 10 15 0 8 -4 15 -10 15 -5 0
-10 -7 -10 -15z"/>
<path d="M5830 4450 c0 -5 7 -10 15 -10 8 0 15 5 15 10 0 6 -7 10 -15 10 -8 0
-15 -4 -15 -10z"/>
<path d="M5426 4391 c-4 -5 3 -7 14 -4 23 6 26 13 6 13 -8 0 -17 -4 -20 -9z"/>
<path d="M6985 4000 c-3 -5 -2 -10 4 -10 5 0 13 5 16 10 3 6 2 10 -4 10 -5 0
-13 -4 -16 -10z"/>
<path d="M2810 3979 c0 -5 5 -7 10 -4 6 3 10 8 10 11 0 2 -4 4 -10 4 -5 0 -10
-5 -10 -11z"/>
<path d="M5606 3053 c-6 -14 -5 -15 5 -6 7 7 10 15 7 18 -3 3 -9 -2 -12 -12z"/>
<path d="M4568 3463 c6 -2 18 -2 25 0 6 3 1 5 -13 5 -14 0 -19 -2 -12 -5z"/>
<path d="M4515 3420 c-3 -5 -1 -10 4 -10 6 0 11 5 11 10 0 6 -2 10 -4 10 -3 0
-8 -4 -11 -10z"/>
<path d="M4568 3403 c7 -3 16 -2 19 1 4 3 -2 6 -13 5 -11 0 -14 -3 -6 -6z"/>
<path d="M3860 2975 c0 -8 2 -15 4 -15 2 0 6 7 10 15 3 8 1 15 -4 15 -6 0 -10
-7 -10 -15z"/>
<path d="M4158 2883 c7 -3 16 -2 19 1 4 3 -2 6 -13 5 -11 0 -14 -3 -6 -6z"/>
<path d="M5760 2520 c0 -5 5 -10 10 -10 6 0 10 5 10 10 0 6 -4 10 -10 10 -5 0
-10 -4 -10 -10z"/>
<path d="M5788 2393 c7 -3 16 -2 19 1 4 3 -2 6 -13 5 -11 0 -14 -3 -6 -6z"/>
<path d="M7610 6230 c0 -13 11 -13 30 0 12 8 11 10 -7 10 -13 0 -23 -4 -23
-10z"/>
<path d="M7638 6173 c6 -2 18 -2 25 0 6 3 1 5 -13 5 -14 0 -19 -2 -12 -5z"/>
<path d="M7758 6033 c6 -2 18 -2 25 0 6 3 1 5 -13 5 -14 0 -19 -2 -12 -5z"/>
<path d="M7753 6013 c9 -2 23 -2 30 0 6 3 -1 5 -18 5 -16 0 -22 -2 -12 -5z"/>
<path d="M8538 6003 c7 -3 16 -2 19 1 4 3 -2 6 -13 5 -11 0 -14 -3 -6 -6z"/>
<path d="M7516 5877 c3 -10 9 -15 12 -12 3 3 0 11 -7 18 -10 9 -11 8 -5 -6z"/>
<path d="M8480 4780 c-13 -8 -13 -10 2 -10 9 0 20 5 23 10 8 13 -5 13 -25 0z"/>
<path d="M2101 4608 c0 -18 5 -45 11 -60 9 -24 12 -26 36 -15 15 6 32 16 37
23 6 6 29 15 53 19 23 4 44 10 47 14 2 5 -33 16 -78 26 -45 10 -87 20 -94 22
-8 3 -12 -7 -12 -29z"/>
<path d="M2320 4535 c-14 -8 -38 -14 -54 -15 -15 0 -41 -11 -58 -25 -16 -14
-36 -25 -45 -25 -19 0 -14 -23 22 -103 l25 -58 23 22 c14 14 18 23 10 26 -10
3 -10 9 0 23 9 16 8 22 -8 35 -19 14 -19 16 -2 26 11 7 16 17 12 29 -7 22 20
40 60 40 14 0 35 9 47 20 26 24 6 27 -32 5z"/>
<path d="M2480 4539 c0 -5 5 -7 10 -4 6 3 10 8 10 11 0 2 -4 4 -10 4 -5 0 -10
-5 -10 -11z"/>
<path d="M2710 4485 c-7 -9 -11 -17 -8 -20 2 -2 12 4 21 15 9 11 13 20 8 20
-5 0 -14 -7 -21 -15z"/>
<path d="M2510 4395 c0 -8 2 -15 4 -15 2 0 6 7 10 15 3 8 1 15 -4 15 -6 0 -10
-7 -10 -15z"/>
<path d="M3375 4380 c-3 -6 1 -7 9 -4 18 7 21 14 7 14 -6 0 -13 -4 -16 -10z"/>
<path d="M3667 4346 c-3 -7 8 -11 31 -11 19 0 37 5 39 11 5 14 -65 15 -70 0z"/>
<path d="M3796 4343 c-6 -14 -5 -15 5 -6 7 7 10 15 7 18 -3 3 -9 -2 -12 -12z"/>
<path d="M2238 4303 c7 -3 16 -2 19 1 4 3 -2 6 -13 5 -11 0 -14 -3 -6 -6z"/>
<path d="M3150 3840 c13 -8 12 -10 -3 -10 -10 0 -15 -4 -12 -10 10 -17 32 -11
38 10 4 15 0 20 -16 20 -18 0 -19 -2 -7 -10z"/>
<path d="M3480 3785 c-10 -12 -10 -15 4 -15 9 0 16 7 16 15 0 8 -2 15 -4 15
-2 0 -9 -7 -16 -15z"/>
<path d="M2540 3780 c-9 -6 -10 -10 -3 -10 6 0 15 5 18 10 8 12 4 12 -15 0z"/>
<path d="M2571 3754 c-7 -8 -10 -18 -6 -22 4 -4 10 -1 12 6 3 6 11 12 19 12 9
0 12 5 9 10 -8 14 -18 12 -34 -6z"/>
<path d="M2965 3734 c-7 -10 -29 -16 -68 -18 -37 -2 -62 -8 -68 -17 -5 -8 -9
-10 -9 -6 0 4 -10 2 -22 -5 -13 -7 -32 -11 -43 -10 -18 2 -19 2 -2 -8 9 -6 15
-15 12 -19 -7 -12 36 -22 53 -12 9 5 28 5 44 1 28 -9 31 -7 54 35 6 11 16 19
23 17 25 -5 48 8 46 28 -2 27 -9 32 -20 14z m-88 -40 c-3 -3 -12 -4 -19 -1 -8
3 -5 6 6 6 11 1 17 -2 13 -5z"/>
<path d="M3120 3665 c0 -16 39 -36 53 -28 9 5 -31 43 -45 43 -4 0 -8 -7 -8
-15z"/>
<path d="M3390 3657 c0 -18 -43 -43 -48 -28 -3 9 -8 9 -19 0 -12 -10 -16 -10
-24 2 -8 12 -10 12 -19 -1 -15 -23 -12 -33 9 -27 14 3 17 0 14 -14 -3 -11 -12
-19 -19 -19 -8 0 -14 -4 -14 -10 0 -16 18 -12 40 10 27 27 43 25 38 -4 -4 -22
-2 -23 18 -16 12 5 25 7 28 4 3 -2 4 -1 1 3 -3 3 1 13 8 21 10 13 8 14 -15 8
-17 -4 -28 -2 -28 4 0 5 13 10 28 10 24 0 28 4 26 23 -1 12 -3 28 -3 35 -1 16
-21 16 -21 -1z m7 -43 c-3 -3 -12 -4 -19 -1 -8 3 -5 6 6 6 11 1 17 -2 13 -5z"/>
<path d="M3496 3653 c-6 -14 -5 -15 5 -6 7 7 10 15 7 18 -3 3 -9 -2 -12 -12z"/>
<path d="M3568 3616 c-9 -8 -19 -12 -23 -8 -5 4 -5 1 -1 -5 9 -15 25 -16 46
-3 11 7 12 12 4 20 -8 8 -15 7 -26 -4z"/>
<path d="M3476 3605 c-18 -18 -30 -20 -20 -2 5 9 4 9 -6 0 -7 -6 -10 -17 -8
-23 2 -8 14 -4 33 13 17 15 27 27 23 27 -4 0 -13 -7 -22 -15z"/>
<path d="M3192 3585 c-13 -7 -20 -15 -15 -17 4 -3 19 1 31 7 13 7 20 15 15 17
-4 3 -19 -1 -31 -7z"/>
<path d="M3020 3581 c0 -5 5 -13 10 -16 6 -3 10 -2 10 4 0 5 -4 13 -10 16 -5
3 -10 2 -10 -4z"/>
<path d="M3230 3550 c-9 -6 -10 -10 -3 -10 6 0 15 5 18 10 8 12 4 12 -15 0z"/>
<path d="M3605 3541 c-3 -5 -1 -12 5 -16 5 -3 10 1 10 9 0 18 -6 21 -15 7z"/>
<path d="M3318 3513 c7 -3 16 -2 19 1 4 3 -2 6 -13 5 -11 0 -14 -3 -6 -6z"/>
<path d="M3568 3493 c7 -3 16 -2 19 1 4 3 -2 6 -13 5 -11 0 -14 -3 -6 -6z"/>
<path d="M3410 3470 c0 -5 7 -7 15 -4 8 4 15 8 15 10 0 2 -7 4 -15 4 -8 0 -15
-4 -15 -10z"/>
<path d="M2990 3430 c0 -5 7 -7 15 -4 8 4 15 8 15 10 0 2 -7 4 -15 4 -8 0 -15
-4 -15 -10z"/>
<path d="M2810 3390 c0 -5 5 -10 10 -10 6 0 10 5 10 10 0 6 -4 10 -10 10 -5 0
-10 -4 -10 -10z"/>
<path d="M3065 3391 c3 -5 -4 -12 -15 -16 -20 -7 -28 -25 -10 -25 6 0 10 -9
10 -21 0 -15 -5 -19 -16 -15 -8 3 -12 2 -9 -4 3 -6 -4 -10 -16 -10 -12 0 -19
-3 -16 -7 4 -3 2 -12 -4 -20 -9 -10 -8 -17 1 -28 10 -12 10 -15 0 -15 -10 0
-10 -3 0 -15 7 -8 9 -15 4 -15 -4 0 -3 -5 4 -12 15 -15 45 9 38 29 -3 8 3 31
13 51 10 20 16 43 14 50 -3 7 2 23 10 35 14 23 12 47 -4 47 -6 0 -8 -4 -4 -9z"/>
<path d="M3460 3330 c0 -5 4 -10 9 -10 6 0 13 5 16 10 3 6 -1 10 -9 10 -9 0
-16 -4 -16 -10z"/>
<path d="M3408 3283 c6 -2 18 -2 25 0 6 3 1 5 -13 5 -14 0 -19 -2 -12 -5z"/>
<path d="M2930 3261 c0 -10 19 -25 25 -20 1 2 -3 10 -11 17 -8 7 -14 8 -14 3z"/>
<path d="M3356 3261 c-4 -5 3 -7 14 -4 23 6 26 13 6 13 -8 0 -17 -4 -20 -9z"/>
<path d="M3256 3205 c-11 -8 -15 -15 -9 -15 6 0 16 7 23 15 16 19 11 19 -14 0z"/>
<path d="M3165 3153 c-31 -7 -40 -21 -11 -16 15 3 29 9 32 14 3 5 4 8 2 8 -2
-1 -12 -3 -23 -6z"/>
</g>
</svg>
