<svg width="311" height="131" viewBox="0 0 311 131" fill="none" xmlns="http://www.w3.org/2000/svg">
<g clip-path="url(#clip0)">
<path d="M15.65 114.54C16.1414 114.753 16.5611 115.103 16.859 115.548C17.1569 115.993 17.3204 116.514 17.33 117.05V130.27C17.3274 130.388 17.2788 130.499 17.1947 130.582C17.1106 130.664 16.9976 130.71 16.88 130.71H13.62C13.5643 130.713 13.5087 130.703 13.457 130.682C13.4052 130.662 13.3585 130.63 13.32 130.59C13.2412 130.502 13.1984 130.388 13.2 130.27V118.27H10.57V130.27C10.571 130.385 10.5281 130.496 10.45 130.58C10.4149 130.625 10.3691 130.661 10.3166 130.683C10.2642 130.706 10.2069 130.715 10.15 130.71H7.14998C7.03329 130.71 6.92137 130.664 6.83886 130.581C6.75634 130.499 6.70998 130.387 6.70998 130.27V118.27H4.12998V130.27C4.14427 130.372 4.11759 130.476 4.05575 130.558C3.99392 130.64 3.90196 130.695 3.79998 130.71H0.449984C0.349648 130.725 0.247349 130.701 0.163799 130.644C0.0802492 130.586 0.0216924 130.499 -1.55405e-05 130.4V114.76C-0.0143049 114.658 0.0123832 114.554 0.0742174 114.472C0.136051 114.389 0.228005 114.335 0.329984 114.32H14.57C14.9418 114.313 15.3106 114.388 15.65 114.54V114.54Z" fill="#F5F5F9"/>
<path d="M32 114.32C32.5435 114.317 33.0758 114.474 33.5296 114.773C33.9835 115.073 34.3385 115.499 34.55 116C34.7015 116.333 34.7799 116.694 34.78 117.06V130.28C34.7827 130.337 34.7739 130.394 34.754 130.447C34.7341 130.5 34.7036 130.549 34.6643 130.59C34.625 130.631 34.5778 130.664 34.5255 130.686C34.4732 130.709 34.4169 130.72 34.36 130.72H31.08C30.9624 130.72 30.8494 130.674 30.7653 130.592C30.6812 130.509 30.6326 130.398 30.63 130.28V130.28V126.08C30.6348 125.966 30.5954 125.855 30.52 125.77C30.4818 125.726 30.4339 125.691 30.3802 125.669C30.3264 125.646 30.2682 125.636 30.21 125.64H25.57C25.4524 125.64 25.3394 125.686 25.2553 125.768C25.1712 125.85 25.1226 125.962 25.12 126.08V126.08V130.28C25.1285 130.33 25.127 130.381 25.1154 130.43C25.1039 130.48 25.0826 130.526 25.0527 130.567C25.0229 130.608 24.9852 130.643 24.9418 130.669C24.8984 130.695 24.8502 130.713 24.8 130.72H21.45C21.3993 130.73 21.3471 130.73 21.2965 130.719C21.246 130.708 21.1982 130.687 21.1561 130.657C21.114 130.627 21.0784 130.589 21.0516 130.545C21.0247 130.5 21.0072 130.451 21 130.4V117.06C20.9992 116.696 21.0706 116.336 21.21 116C21.3405 115.659 21.5416 115.348 21.8 115.09C22.0637 114.838 22.3724 114.638 22.71 114.5C23.0438 114.352 23.4051 114.278 23.77 114.28L32 114.32ZM30.59 122.13V118H25.09V122.12L30.59 122.13Z" fill="#F5F5F9"/>
<path d="M49.52 114.45C49.5646 114.488 49.5996 114.535 49.6222 114.589C49.6448 114.643 49.6543 114.702 49.65 114.76V128C49.6524 128.365 49.5774 128.726 49.43 129.06C49.2902 129.397 49.0903 129.705 48.84 129.97C48.587 130.23 48.2797 130.432 47.94 130.56C47.6005 130.699 47.2369 130.771 46.87 130.77H39.87C39.503 130.771 39.1394 130.699 38.8 130.56C38.2969 130.349 37.8683 129.993 37.569 129.537C37.2697 129.08 37.1133 128.545 37.12 128V123C37.1055 122.897 37.1319 122.792 37.1935 122.708C37.2552 122.624 37.3472 122.567 37.45 122.55H40.8C40.9028 122.538 41.0063 122.565 41.0898 122.627C41.1732 122.688 41.2305 122.778 41.25 122.88V126.35C41.2472 126.407 41.2565 126.464 41.2771 126.518C41.2978 126.571 41.3294 126.62 41.37 126.66C41.4588 126.736 41.5732 126.775 41.69 126.77H45.09C45.2036 126.775 45.3147 126.735 45.4 126.66C45.444 126.622 45.4786 126.574 45.5011 126.52C45.5236 126.466 45.5335 126.408 45.53 126.35V114.76C45.5289 114.645 45.5719 114.534 45.65 114.45C45.6877 114.405 45.7355 114.37 45.7893 114.348C45.8432 114.325 45.9017 114.316 45.96 114.32H49.22C49.2764 114.319 49.3324 114.33 49.3842 114.352C49.436 114.374 49.4823 114.408 49.52 114.45V114.45Z" fill="#F5F5F9"/>
<path d="M64.35 114.32C64.7149 114.317 65.0762 114.392 65.41 114.54C65.7371 114.674 66.034 114.872 66.2831 115.123C66.5321 115.374 66.7283 115.672 66.86 116C67.0115 116.333 67.0899 116.694 67.0899 117.06V127.95C67.0889 128.319 67.0105 128.683 66.86 129.02C66.7268 129.355 66.5298 129.66 66.28 129.92C66.0232 130.181 65.7127 130.382 65.37 130.51C65.0358 130.655 64.6743 130.727 64.31 130.72H56.05C55.6885 130.72 55.3309 130.645 55 130.5C54.504 130.296 54.0797 129.95 53.7806 129.505C53.4816 129.06 53.3213 128.536 53.32 128V117.11C53.3192 116.743 53.3905 116.379 53.53 116.04C53.6546 115.701 53.8526 115.394 54.11 115.14C54.3736 114.888 54.6823 114.688 55.02 114.55C55.3535 114.402 55.7149 114.327 56.08 114.33L64.35 114.32ZM62.94 118.32H57.44V126.76H63L62.94 118.32Z" fill="#F5F5F9"/>
<path d="M85.06 130.35C85.09 130.389 85.1062 130.436 85.1062 130.485C85.1062 130.534 85.09 130.581 85.06 130.62C85.0318 130.659 84.9938 130.69 84.9499 130.709C84.9059 130.728 84.8576 130.736 84.81 130.73H81.0899C80.9587 130.729 80.8305 130.691 80.72 130.62C80.6008 130.558 80.5007 130.464 80.43 130.35L78 125.9C77.984 125.87 77.9593 125.845 77.9289 125.829C77.8986 125.813 77.8641 125.806 77.83 125.81H75C74.9868 125.807 74.9732 125.807 74.96 125.809C74.9467 125.812 74.9341 125.817 74.9229 125.824C74.9117 125.832 74.9021 125.842 74.8947 125.853C74.8874 125.864 74.8823 125.877 74.88 125.89V130.25C74.8869 130.301 74.8836 130.352 74.8701 130.402C74.8566 130.451 74.8333 130.497 74.8016 130.537C74.7698 130.578 74.7303 130.611 74.6853 130.635C74.6404 130.66 74.5909 130.675 74.54 130.68H71.21C71.1094 130.694 71.0071 130.669 70.9249 130.609C70.8428 130.55 70.7871 130.46 70.77 130.36C70.7598 130.321 70.7598 130.279 70.77 130.24V114.76C70.7614 114.71 70.763 114.659 70.7745 114.609C70.7861 114.56 70.8074 114.514 70.8372 114.473C70.867 114.432 70.9048 114.397 70.9482 114.371C70.9916 114.344 71.0398 114.327 71.0899 114.32H81.81C82.1747 114.319 82.5358 114.394 82.87 114.54C83.5222 114.823 84.0411 115.346 84.32 116C84.4674 116.334 84.5424 116.695 84.54 117.06V123.22C84.5436 123.8 84.3575 124.365 84.01 124.83C83.6841 125.305 83.2089 125.657 82.66 125.83H82.5899C82.4799 125.83 82.45 125.91 82.51 125.97L85.06 130.35ZM80.4 118.14H74.75V122.14H80.4V118.14Z" fill="#F5F5F9"/>
<path d="M107.12 126.74C107.177 126.736 107.235 126.745 107.288 126.765C107.342 126.786 107.39 126.818 107.43 126.86C107.509 126.948 107.552 127.062 107.55 127.18V130.28C107.551 130.395 107.508 130.506 107.43 130.59C107.392 130.635 107.344 130.67 107.291 130.692C107.237 130.715 107.178 130.724 107.12 130.72H97C96.8982 130.735 96.7947 130.71 96.7109 130.65C96.6271 130.59 96.5695 130.501 96.55 130.4V114.76C96.5357 114.658 96.5624 114.554 96.6242 114.472C96.686 114.389 96.778 114.335 96.88 114.32H100.23C100.332 114.306 100.436 114.332 100.518 114.394C100.6 114.456 100.655 114.548 100.67 114.65C100.68 114.686 100.68 114.724 100.67 114.76V126.32C100.668 126.378 100.678 126.436 100.701 126.489C100.723 126.543 100.757 126.591 100.8 126.63C100.888 126.709 101.002 126.752 101.12 126.75L107.12 126.74Z" fill="#F5F5F9"/>
<path d="M122.28 114.45C122.323 114.489 122.357 114.537 122.379 114.591C122.402 114.644 122.412 114.702 122.41 114.76V117.71C122.414 117.768 122.405 117.827 122.382 117.881C122.36 117.934 122.325 117.982 122.28 118.02C122.196 118.098 122.085 118.141 121.97 118.14H114.11C114.097 118.137 114.084 118.137 114.072 118.139C114.059 118.142 114.047 118.147 114.037 118.155C114.026 118.162 114.018 118.172 114.011 118.183C114.005 118.195 114.001 118.207 114 118.22C114 118.22 114 118.22 114 118.22V120.77C114 120.83 114 120.86 114.11 120.86H120.81C120.867 120.857 120.923 120.867 120.975 120.89C121.027 120.913 121.073 120.947 121.11 120.99C121.188 121.074 121.231 121.185 121.23 121.3V123.65C121.231 123.765 121.188 123.876 121.11 123.96C121.073 124.003 121.027 124.037 120.975 124.06C120.923 124.082 120.867 124.093 120.81 124.09H114.11C114.085 124.087 114.06 124.094 114.039 124.108C114.019 124.123 114.005 124.145 114 124.17V126.7C113.995 126.712 113.994 126.726 113.995 126.739C113.996 126.752 114 126.765 114.007 126.776C114.013 126.788 114.023 126.798 114.033 126.805C114.044 126.813 114.057 126.818 114.07 126.82H122C122.115 126.82 122.225 126.865 122.308 126.945C122.39 127.026 122.437 127.135 122.44 127.25V130.25C122.441 130.307 122.431 130.364 122.41 130.418C122.389 130.471 122.358 130.519 122.318 130.56C122.278 130.601 122.23 130.634 122.177 130.656C122.124 130.679 122.067 130.69 122.01 130.69H110.32C110.218 130.705 110.115 130.68 110.031 130.62C109.947 130.56 109.889 130.471 109.87 130.37V114.76C109.873 114.642 109.921 114.53 110.005 114.448C110.089 114.366 110.202 114.32 110.32 114.32H122C122.106 114.326 122.207 114.373 122.28 114.45V114.45Z" fill="#F5F5F9"/>
<path d="M137.15 114.32C137.518 114.317 137.883 114.392 138.22 114.54C138.88 114.811 139.405 115.332 139.68 115.99C139.828 116.323 139.903 116.685 139.9 117.05V130.27C139.903 130.327 139.894 130.384 139.874 130.437C139.854 130.49 139.824 130.539 139.784 130.58C139.745 130.621 139.698 130.654 139.645 130.676C139.593 130.699 139.537 130.71 139.48 130.71H136.17C136.053 130.71 135.941 130.664 135.859 130.581C135.776 130.499 135.73 130.387 135.73 130.27V126.07C135.731 125.955 135.688 125.844 135.61 125.76C135.572 125.715 135.524 125.68 135.471 125.658C135.417 125.635 135.358 125.626 135.3 125.63H130.73C130.612 125.63 130.499 125.676 130.415 125.758C130.331 125.84 130.283 125.952 130.28 126.07V126.07V130.27C130.294 130.372 130.268 130.476 130.206 130.558C130.144 130.64 130.052 130.695 129.95 130.71H126.6C126.55 130.718 126.499 130.717 126.449 130.705C126.4 130.694 126.354 130.673 126.313 130.643C126.272 130.613 126.237 130.575 126.211 130.532C126.184 130.488 126.167 130.44 126.16 130.39C126.15 130.351 126.15 130.309 126.16 130.27V117.06C126.159 116.696 126.231 116.336 126.37 116C126.5 115.659 126.702 115.348 126.96 115.09C127.224 114.838 127.532 114.638 127.87 114.5C128.203 114.352 128.565 114.277 128.93 114.28L137.15 114.32ZM135.75 122.13V118H130.24V122.12L135.75 122.13Z" fill="#F5F5F9"/>
<path d="M157.2 121.9C157.242 121.942 157.274 121.992 157.295 122.047C157.316 122.102 157.324 122.161 157.32 122.22V128C157.322 128.365 157.247 128.726 157.1 129.06C156.959 129.394 156.763 129.702 156.52 129.97C156.261 130.228 155.951 130.429 155.61 130.56C155.274 130.699 154.914 130.77 154.55 130.77H146.25C145.89 130.771 145.533 130.701 145.2 130.564C144.867 130.427 144.564 130.225 144.31 129.97C144.055 129.716 143.853 129.413 143.716 129.08C143.579 128.747 143.509 128.39 143.51 128.03V117.13C143.51 116.766 143.581 116.406 143.72 116.07C143.843 115.727 144.041 115.416 144.3 115.16C144.562 114.911 144.867 114.711 145.2 114.57C145.539 114.427 145.902 114.353 146.27 114.35H156C156.119 114.35 156.234 114.397 156.318 114.482C156.403 114.566 156.45 114.681 156.45 114.8V117.89C156.45 118.009 156.403 118.124 156.318 118.208C156.234 118.293 156.119 118.34 156 118.34H148.15C148.032 118.338 147.918 118.381 147.83 118.46C147.747 118.542 147.701 118.654 147.7 118.77V126.36C147.7 126.416 147.712 126.472 147.735 126.523C147.757 126.575 147.789 126.621 147.83 126.66C147.872 126.701 147.923 126.732 147.978 126.753C148.033 126.774 148.091 126.783 148.15 126.78H152.79C152.843 126.783 152.895 126.775 152.945 126.757C152.994 126.74 153.04 126.712 153.079 126.677C153.118 126.642 153.149 126.599 153.172 126.552C153.195 126.504 153.207 126.453 153.21 126.4V122.26C153.207 122.203 153.216 122.146 153.236 122.093C153.256 122.04 153.286 121.991 153.326 121.95C153.365 121.909 153.412 121.876 153.464 121.854C153.517 121.831 153.573 121.82 153.63 121.82H156.91C157.013 121.811 157.116 121.839 157.2 121.9V121.9Z" fill="#F5F5F9"/>
<path d="M174.49 114.45C174.573 114.532 174.619 114.643 174.62 114.76V128C174.619 128.366 174.541 128.727 174.39 129.06C174.253 129.396 174.057 129.704 173.81 129.97C173.551 130.228 173.241 130.429 172.9 130.56C172.561 130.699 172.197 130.771 171.83 130.77H163.53C163.166 130.77 162.806 130.699 162.47 130.56C161.808 130.284 161.281 129.76 161 129.1C160.861 128.761 160.789 128.397 160.79 128.03V114.76C160.776 114.658 160.802 114.554 160.864 114.472C160.926 114.389 161.018 114.335 161.12 114.32H164.47C164.572 114.306 164.676 114.332 164.758 114.394C164.84 114.456 164.895 114.548 164.91 114.65C164.92 114.686 164.92 114.724 164.91 114.76V126.32C164.908 126.378 164.918 126.436 164.941 126.489C164.963 126.543 164.997 126.591 165.04 126.63C165.128 126.709 165.242 126.752 165.36 126.75H170C170.055 126.751 170.11 126.741 170.162 126.72C170.213 126.699 170.26 126.669 170.3 126.63C170.343 126.591 170.376 126.543 170.397 126.489C170.418 126.435 170.426 126.377 170.42 126.32V114.76C170.423 114.642 170.471 114.53 170.555 114.448C170.639 114.366 170.752 114.32 170.87 114.32H174.13C174.196 114.309 174.264 114.315 174.327 114.338C174.39 114.361 174.446 114.399 174.49 114.45V114.45Z" fill="#F5F5F9"/>
<path d="M190.73 114.45C190.813 114.532 190.859 114.643 190.86 114.76V117.71C190.862 117.768 190.852 117.826 190.829 117.879C190.807 117.933 190.773 117.981 190.73 118.02C190.642 118.099 190.528 118.142 190.41 118.14H182.56C182.547 118.137 182.533 118.137 182.52 118.139C182.507 118.142 182.494 118.147 182.483 118.154C182.472 118.162 182.462 118.172 182.455 118.183C182.447 118.194 182.442 118.207 182.44 118.22V120.81C182.44 120.87 182.44 120.9 182.56 120.9H189.26C189.316 120.899 189.372 120.91 189.424 120.932C189.476 120.954 189.522 120.988 189.56 121.03C189.638 121.114 189.681 121.225 189.68 121.34V123.69C189.681 123.805 189.638 123.916 189.56 124C189.522 124.042 189.476 124.075 189.424 124.098C189.372 124.12 189.316 124.131 189.26 124.13H182.56C182.534 124.127 182.507 124.133 182.485 124.148C182.463 124.162 182.447 124.184 182.44 124.21V126.78C182.437 126.793 182.437 126.807 182.439 126.82C182.442 126.833 182.447 126.846 182.454 126.857C182.462 126.868 182.472 126.878 182.483 126.885C182.494 126.893 182.507 126.898 182.52 126.9H190.41C190.526 126.9 190.637 126.944 190.721 127.025C190.805 127.105 190.855 127.214 190.86 127.33V130.33C190.86 130.445 190.815 130.555 190.735 130.638C190.654 130.72 190.545 130.767 190.43 130.77H178.77C178.719 130.779 178.668 130.777 178.618 130.766C178.568 130.754 178.52 130.733 178.479 130.703C178.437 130.674 178.401 130.636 178.374 130.592C178.347 130.549 178.328 130.501 178.32 130.45C178.31 130.411 178.31 130.369 178.32 130.33V114.76C178.323 114.642 178.371 114.53 178.455 114.448C178.539 114.366 178.652 114.32 178.77 114.32H190.41C190.47 114.318 190.529 114.328 190.584 114.351C190.639 114.373 190.689 114.407 190.73 114.45V114.45Z" fill="#F5F5F9"/>
<path d="M215.88 114.32C215.937 114.317 215.994 114.326 216.047 114.346C216.1 114.366 216.149 114.396 216.19 114.436C216.231 114.475 216.264 114.522 216.286 114.574C216.309 114.627 216.32 114.683 216.32 114.74V130.28C216.321 130.337 216.311 130.394 216.29 130.448C216.269 130.501 216.238 130.549 216.198 130.59C216.158 130.631 216.11 130.664 216.057 130.686C216.004 130.709 215.947 130.72 215.89 130.72H212.62C212.502 130.72 212.389 130.674 212.305 130.592C212.221 130.509 212.173 130.398 212.17 130.28V124.83C212.173 124.777 212.165 124.725 212.147 124.675C212.13 124.626 212.102 124.58 212.067 124.541C212.032 124.502 211.989 124.47 211.942 124.448C211.894 124.425 211.843 124.413 211.79 124.41H207.12C207.002 124.406 206.887 124.449 206.8 124.53C206.755 124.568 206.72 124.615 206.698 124.669C206.675 124.723 206.666 124.782 206.67 124.84V130.29C206.684 130.392 206.658 130.496 206.596 130.578C206.534 130.66 206.442 130.715 206.34 130.73C206.304 130.74 206.266 130.74 206.23 130.73H203C202.898 130.744 202.794 130.718 202.712 130.656C202.629 130.594 202.575 130.502 202.56 130.4C202.55 130.364 202.55 130.326 202.56 130.29V114.76C202.546 114.658 202.572 114.554 202.634 114.472C202.696 114.389 202.788 114.335 202.89 114.32H206.24C206.342 114.306 206.446 114.332 206.528 114.394C206.61 114.456 206.665 114.548 206.68 114.65C206.69 114.686 206.69 114.724 206.68 114.76V120C206.666 120.102 206.692 120.206 206.754 120.288C206.816 120.37 206.908 120.425 207.01 120.44H211.76C211.817 120.444 211.875 120.435 211.928 120.415C211.982 120.394 212.03 120.362 212.07 120.32C212.149 120.232 212.192 120.118 212.19 120V114.75C212.193 114.632 212.241 114.52 212.325 114.438C212.409 114.356 212.522 114.31 212.64 114.31H215.89L215.88 114.32Z" fill="#F5F5F9"/>
<path d="M231.06 114.32C231.428 114.317 231.793 114.392 232.13 114.54C232.79 114.811 233.315 115.332 233.59 115.99C233.738 116.323 233.813 116.685 233.81 117.05V130.27C233.813 130.327 233.804 130.384 233.784 130.437C233.764 130.49 233.734 130.539 233.694 130.58C233.655 130.621 233.608 130.654 233.556 130.676C233.503 130.698 233.447 130.71 233.39 130.71H230.11C229.993 130.71 229.881 130.664 229.799 130.581C229.716 130.499 229.67 130.387 229.67 130.27V126.07C229.671 125.955 229.628 125.844 229.55 125.76C229.512 125.715 229.465 125.68 229.411 125.658C229.357 125.635 229.298 125.626 229.24 125.63H224.59C224.473 125.63 224.361 125.676 224.279 125.759C224.196 125.841 224.15 125.953 224.15 126.07V130.27C224.164 130.372 224.138 130.476 224.076 130.558C224.014 130.64 223.922 130.695 223.82 130.71H220.47C220.419 130.719 220.368 130.717 220.318 130.706C220.268 130.694 220.22 130.673 220.179 130.643C220.137 130.614 220.101 130.576 220.074 130.532C220.047 130.489 220.029 130.441 220.02 130.39V117.06C220.019 116.696 220.091 116.336 220.23 116C220.361 115.658 220.562 115.348 220.82 115.09C221.085 114.84 221.393 114.64 221.73 114.5C222.064 114.354 222.425 114.279 222.79 114.28L231.06 114.32ZM229.66 122.13V118H224.15V122.12L229.66 122.13Z" fill="#F5F5F9"/>
<path d="M241.68 118.42C241.638 118.46 241.606 118.508 241.585 118.562C241.565 118.615 241.556 118.673 241.56 118.73V126.32C241.556 126.377 241.565 126.435 241.585 126.488C241.606 126.542 241.638 126.59 241.68 126.63C241.768 126.709 241.882 126.752 242 126.75H249.53C249.587 126.747 249.644 126.756 249.697 126.776C249.75 126.796 249.799 126.826 249.84 126.866C249.881 126.905 249.914 126.952 249.936 127.004C249.959 127.057 249.97 127.113 249.97 127.17V130.29C249.973 130.347 249.964 130.404 249.944 130.457C249.924 130.51 249.894 130.559 249.854 130.6C249.815 130.641 249.768 130.674 249.715 130.696C249.663 130.719 249.607 130.73 249.55 130.73H240.18C239.816 130.732 239.456 130.66 239.12 130.52C238.779 130.389 238.468 130.188 238.21 129.93C237.702 129.388 237.419 128.673 237.42 127.93V117.07C237.418 116.706 237.49 116.346 237.63 116.01C237.753 115.667 237.951 115.356 238.21 115.1C238.474 114.848 238.782 114.648 239.12 114.51C239.453 114.362 239.815 114.287 240.18 114.29H249.53C249.645 114.29 249.755 114.335 249.838 114.415C249.92 114.496 249.967 114.605 249.97 114.72V117.83C249.973 117.945 249.93 118.057 249.852 118.141C249.773 118.225 249.665 118.275 249.55 118.28H242C241.94 118.281 241.881 118.294 241.826 118.318C241.771 118.342 241.721 118.376 241.68 118.42V118.42Z" fill="#F5F5F9"/>
<path d="M263 121.23C262.98 121.252 262.969 121.28 262.969 121.31C262.969 121.339 262.98 121.368 263 121.39L268.44 130.39C268.47 130.429 268.486 130.476 268.486 130.525C268.486 130.574 268.47 130.621 268.44 130.66C268.412 130.699 268.374 130.73 268.33 130.749C268.286 130.768 268.238 130.775 268.19 130.77H264.29C264.159 130.769 264.031 130.731 263.92 130.66C263.802 130.6 263.704 130.506 263.64 130.39L260.13 124C260.13 123.91 260.04 123.91 260.01 124L258.07 126.13C257.979 126.227 257.911 126.343 257.87 126.47C257.819 126.597 257.791 126.733 257.79 126.87V130.34C257.802 130.443 257.775 130.546 257.713 130.63C257.652 130.713 257.562 130.77 257.46 130.79H254.18C254.078 130.804 253.974 130.778 253.892 130.716C253.809 130.654 253.755 130.562 253.74 130.46C253.73 130.421 253.73 130.379 253.74 130.34V114.76C253.726 114.658 253.752 114.554 253.814 114.472C253.876 114.389 253.968 114.335 254.07 114.32H257.42C257.522 114.306 257.626 114.332 257.708 114.394C257.79 114.456 257.845 114.548 257.86 114.65C257.87 114.686 257.87 114.724 257.86 114.76V121.76L263.91 114.68C263.979 114.574 264.067 114.483 264.17 114.41C264.295 114.351 264.432 114.32 264.57 114.32H268.46C268.59 114.32 268.66 114.32 268.69 114.41C268.72 114.5 268.69 114.56 268.61 114.65L263 121.23Z" fill="#F5F5F9"/>
<path d="M275.65 130.28C275.659 130.33 275.657 130.381 275.645 130.43C275.634 130.48 275.613 130.526 275.583 130.567C275.553 130.608 275.515 130.643 275.472 130.669C275.428 130.695 275.38 130.713 275.33 130.72H272C271.949 130.729 271.898 130.727 271.848 130.716C271.798 130.704 271.75 130.683 271.709 130.653C271.667 130.624 271.631 130.586 271.604 130.542C271.577 130.499 271.558 130.451 271.55 130.4V114.76C271.536 114.658 271.562 114.554 271.624 114.472C271.686 114.389 271.778 114.335 271.88 114.32H275.23C275.332 114.306 275.436 114.332 275.518 114.394C275.6 114.456 275.655 114.548 275.67 114.65C275.68 114.686 275.68 114.724 275.67 114.76L275.65 130.28Z" fill="#F5F5F9"/>
<path d="M291.4 114.54C292.055 114.817 292.578 115.336 292.86 115.99C293.004 116.324 293.076 116.686 293.07 117.05V130.27C293.073 130.327 293.064 130.384 293.044 130.437C293.024 130.49 292.994 130.539 292.954 130.58C292.915 130.621 292.868 130.654 292.815 130.676C292.763 130.699 292.707 130.71 292.65 130.71H289.41C289.353 130.714 289.295 130.705 289.242 130.685C289.188 130.664 289.14 130.632 289.1 130.59C289.021 130.502 288.978 130.388 288.98 130.27V118.72C288.984 118.662 288.975 118.603 288.952 118.549C288.93 118.495 288.895 118.448 288.85 118.41C288.766 118.332 288.655 118.289 288.54 118.29H283.9C283.782 118.288 283.668 118.331 283.58 118.41C283.537 118.449 283.503 118.497 283.481 118.551C283.458 118.604 283.448 118.662 283.45 118.72V130.28C283.464 130.382 283.438 130.486 283.376 130.568C283.314 130.65 283.222 130.705 283.12 130.72H279.77C279.669 130.734 279.567 130.709 279.485 130.649C279.403 130.59 279.347 130.5 279.33 130.4C279.32 130.361 279.32 130.319 279.33 130.28V114.76C279.316 114.658 279.342 114.554 279.404 114.472C279.466 114.389 279.558 114.335 279.66 114.32H290.37C290.725 114.318 291.077 114.393 291.4 114.54V114.54Z" fill="#F5F5F9"/>
<path d="M310.41 121.9C310.453 121.941 310.487 121.991 310.509 122.046C310.532 122.101 310.542 122.16 310.54 122.22V128C310.539 128.366 310.461 128.727 310.31 129.06C310.177 129.398 309.98 129.707 309.73 129.97C309.473 130.231 309.163 130.432 308.82 130.56C308.484 130.7 308.124 130.772 307.76 130.77H299.46C299.096 130.77 298.736 130.699 298.4 130.56C297.904 130.343 297.484 129.984 297.192 129.528C296.901 129.073 296.75 128.541 296.76 128V117.11C296.763 116.727 296.845 116.35 297 116C297.125 115.661 297.323 115.354 297.58 115.1C297.844 114.848 298.152 114.648 298.49 114.51C298.823 114.362 299.185 114.287 299.55 114.29H309.23C309.347 114.29 309.459 114.336 309.541 114.419C309.624 114.501 309.67 114.613 309.67 114.73V117.83C309.67 117.947 309.624 118.059 309.541 118.141C309.459 118.224 309.347 118.27 309.23 118.27H301.37C301.255 118.269 301.144 118.312 301.06 118.39C301.015 118.428 300.98 118.475 300.958 118.529C300.935 118.583 300.926 118.642 300.93 118.7V126.29C300.926 126.348 300.935 126.407 300.958 126.461C300.98 126.514 301.015 126.562 301.06 126.6C301.101 126.639 301.15 126.669 301.203 126.688C301.257 126.707 301.313 126.715 301.37 126.71H305.96C306.013 126.713 306.065 126.705 306.115 126.687C306.164 126.67 306.21 126.642 306.249 126.607C306.288 126.572 306.32 126.529 306.342 126.482C306.365 126.434 306.377 126.383 306.38 126.33V122.19C306.377 122.133 306.386 122.076 306.406 122.023C306.426 121.97 306.456 121.921 306.496 121.88C306.535 121.839 306.582 121.806 306.634 121.784C306.687 121.761 306.743 121.75 306.8 121.75H310.08C310.143 121.749 310.205 121.763 310.262 121.788C310.319 121.814 310.369 121.852 310.41 121.9V121.9Z" fill="#F5F5F9"/>
<path d="M98.85 1.40997C102.969 3.16566 106.249 6.44861 108 10.57C108.93 12.6741 109.411 14.9494 109.41 17.25V103.31C109.415 104.046 109.129 104.753 108.613 105.278C108.098 105.803 107.396 106.102 106.66 106.11H86C85.6392 106.125 85.2796 106.059 84.9475 105.917C84.6153 105.775 84.319 105.561 84.08 105.29C83.5811 104.746 83.3154 104.028 83.34 103.29V25.12H66.79V103.34C66.8094 104.077 66.5444 104.793 66.05 105.34C65.806 105.607 65.5074 105.819 65.1744 105.96C64.8413 106.102 64.4817 106.17 64.12 106.16H45.47C45.1049 106.165 44.7424 106.099 44.4031 105.964C44.0638 105.829 43.7543 105.629 43.4925 105.374C43.2306 105.12 43.0214 104.816 42.8769 104.481C42.7323 104.146 42.6552 103.785 42.65 103.42V25.12H26.07V103.34C26.1236 103.722 26.0874 104.112 25.9645 104.478C25.8416 104.844 25.6352 105.177 25.3616 105.449C25.0881 105.722 24.7549 105.927 24.3885 106.048C24.022 106.17 23.6322 106.205 23.25 106.15H2.82001C2.43779 106.205 2.04804 106.17 1.68156 106.048C1.31508 105.927 0.981914 105.722 0.708387 105.449C0.434859 105.177 0.22847 104.844 0.105529 104.478C-0.017413 104.112 -0.0535371 103.722 1.09989e-05 103.34V2.80997C-0.0535371 2.42756 -0.017413 2.03794 0.105529 1.67189C0.22847 1.30585 0.434859 0.973408 0.708387 0.70085C0.981914 0.428293 1.31508 0.223086 1.68156 0.101445C2.04804 -0.020195 2.43779 -0.0549347 2.82001 -2.85525e-05H92.11C94.431 -0.0104782 96.7279 0.470035 98.85 1.40997V1.40997Z" fill="#E73427"/>
<path d="M199.19 80.38C199.563 80.3722 199.933 80.442 200.277 80.5849C200.621 80.7278 200.932 80.9406 201.19 81.21C201.709 81.7643 201.989 82.5007 201.97 83.26V103.26C201.983 104.003 201.703 104.722 201.19 105.26C200.934 105.532 200.624 105.748 200.279 105.892C199.935 106.037 199.564 106.108 199.19 106.1H128.69C126.69 106.1 125.69 105.1 125.69 103.22V2.88C125.69 0.96 126.69 0 128.69 0H150.33C152.33 0 153.33 1 153.33 2.88V77.65C153.319 78.0308 153.395 78.4091 153.552 78.7558C153.71 79.1025 153.945 79.4085 154.24 79.65C154.822 80.1623 155.575 80.4371 156.35 80.42L199.19 80.38Z" fill="#1D539F"/>
<path d="M307.54 -3.57736e-05C307.935 -0.0109561 308.328 0.0577976 308.696 0.20212C309.063 0.346443 309.398 0.563375 309.68 0.839964C309.967 1.09894 310.196 1.41523 310.353 1.76836C310.509 2.12149 310.59 2.5036 310.59 2.88996V103.57C310.59 103.956 310.509 104.338 310.353 104.692C310.196 105.045 309.967 105.361 309.68 105.62C309.398 105.897 309.063 106.113 308.696 106.258C308.328 106.402 307.935 106.471 307.54 106.46H285.62C285.227 106.47 284.836 106.401 284.47 106.257C284.104 106.112 283.77 105.896 283.49 105.62C283.2 105.364 282.968 105.048 282.811 104.694C282.654 104.341 282.575 103.957 282.58 103.57V68.44C282.597 68.0698 282.535 67.7002 282.399 67.3555C282.263 67.0109 282.055 66.6989 281.79 66.44C281.516 66.1832 281.194 65.9837 280.842 65.8532C280.49 65.7227 280.115 65.6638 279.74 65.68H249C248.219 65.655 247.458 65.9266 246.87 66.44C246.576 66.682 246.341 66.988 246.184 67.3346C246.026 67.6812 245.949 68.0593 245.96 68.44V103.57C245.96 105.49 244.96 106.46 242.96 106.46H221.2C219.2 106.46 218.2 105.46 218.2 103.57V2.88996C218.2 0.959964 219.2 -3.57736e-05 221.2 -3.57736e-05H243C245 -3.57736e-05 246 0.999964 246 2.88996V37C246 38.92 247 39.88 249 39.88H279.81C280.192 39.8931 280.573 39.826 280.928 39.683C281.283 39.5401 281.604 39.3244 281.87 39.05C282.377 38.5075 282.66 37.7927 282.66 37.05V2.88996C282.655 2.50387 282.733 2.12123 282.888 1.76768C283.044 1.41413 283.273 1.09783 283.56 0.839964C284.109 0.299108 284.849 -0.00283065 285.62 -3.57736e-05H307.54Z" fill="#F8B92A"/>
</g>
<defs>
<clipPath id="clip0">
<rect width="310.59" height="130.78" fill="white"/>
</clipPath>
</defs>
</svg>
