<?xml version="1.0" encoding="utf-8"?>
<!-- Generator: Adobe Illustrator 19.0.0, SVG Export Plug-In . SVG Version: 6.00 Build 0)  -->
<svg version="1.1" id="Layer_1" xmlns="http://www.w3.org/2000/svg" xmlns:xlink="http://www.w3.org/1999/xlink" x="0px" y="0px"
	 viewBox="0 0 500 500" style="enable-background:new 0 0 500 500;" xml:space="preserve">
<style type="text/css">
	.st0{fill:#781F19;}
	.st1{fill:#D6A64F;}
	.st2{fill:#FFFFFF;}
	.st3{fill:#1F1917;}
	.st4{fill:#BDA345;}
	.st5{fill:#D9261C;}
</style>
<g id="XMLID_1_">
	<path id="XMLID_2_" class="st0" d="M432.5,250c0,100.8-81.7,182.5-182.5,182.5c-100.8,0-182.5-81.7-182.5-182.5
		c0-100.8,81.7-182.5,182.5-182.5C350.8,67.5,432.5,149.2,432.5,250"/>
	<path id="XMLID_3_" class="st1" d="M390.8,250c0,77.8-63.1,140.8-140.8,140.8c-77.8,0-140.8-63.1-140.8-140.8
		c0-77.8,63.1-140.8,140.8-140.8C327.8,109.2,390.8,172.2,390.8,250"/>
	<path id="XMLID_4_" class="st2" d="M390.8,250h-0.5c0,38.8-15.7,73.9-41.1,99.3c-25.4,25.4-60.5,41.1-99.3,41.1
		c-38.8,0-73.9-15.7-99.3-41.1c-25.4-25.4-41.1-60.5-41.1-99.3c0-38.8,15.7-73.9,41.1-99.3c25.4-25.4,60.5-41.1,99.3-41.1
		c38.8,0,73.9,15.7,99.3,41.1c25.4,25.4,41.1,60.5,41.1,99.3H390.8h0.5c0-78-63.3-141.3-141.3-141.3c-78,0-141.3,63.3-141.3,141.3
		c0,78,63.3,141.3,141.3,141.3c78,0,141.3-63.3,141.3-141.3H390.8z"/>
	<polyline id="XMLID_5_" class="st2" points="128,371.2 143.2,355.7 146.7,359.2 131.5,374.6 128,371.2 	"/>
	<path id="XMLID_6_" class="st2" d="M138.7,351.4l-16.8,13.6l-3.6-4.5l3.3-8.5c1-2.4,2.3-5.1,3.5-7.4l0-0.1c-2,2-4.3,3.9-6.8,6
		l-4.9,4l-2.8-3.5l16.8-13.6l3.2,4l-3.6,8.9c-1,2.5-2.3,5.3-3.6,7.7l0.1,0.1c2.2-1.9,4.5-3.9,7.2-6.1l5.1-4.1L138.7,351.4"/>
	<path id="XMLID_7_" class="st2" d="M118.3,330c-0.1-0.4-0.5-1-0.8-1.5c-2.2-3.9-5.8-5.2-10.3-2.6c-4,2.3-4.7,5.7-2.6,9.4
		c0.5,0.9,1,1.5,1.3,1.8L118.3,330L118.3,330z M105.4,343c-1.2-1.4-2.5-3.4-3.7-5.5c-2.1-3.6-2.8-6.3-2.5-8.8c0.3-2.8,2-5.4,5.3-7.3
		c3.6-2.1,6.8-2.2,9.4-1.3c2.8,1,5.3,3.6,7.4,7.3c1.3,2.2,2,3.9,2.5,5L105.4,343"/>
	<polyline id="XMLID_10_" class="st2" points="90.7,314.9 110.6,306.4 112.5,310.9 92.6,319.4 90.7,314.9 	"/>
	<path id="XMLID_11_" class="st2" d="M96.4,293.2l-4,2.6c-1.1,0.7-2.6,1.5-3.7,2.2l0,0.1c1.3-0.1,3-0.2,4.3-0.3l4.8,0L96.4,293.2
		L96.4,293.2z M101.5,297.4l5.8-0.1l1.4,4.9L86,302l-1.8-6.1l18.9-12.6l1.5,5.1l-4.9,3.2L101.5,297.4"/>
	<path id="XMLID_14_" class="st2" d="M102.1,278.5l-21.5,2.8l-0.7-5.7l7.3-5.5c2.1-1.6,4.6-3.2,6.9-4.5l0-0.1
		c-2.8,0.7-5.7,1.1-8.9,1.6l-6.2,0.8l-0.6-4.5l21.5-2.8l0.7,5.1l-7.7,5.7c-2.2,1.6-4.7,3.4-7.1,4.7l0,0.1c2.8-0.5,5.9-1,9.4-1.4
		l6.5-0.8L102.1,278.5"/>
	<polyline id="XMLID_15_" class="st2" points="78.3,240.3 99.9,241.2 99.7,246.1 78.1,245.2 78.3,240.3 	"/>
	<path id="XMLID_16_" class="st2" d="M100.2,235l-21.4-3.4l0.9-5.6l8.5-3.2c2.5-0.9,5.3-1.7,7.9-2.3l0-0.1c-2.9-0.2-5.8-0.5-9-1
		l-6.2-1l0.7-4.4l21.4,3.4l-0.8,5.1l-9,3.3c-2.5,0.9-5.5,1.9-8.1,2.5l0,0.1c2.9,0.3,5.9,0.7,9.4,1.3l6.4,1L100.2,235"/>
	<path id="XMLID_17_" class="st2" d="M99.9,209.6c1-1,2.3-2.8,2.9-4.8c0.7-2.1,0.1-3.6-1.2-4c-1.3-0.4-2.3,0.3-4,2.6
		c-2.3,3-4.9,4.7-7.9,3.8c-3.5-1.1-5.3-4.9-3.7-9.8c0.7-2.4,1.7-3.9,2.7-4.9l3.4,2.2c-0.6,0.7-1.7,2-2.3,4c-0.6,2,0,3.3,1.1,3.6
		c1.3,0.4,2.3-0.5,4.1-2.9c2.5-3.2,4.9-4.3,7.9-3.4c3.5,1.1,5.6,4.6,3.8,10.3c-0.7,2.4-2.1,4.5-3.1,5.5L99.9,209.6"/>
	<polyline id="XMLID_18_" class="st2" points="96.6,181.8 94.1,187.1 90.4,185.4 97.4,170.3 101.1,172 98.6,177.4 114.5,184.8 
		112.5,189.2 96.6,181.8 	"/>
	<polyline id="XMLID_19_" class="st2" points="103.3,160.2 121.9,171.3 119.4,175.5 100.8,164.4 103.3,160.2 	"/>
	<polyline id="XMLID_20_" class="st2" points="113.6,152.2 110.1,156.9 106.8,154.4 116.7,141 120,143.5 116.5,148.2 130.6,158.7 
		127.7,162.6 113.6,152.2 	"/>
	<path id="XMLID_21_" class="st2" d="M125.1,131.8l8.8,8.8c2.7,2.6,5,3,6.8,1.2c1.8-1.8,1.5-4.1-1.2-6.8l-8.8-8.8l3.4-3.5l8.6,8.6
		c4.7,4.7,4.6,9.3,0.7,13.4c-3.8,3.9-8.3,4-13.1-0.9l-8.6-8.5L125.1,131.8"/>
	<polyline id="XMLID_22_" class="st2" points="147,117.4 142.4,120.9 139.9,117.7 153.2,107.6 155.7,110.9 150.9,114.5 161.5,128.5 
		157.6,131.4 147,117.4 	"/>
	<polyline id="XMLID_23_" class="st2" points="176.7,108.2 169.8,112.1 172.4,116.6 180.1,112.2 182.1,115.7 170.1,122.5 
		159.4,103.7 171,97.1 172.9,100.6 165.6,104.8 167.8,108.7 174.8,104.7 176.7,108.2 	"/>
	<path id="XMLID_24_" class="st2" d="M202.4,103.7c3.1-1,4-4.6,2.7-8.6c-1.2-3.7-4-6.3-7.2-5.3c-3.2,1-4,4.7-2.7,8.6
		C196.4,102.3,199.3,104.7,202.4,103.7L202.4,103.7L202.4,103.7z M203.4,107.4c-6.1,2-11.2-1.5-13.1-7.3c-2-6.2,0.5-12.1,6.5-14
		c6.3-2.1,11.3,1.6,13.2,7.2C212.2,100.1,209.5,105.5,203.4,107.4L203.4,107.4"/>
	<polyline id="XMLID_27_" class="st2" points="215,81.5 228,79.3 228.6,83.3 220.4,84.7 221.3,89.5 228.9,88.2 229.6,92.2 
		221.9,93.5 223.4,102.1 218.6,102.9 215,81.5 	"/>
	<polyline id="XMLID_28_" class="st2" points="250.1,82.1 244.3,82 244.3,77.9 261,78.2 260.9,82.3 255,82.2 254.7,99.8 249.8,99.7 
		250.1,82.1 	"/>
	<polyline id="XMLID_29_" class="st2" points="279.2,93.1 271.3,92 270.6,97 279.4,98.3 278.8,102.3 265.2,100.3 268.3,78.9 
		281.5,80.8 280.9,84.8 272.5,83.6 271.9,88 279.8,89.1 279.2,93.1 	"/>
	<path id="XMLID_30_" class="st2" d="M299.4,107.2c-0.9,0.2-3.1,0.1-5.6-0.6c-7.2-2-9.6-7.6-7.9-13.6c2-7.1,8.2-9.6,14.5-7.8
		c2.4,0.7,4.2,1.7,4.9,2.4l-2,3.4c-0.8-0.7-2-1.4-3.7-1.9c-3.7-1.1-7.3,0.4-8.6,5c-1.2,4.2,0.5,7.5,4.7,8.7c1.5,0.4,3.1,0.6,4.2,0.4
		L299.4,107.2"/>
	<polyline id="XMLID_31_" class="st2" points="317.6,91.8 314.2,99.4 321.5,102.8 325,95.2 329.4,97.2 320.4,116.9 316,114.9 
		319.7,106.7 312.4,103.3 308.6,111.5 304.2,109.5 313.2,89.8 317.6,91.8 	"/>
	<path id="XMLID_32_" class="st2" d="M325.9,119.9l12-18l4.8,3.2l-0.7,9.1c-0.2,2.6-0.7,5.6-1.2,8.1l0.1,0c1.3-2.5,2.9-5,4.7-7.8
		l3.5-5.2l3.7,2.5l-12,18l-4.3-2.9l0.8-9.5c0.2-2.7,0.6-5.8,1.1-8.4l-0.1-0.1c-1.5,2.5-3.1,5.1-5.1,8l-3.6,5.4L325.9,119.9"/>
	<path id="XMLID_33_" class="st2" d="M355,137.6c2.4,2.3,5.9,1.3,8.8-1.8c2.7-2.8,3.6-6.5,1.1-8.8c-2.5-2.3-6.1-1.2-8.9,1.8
		C353.3,131.6,352.5,135.3,355,137.6L355,137.6L355,137.6z M352.1,140.2c-4.7-4.4-4.1-10.5,0.1-15c4.4-4.7,10.8-5.4,15.4-1.1
		c4.9,4.5,4.1,10.7,0,15C362.8,144.4,356.8,144.6,352.1,140.2L352.1,140.2"/>
	<polyline id="XMLID_36_" class="st2" points="380.4,137.7 383.4,141.5 369.7,152.5 375.1,159.2 371.9,161.8 363.5,151.3 
		380.4,137.7 	"/>
	<path id="XMLID_37_" class="st2" d="M382,170.9c1.7,2.8,5.4,2.9,9,0.7c3.3-2,5.3-5.3,3.5-8.2c-1.7-2.9-5.5-2.8-9-0.7
		C382,164.8,380.3,168.1,382,170.9L382,170.9L382,170.9z M378.5,172.8c-3.3-5.5-1.1-11.2,4.2-14.4c5.6-3.3,11.9-2.3,15.2,3.2
		c3.4,5.7,1,11.4-4.1,14.5C387.7,179.7,381.8,178.2,378.5,172.8L378.5,172.8"/>
	<path id="XMLID_40_" class="st2" d="M394.1,202.8c-1-1.2-2.7-3.6-3.8-6.3c-1.5-3.7-1.6-6.7-0.6-9.3c1-2.5,3.3-4.6,6.2-5.8
		c6.7-2.6,12.5,0.7,15.1,7.3c1,2.6,1.3,4.8,1.3,6l-4.1,0.5c0.1-1.3-0.1-2.8-1-5c-1.5-3.8-4.8-5.8-9.2-4.1c-4.2,1.7-5.6,5.2-4.1,9
		c0.4,1,0.9,1.8,1.1,2.1l4.2-1.7l-1.2-3.1l3.6-1.4l3,7.5L394.1,202.8"/>
	<path id="XMLID_41_" class="st2" d="M395.9,213.6l8.6-2l10.9-9.5l1.3,5.5l-4.6,3.3c-1.4,1-2.4,1.7-3.7,2.6l0,0.1
		c1.4,0.2,2.8,0.4,4.4,0.7l5.6,1l1.2,5.4l-13.9-4.1l-8.8,2L395.9,213.6"/>
	<path id="XMLID_42_" class="st2" d="M408.7,256.2c2.6-0.1,5.7-0.3,8.9-0.3v-0.1c-2.8-0.7-5.9-1.5-8.4-2.3l-8.5-2.5l-0.1-3.8
		l8.3-2.4c2.6-0.7,5.6-1.5,8.5-2.1v-0.1c-2.9-0.1-6.3-0.1-9-0.2l-8.2-0.3l-0.1-4.5l21.7,1l0.1,6.5l-7.2,2.2c-2.5,0.7-5.2,1.4-7.7,2
		v0.1c2.5,0.5,5.4,1.2,7.8,1.9l7.2,2.2l0.1,6.4l-21.6,1.5l-0.1-4.8L408.7,256.2"/>
	<path id="XMLID_43_" class="st2" d="M406.9,279l4.8-0.6c1.3-0.1,3-0.2,4.3-0.3l0-0.1c-1.2-0.5-2.8-1.1-4-1.6l-4.3-2.1L406.9,279
		L406.9,279z M404.2,273l-5.2-2.4l0.9-5l20.2,10.2L419,282l-22.5,3l0.9-5.2l5.8-0.7L404.2,273"/>
	<path id="XMLID_46_" class="st2" d="M397.2,295.5c-0.2,0.4-0.5,1-0.6,1.6c-1.5,4.2-0.1,7.8,4.8,9.4c4.4,1.5,7.4-0.3,8.7-4.3
		c0.3-1,0.5-1.7,0.5-2.2L397.2,295.5L397.2,295.5z M415.5,296.6c-0.3,1.8-0.9,4.1-1.7,6.4c-1.3,3.9-2.8,6.3-5,7.7
		c-2.3,1.6-5.3,2.1-9,0.8c-3.9-1.3-6.1-3.7-7.2-6.2c-1.1-2.8-0.8-6.4,0.6-10.4c0.8-2.4,1.6-4.1,2.1-5.2L415.5,296.6"/>
	<path id="XMLID_49_" class="st2" d="M395.4,322.4l-0.9,1.7c-1.1,2.2-0.7,4,1,4.9c1.7,0.9,3.3,0.2,4.3-1.8c0.5-1.1,0.8-1.7,0.9-2
		L395.4,322.4L395.4,322.4z M405.8,322.4c-0.5,1.5-1.4,3.7-2.6,6c-1.5,2.9-2.9,4.6-4.8,5.4c-1.5,0.7-3.2,0.6-5-0.3
		c-2.4-1.3-3.2-3.9-2.9-5.8l-0.1,0c-1.2,1.1-2.9,1.1-4.9,0.7c-2.5-0.5-5.3-1.3-6.2-1.3l2.3-4.4c0.7,0,2.5,0.3,5.2,1
		c2.7,0.7,3.8,0.2,4.7-1.6l0.7-1.3l-7.6-3.9l2.2-4.3L405.8,322.4"/>
	<path id="XMLID_52_" class="st2" d="M378.1,345.2l4.5,1.6c1.2,0.5,2.8,1.1,4,1.6l0.1-0.1c-0.9-1-2-2.2-2.8-3.2l-3-3.8L378.1,345.2z
		 M378.3,338.6l-3.6-4.5l3-4.1l13.7,18.1l-3.8,5.2l-21.5-7.2l3.1-4.3l5.5,1.9L378.3,338.6"/>
	<path id="XMLID_55_" class="st2" d="M366.3,353.1c-1.4,0.5-3.3,1.5-4.7,3c-1.6,1.6-1.7,3.1-0.7,4.1c0.9,0.9,2.2,0.7,4.7-0.5
		c3.4-1.7,6.5-2,8.8,0.2c2.7,2.6,2.5,6.7-1,10.4c-1.7,1.8-3.3,2.7-4.6,3.2l-2.1-3.5c0.9-0.3,2.4-1,3.9-2.5c1.5-1.5,1.5-3,0.7-3.7
		c-1-1-2.3-0.5-5,0.8c-3.7,1.8-6.3,1.7-8.6-0.5c-2.6-2.5-2.9-6.6,1.2-10.9c1.7-1.8,3.9-3.1,5.2-3.5L366.3,353.1"/>
	<path id="XMLID_56_" class="st2" d="M352,379c0,1.8-1.4,3.2-3.2,3.2c-1.8,0-3.2-1.4-3.2-3.2c0-1.8,1.4-3.2,3.2-3.2
		C350.5,375.8,352,377.2,352,379"/>
	<path id="XMLID_57_" class="st2" d="M154.4,379c0,1.8-1.4,3.2-3.2,3.2c-1.8,0-3.2-1.4-3.2-3.2c0-1.8,1.4-3.2,3.2-3.2
		C153,375.8,154.4,377.2,154.4,379"/>
	<polyline id="XMLID_58_" class="st2" points="173.4,336.2 224.6,345.4 219.1,351.8 269.3,356.1 264.3,360.2 313.9,362.4 
		248.3,368.9 256.5,361.6 204.5,356.3 213.2,349.9 173.4,336.2 	"/>
	<path id="XMLID_59_" class="st2" d="M167.5,380.7l4.5,2.6c0-0.9,0.1-1.7,0.3-2.5c0.2-0.8,0.5-1.5,0.9-2.2c0.6-1.1,1.6-1.7,2.9-2
		c1.3-0.3,2.5,0,3.7,0.7c1.5,0.9,2.7,2.4,3.7,4.7c1,2.3,1.6,5,1.8,8.1l-0.9,0.1c-0.2-2.3-0.8-4.3-1.7-6.1c-0.9-1.8-2.2-3.1-3.7-4
		c-0.8-0.5-1.8-0.5-2.8-0.1c-1,0.4-1.9,1.1-2.5,2.2c-0.5,0.8-0.7,1.3-0.8,1.7l1.8,1l0.3,2.8l-2.4-1.4l-8.3,14.2l-1.6-3.1l7.4-12.6
		l-2.3-1.3L167.5,380.7"/>
	<path id="XMLID_60_" class="st2" d="M179.2,392.5c-0.2,0.9-0.6,1.8-1,2.8c0.3,0.7,0.7,1.3,1.1,1.7c0.4,0.5,0.8,0.8,1.3,1.1
		c0.5,0.2,1,0.4,1.6,0.3c0.6,0,1.2-0.1,1.7-0.4l2.3-4.7l-6.7-3.3C179.5,390.8,179.5,391.6,179.2,392.5L179.2,392.5z M179.8,406.4
		l2.6-5.4c-0.2,0-0.5,0-0.8-0.1c-0.3-0.1-0.7-0.3-1.2-0.5c-0.7-0.3-1.3-0.9-1.9-1.7c-0.5-0.8-0.9-1.7-1.2-2.7
		c-0.6,0.6-1.3,1.1-2,1.4c-0.7,0.3-1.4,0.4-2.1,0.3c0.5,2.6,1.5,5.2,3,7.9l-1.8,0.8c-2.7-7.6-3.6-12.2-2.9-13.8
		c0.2-0.4,0.5-0.7,0.9-0.9c0.4-0.2,0.7-0.2,1,0c0.4,0.2,0.6,0.5,0.8,0.9c0.2,0.4,0.3,0.9,0.3,1.5c0.6,0,1.2-0.2,1.8-0.5
		c0.5-0.3,0.9-0.8,1.2-1.4c0.2-0.5,0.4-1,0.5-1.5c0.1-0.5,0.1-0.9,0-1.4l-5-2.4l-0.5-2.7l18.2,8.8l0.5,2.7l-2.5-1.2l-7.2,14.8
		L179.8,406.4"/>
	<path id="XMLID_63_" class="st2" d="M188.9,392.1l4.9,1.9c-0.1-0.8-0.2-1.7-0.1-2.5c0.1-0.8,0.3-1.6,0.5-2.3c0.5-1.2,1.3-2,2.5-2.4
		c1.2-0.4,2.5-0.4,3.8,0.1c1.6,0.6,3.1,2,4.4,4c1.3,2.1,2.3,4.6,3.1,7.7l-0.9,0.3c-0.6-2.2-1.4-4.1-2.6-5.7
		c-1.2-1.6-2.6-2.7-4.2-3.3c-0.9-0.4-1.8-0.3-2.8,0.3c-1,0.6-1.7,1.4-2.1,2.6c-0.3,0.8-0.5,1.4-0.5,1.8l1.9,0.7l0.7,2.7l-2.6-1
		l-6,15.3l-2.1-2.8l5.3-13.6l-2.5-1L188.9,392.1"/>
	<path id="XMLID_64_" class="st2" d="M198.6,414.1c0.2,0.3,0.5,0.6,0.9,0.7c0.8,0.2,1.7,0.2,2.6-0.1c0.9-0.3,1.7-0.9,2.4-1.7
		c-1.6-0.5-2.7-1-3.2-1.6c-0.7,0-1.3,0.1-1.8,0.4c-0.5,0.3-0.9,0.7-1,1.2C198.4,413.4,198.4,413.8,198.6,414.1L198.6,414.1z
		 M214.1,400.7l1,2.6l-3.2-1l-1.5,5l-7-2.1c-0.5-0.2-1.1-0.1-1.6,0.2c-0.5,0.3-0.8,0.8-1,1.3c-0.2,0.6-0.1,1.3,0.3,1.9
		c0.4,0.6,1,1,1.8,1.3l2.2,0.5c0-0.2,0-0.3-0.1-0.5c0-0.2,0-0.3,0-0.4c0.1-0.5,0.5-0.8,1-1c0.5-0.2,1.1-0.2,1.7,0
		c0.6,0.2,1.1,0.6,1.4,1.2c0.3,0.6,0.4,1.3,0.1,2c-0.1,0.5-0.4,0.8-0.9,1.1c-0.4,0.3-1,0.5-1.6,0.5l2.8,5.5l-1.7,0.6l-1.5-4.1
		c-0.9,0.7-1.9,1.2-2.9,1.4c-1,0.2-2,0.2-3-0.1c-1.1-0.3-2.2-1.1-3.1-2.2c-0.9-1.1-1.3-2-1.1-2.8c0.1-0.3,0.2-0.5,0.3-0.7
		c0.1-0.2,0.3-0.4,0.5-0.6c-1.2-0.5-2.1-1.1-2.7-2c-0.6-0.9-0.8-1.8-0.5-2.6c0.1-0.3,0.3-0.7,0.7-1.1c0.4-0.4,0.9-0.8,1.5-1.2
		l1.9,2.9c-0.4,0.2-0.8,0.4-1.1,0.6c-0.3,0.2-0.4,0.5-0.5,0.7c-0.1,0.3,0,0.7,0.3,1c0.3,0.4,0.7,0.6,1.2,0.8l1.8-0.6
		c-0.4-0.7-0.7-1.4-0.8-2.1c-0.1-0.8-0.1-1.5,0.1-2.2c0.3-0.8,0.9-1.4,1.8-1.8c1-0.4,2-0.4,3.2,0l4.1,1.2l0.7-2.5l-13.5-4l-1-2.6
		L214.1,400.7"/>
	<path id="XMLID_67_" class="st2" d="M215.6,404.5c0.4,0.5,1,0.9,1.8,1.1l0.6-3.1c0.1-0.3,0-0.7-0.1-0.9c-0.1-0.3-0.2-0.4-0.4-0.5
		c-0.6-0.1-1.1,0-1.5,0.3c-0.5,0.3-0.7,0.8-0.8,1.3C215,403.4,215.2,403.9,215.6,404.5L215.6,404.5z M221.5,402l9,1.6l1.2,2.5
		l-2.7-0.5l-2.9,16.2l-2.6-2.4l0.9-4.8l-5.3-1l-0.3,1.8c-0.1,0.4-0.3,0.7-0.5,1c-0.3,0.2-0.6,0.3-0.8,0.3c-0.9-0.2-1.8-0.9-2.6-2.3
		c-0.9-1.4-1.2-2.5-1.1-3.5c0-0.2,0.2-0.4,0.5-0.6c0.3-0.1,0.6-0.2,0.9-0.1l1.5,0.3l0.6-3.5c-1.4-0.7-2.5-1.5-3.2-2.7
		c-0.7-1.1-1-2.2-0.8-3.4c0.1-0.7,0.5-1.3,1.2-1.7c0.7-0.4,1.4-0.5,2.2-0.4c1.1,0.2,2.1,1,3,2.4c0.9,1.4,1.2,2.7,1,3.8l-1.1,5.9
		l5.3,1l1.3-7l-3.5-0.6L221.5,402"/>
	<path id="XMLID_70_" class="st2" d="M226.1,394.5c0.8-0.6,1.6-0.8,2.6-0.7c1,0.1,1.9,0.5,2.6,1.1c0.8,0.6,1.3,1.4,1.6,2.4l-0.6,0.5
		c-0.3-0.5-0.6-0.8-1-1.1c-0.4-0.3-0.8-0.4-1.2-0.5c-0.9-0.1-1.6,0.1-2.3,0.7c-0.7,0.5-1.1,1.2-1.2,2.1c-0.1,0.5,0,1,0.2,1.6
		c0.2,0.6,0.6,1.2,1,1.8l-0.8,0.5c-0.8-0.9-1.5-1.9-1.8-3c-0.4-1.1-0.5-2.1-0.4-3.2C224.8,395.8,225.3,395,226.1,394.5"/>
	<path id="XMLID_71_" class="st2" d="M233.1,415.9c0.4,0.4,1,0.7,1.7,0.7c0.9,0.1,1.9-0.1,3-0.5c1.1-0.4,2.1-0.9,3.2-1.7
		c-0.6-0.8-1.2-1.5-1.9-1.9c-0.7-0.5-1.4-0.7-2.1-0.8c-1.1-0.1-2.1,0.1-3,0.7c-0.8,0.5-1.3,1.2-1.3,2
		C232.5,415,232.6,415.5,233.1,415.9L233.1,415.9z M245.7,404.8l1.5,2.4l-2.8-0.2l-1.2,16.4l-2.8-2.1l0.3-3.7
		c-0.8,0.5-1.5,1-2.3,1.2c-0.8,0.3-1.5,0.4-2.3,0.3c-1.4-0.1-2.7-0.9-4.1-2.2c-1.3-1.4-1.9-2.7-1.8-4c0.1-1.1,0.6-2,1.6-2.7
		c1-0.7,2.1-1,3.4-0.9c1.1,0.1,2.2,0.5,3.3,1.2s1.9,1.6,2.6,2.8l0.5-6.5l-11.9-0.9l-1.5-2.4L245.7,404.8"/>
	<path id="XMLID_74_" class="st2" d="M243.9,404.6l5.2,0.1c-0.4-0.8-0.7-1.5-0.9-2.3c-0.2-0.8-0.3-1.6-0.3-2.4
		c0-1.2,0.5-2.3,1.5-3.1c1-0.8,2.2-1.3,3.6-1.2c1.7,0,3.6,0.8,5.5,2.3c2,1.5,3.8,3.5,5.6,6.1l-0.8,0.5c-1.3-1.9-2.8-3.4-4.5-4.4
		c-1.7-1.1-3.4-1.6-5.1-1.7c-1,0-1.8,0.4-2.5,1.3c-0.7,0.9-1.1,1.9-1.1,3.1c0,0.9,0,1.5,0.2,1.9l2,0l1.6,2.3l-2.8-0.1l-0.3,16.4
		l-2.9-1.9l0.2-14.5l-2.6,0L243.9,404.6"/>
	<path id="XMLID_75_" class="st2" d="M267.6,403.8l1.8,2.1l-2.8,0.2l1.1,16.4l-3.1-1.7l-0.5-8.2l-5.8,0.4c-0.5,0-0.9,0.3-1.3,0.8
		c-0.3,0.5-0.5,1.1-0.4,1.7c0.1,1,0.5,2.1,1.2,3.1c0.7,1.1,1.7,2.1,3,3l-1.1,1c-1.8-1.6-3.3-3.2-4.3-4.6c-1-1.5-1.6-2.7-1.7-3.8
		c-0.1-1.1,0.2-2,0.8-2.8c0.6-0.8,1.4-1.3,2.3-1.3l7.1-0.5l-0.2-3.4l-11.7,0.8l-1.8-2.1L267.6,403.8"/>
	<path id="XMLID_76_" class="st2" d="M279.2,413.3c0.4,0.3,0.9,0.4,1.4,0.3c0.8-0.2,1.5-0.5,2.2-1.1c0.7-0.6,1.3-1.3,1.7-2.2
		c-0.4-0.5-0.9-0.9-1.5-1.1c-0.6-0.2-1.1-0.3-1.6-0.2c-1,0.2-1.7,0.6-2.3,1.2c-0.6,0.6-0.8,1.2-0.7,1.9
		C278.5,412.7,278.8,413.1,279.2,413.3L279.2,413.3z M292.7,399.2l2.1,1.9l-8.8,1.8l1,4.9c0.3-0.5,0.6-0.9,1-1.2
		c0.4-0.3,0.9-0.5,1.5-0.6c1-0.2,2.2,0.3,3.5,1.6c1.3,1.3,2.1,2.6,2.4,4.1c0.1,0.7,0.1,1.4,0,2.2c-0.1,0.8-0.4,1.7-0.8,2.5l-2.8-1.7
		c0.6-0.9,1-1.7,1.2-2.5c0.2-0.8,0.3-1.5,0.2-2.2c-0.1-0.6-0.4-1.1-0.9-1.4c-0.5-0.3-1-0.5-1.6-0.3c-0.5,0.1-1,0.4-1.6,0.9
		c-0.5,0.5-1,1.2-1.5,2l1.6,7.9l-3.3-1.2l-0.8-4c-0.3,0.5-0.7,0.9-1.2,1.2c-0.5,0.3-1,0.6-1.6,0.7c-1.1,0.2-2.3-0.2-3.7-1.2
		c-1.4-1-2.2-2.2-2.4-3.4c-0.2-0.9,0-1.7,0.6-2.4c0.6-0.8,1.4-1.2,2.4-1.4c0.8-0.2,1.6-0.1,2.5,0.3c0.9,0.3,1.7,0.9,2.5,1.6
		l-1.1-5.5l-9.2,1.9l-2.1-1.9L292.7,399.2"/>
	<polyline id="XMLID_79_" class="st2" points="291.6,418.3 291.7,418.3 291.7,418.3 291.6,418.3 291.6,418.3 	"/>
	<path id="XMLID_80_" class="st2" d="M300.8,406l5.3-1.8l-2.3-6.7l-5.3,1.8L300.8,406L300.8,406z M307,394l2.3,1.6l-2.6,0.9L312,412
		l-3.4-0.8l-1.4-4.2l-5.3,1.8l0.6,1.8c0.1,0.4,0.1,0.8,0,1.1c-0.1,0.3-0.3,0.6-0.6,0.7c-0.9,0.3-2.1,0.1-3.6-0.7
		c-1.5-0.8-2.4-1.7-2.7-2.6c-0.1-0.3-0.1-0.6,0.1-0.9c0.2-0.3,0.4-0.5,0.8-0.6l1.6-0.5l-2.3-6.7l-3.7,1.3l-2.3-1.6L307,394"/>
	<path id="XMLID_83_" class="st2" d="M298.7,388.2c0.4-0.9,1.1-1.5,2-1.8c0.9-0.4,1.9-0.5,2.9-0.3c1,0.2,1.8,0.6,2.6,1.3l-0.3,0.7
		c-0.5-0.3-1-0.4-1.4-0.5c-0.5-0.1-0.9,0-1.3,0.2c-0.8,0.3-1.4,0.9-1.7,1.7c-0.3,0.8-0.4,1.6,0,2.4c0.2,0.4,0.5,0.9,1,1.3
		c0.5,0.4,1.1,0.8,1.8,1.1l-0.5,0.8c-1.2-0.4-2.2-1-3.1-1.7c-0.9-0.8-1.5-1.6-1.9-2.6C298.2,389.9,298.3,389,298.7,388.2"/>
	<path id="XMLID_84_" class="st2" d="M323.7,386.3l2.5,1.3l-2.5,1.2l7,14.8l-3.5-0.4l-3.4-7.1l-4.7,2.2c1,0.3,2,0.7,2.7,1.3
		c0.8,0.6,1.4,1.2,1.7,2c0.4,0.8,0.4,1.7,0.1,2.6c-0.4,0.9-1,1.5-1.8,2c-1.5,0.7-3.3,0.5-5.5-0.5c-2.2-1-4.3-2.7-6.3-5.1l0.8-0.8
		c1.4,1.7,2.9,2.8,4.5,3.6c1.6,0.7,2.9,0.8,4,0.3c0.5-0.2,0.8-0.6,0.9-1.1c0.2-0.5,0.1-1-0.1-1.6c-0.4-0.8-1.1-1.5-2.2-2.1
		c-1.1-0.6-2.5-1-4.1-1.3l8.8-4.2l-1.6-3.4l-13.8,6.5l-2.5-1.3L323.7,386.3"/>
	<polyline id="XMLID_85_" class="st2" points="328.9,383 331.5,384.1 329.1,385.5 337.3,399.7 333.8,399.6 326.5,387 324.2,388.3 
		321.6,387.2 328.9,383 	"/>
	<path id="XMLID_86_" class="st2" d="M150,272c0,4.7,11,7.1,13.9,7.9c12.3,3.2,25.1,4.7,37.8,5.5c11.7,0.8,26-1.1,37.2-4
		c-6.6-8.8-13-17.6-17.6-27.7C179.5,256.5,150,264.9,150,272z M278.7,253.6c-4.6,10-11,18.9-17.6,27.7c11.3,2.9,25.5,4.8,37.2,4
		c12.7-0.9,25.5-2.4,37.8-5.5c2.9-0.7,13.9-3.1,13.9-7.9C350,264.8,320.5,256.4,278.7,253.6"/>
	<path id="XMLID_89_" class="st3" d="M150,272h-0.5c0,1.4,0.8,2.5,1.9,3.5c1.7,1.4,4.2,2.5,6.6,3.3c2.4,0.8,4.6,1.3,5.7,1.6
		c12.4,3.2,25.2,4.7,37.9,5.6c1.9,0.1,3.8,0.2,5.7,0.2c10.5,0,22.1-1.8,31.7-4.2l0.7-0.2l-0.4-0.5c-6.6-8.8-13-17.6-17.5-27.6
		l-0.1-0.3l-0.3,0c-20.9,1.4-38.8,4.2-51.4,7.5c-6.3,1.7-11.4,3.5-14.8,5.3c-1.7,0.9-3.1,1.9-4,2.8c-0.9,1-1.5,2-1.5,3H150h0.5
		c0-0.7,0.4-1.5,1.2-2.4c1.5-1.5,4.3-3.1,8.3-4.7c11.9-4.7,34-8.9,61.4-10.7l0-0.5l-0.4,0.2c4.6,10.1,11,18.9,17.6,27.7l0.4-0.3
		l-0.1-0.4c-9.4,2.5-21,4.2-31.4,4.2c-1.9,0-3.8-0.1-5.7-0.2c-12.6-0.9-25.4-2.4-37.7-5.5c-1.4-0.4-4.9-1.2-8-2.4
		c-1.5-0.6-3-1.4-4-2.2c-1-0.9-1.6-1.8-1.6-2.8H150z M278.7,253.6l-0.4-0.2c-4.6,10-10.9,18.8-17.5,27.6l-0.4,0.5l0.7,0.2
		c9.5,2.5,21.2,4.2,31.7,4.2c2,0,3.9-0.1,5.7-0.2c12.7-0.9,25.5-2.4,37.9-5.6c1.4-0.4,4.9-1.2,8.1-2.5c1.6-0.7,3.1-1.4,4.2-2.4
		c1.1-0.9,1.9-2.1,1.9-3.5c0-1.1-0.5-2.1-1.5-3c-1.6-1.7-4.6-3.3-8.6-4.9c-12.1-4.7-34.2-9-61.7-10.8l-0.3,0l-0.1,0.3L278.7,253.6
		l0,0.5c20.9,1.4,38.7,4.2,51.2,7.5c6.3,1.7,11.3,3.5,14.6,5.3c1.7,0.9,3,1.8,3.8,2.7c0.8,0.9,1.2,1.7,1.2,2.4c0,1-0.6,1.9-1.6,2.8
		c-1.5,1.3-4,2.3-6.3,3.1c-2.3,0.8-4.5,1.3-5.6,1.6c-12.3,3.1-25.1,4.7-37.7,5.5c-1.8,0.1-3.7,0.2-5.7,0.2c-10.4,0-22-1.7-31.4-4.2
		l-0.1,0.4l0.4,0.3c6.6-8.8,13-17.7,17.6-27.7L278.7,253.6l0,0.5L278.7,253.6z"/>
	<path id="XMLID_92_" class="st2" d="M238.9,281.4c-6.6-8.8-12.9-17.7-17.5-27.7c-0.3-0.8-0.7-1.5-1-2.3c-2.3-5.5-4.1-11-5.2-16.4
		c-4.8-24.3,2.9-48.9,16.3-69.1c7.8-11.8,16.2-23.8,18.3-38.1h0.5c2.1,14.3,10.5,26.3,18.3,38.1c13.4,20.2,21.1,44.8,16.3,69.1
		c-1.1,5.4-2.9,11-5.2,16.4c-0.3,0.8-0.7,1.5-1,2.3c-4.6,10-11,18.9-17.6,27.7c-4.1-1.1-7.9-2.3-10.9-3.6c-3,1.3-6.8,2.5-10.9,3.6
		L238.9,281.4"/>
	<path id="XMLID_93_" class="st3" d="M238.9,281.4l0.4-0.3c-6.6-8.7-12.9-17.7-17.4-27.6c-0.4-0.8-0.7-1.5-1-2.3
		c-2.3-5.4-4.1-11-5.2-16.4c-1-4.9-1.4-9.9-1.4-14.8c0-19.2,7-38,17.7-54c7.8-11.8,16.3-23.8,18.4-38.3l-0.5-0.1v0.5h0.5v-0.5
		l-0.5,0.1c2.2,14.5,10.6,26.5,18.4,38.3c10.7,16,17.7,34.8,17.7,54c0,4.9-0.5,9.8-1.4,14.8c-1.1,5.4-2.9,10.9-5.2,16.4
		c-0.3,0.8-0.7,1.5-1,2.3c-4.6,10-10.9,18.8-17.5,27.6l0.4,0.3l0.1-0.4c-4.1-1.1-7.8-2.3-10.8-3.5l-0.2-0.1l-0.2,0.1
		c-3,1.3-6.7,2.5-10.9,3.5l0.1,0.4l-0.1-0.5l-0.3,0l-0.4,0v0.4H238.9l0.4-0.3L238.9,281.4h0.5v0L238.9,281.4l0.1,0.5l0.3,0l0,0l0,0
		c4.2-1.1,7.9-2.3,11-3.6l-0.2-0.4l-0.2,0.4c3.1,1.3,6.8,2.5,11,3.6l0.3,0.1l0.2-0.2c6.6-8.8,13-17.7,17.6-27.7
		c0.3-0.8,0.7-1.5,1-2.3c2.3-5.5,4.2-11.1,5.2-16.5c1-5,1.5-10,1.5-14.9c0-19.4-7.1-38.4-17.8-54.5c-7.9-11.8-16.2-23.8-18.3-38
		l-0.1-0.4h-0.9h-0.4l-0.1,0.4c-2.1,14.2-10.4,26.2-18.3,38c-10.7,16.1-17.8,35.1-17.8,54.5c0,5,0.5,10,1.5,15
		c1.1,5.4,2.9,11.1,5.2,16.5c0.3,0.8,0.7,1.6,1,2.3c4.6,10,11,19,17.5,27.8l0.8,1.1v-1.4H238.9z"/>
	<path id="XMLID_94_" class="st0" d="M238.9,281.4c-11.3,2.9-25.5,4.8-37.2,4c-12.7-0.9-25.5-2.4-37.8-5.5
		c-2.6-0.7-11.9-2.7-13.6-6.6h0c9.6,35,50.6,61.4,99.8,61.4c49.2,0,90.2-26.3,99.7-61.4h-0.1c-1.8,3.8-11,5.8-13.6,6.5
		c-12.3,3.2-25.1,4.7-37.8,5.5c-11.7,0.8-26-1.1-37.2-4c-4.1-1.1-7.9-2.3-10.9-3.6c-3,1.3-6.8,2.5-10.9,3.6L238.9,281.4L238.9,281.4
		L238.9,281.4z"/>
	<path id="XMLID_95_" class="st3" d="M238.8,281c-9.4,2.5-21,4.2-31.4,4.2c-1.9,0-3.8-0.1-5.7-0.2c-12.6-0.9-25.4-2.4-37.7-5.5
		c-1.3-0.3-4.3-1-7.1-2.1c-1.4-0.5-2.8-1.2-3.9-1.9c-1.1-0.7-1.9-1.5-2.3-2.4l-0.1-0.3h-0.3h-0.6l0.2,0.6
		c9.6,35.3,50.9,61.7,100.2,61.7c49.3,0,90.5-26.4,100.2-61.7l0.2-0.6h-0.7h-0.3l-0.1,0.3c-0.4,0.8-1.3,1.6-2.4,2.3
		c-1.7,1.1-3.9,1.9-6,2.6c-2.1,0.6-3.9,1.1-4.9,1.3c-12.3,3.1-25.1,4.7-37.7,5.5c-1.8,0.1-3.7,0.2-5.7,0.2c-10.4,0-22-1.7-31.4-4.2
		c-4.1-1.1-7.8-2.3-10.8-3.5l-0.2-0.1l-0.2,0.1c-3,1.3-6.7,2.5-10.9,3.5l0.1,0.4l-0.1-0.5L238.8,281l0.2,0.8l0.3,0l0,0l0,0
		c4.2-1.1,7.9-2.3,11-3.6l-0.2-0.4l-0.2,0.4c3.1,1.3,6.8,2.5,11,3.6c9.5,2.5,21.2,4.2,31.7,4.2c2,0,3.9-0.1,5.7-0.2
		c12.7-0.9,25.5-2.4,37.9-5.6c1.3-0.3,4.2-1,7.1-2.1c1.4-0.5,2.9-1.2,4.1-1.9c1.2-0.8,2.2-1.6,2.7-2.7l-0.4-0.2v0.5h0.1v-0.5
		l-0.4-0.1c-9.5,34.8-50.3,61-99.3,61c-49,0-89.9-26.3-99.3-61l-0.4,0.1v0.5h0v-0.5l-0.4,0.2c0.5,1.1,1.5,2,2.7,2.8
		c1.8,1.2,4.1,2,6.2,2.7c2.1,0.7,4,1.1,5,1.4c12.4,3.2,25.2,4.7,37.9,5.6c1.9,0.1,3.8,0.2,5.7,0.2c10.5,0,22.1-1.8,31.7-4.2
		L238.8,281L238.8,281z"/>
	<path id="XMLID_96_" class="st4" d="M251.8,252c-0.8,0.8-1.5,1.7-1.5,2.4h-0.1c0-0.8-0.8-1.7-1.6-2.5V278h0.9
		c0.2-0.1,0.5-0.2,0.7-0.3c0.2,0.1,0.4,0.2,0.7,0.3h1V252"/>
	<path id="XMLID_97_" class="st3" d="M251.8,252l-0.3-0.3c-0.4,0.4-0.8,0.8-1.1,1.3c-0.3,0.4-0.5,0.9-0.5,1.4l0.5,0v-0.5h-0.1v0.5
		l0.5,0c0-0.5-0.3-1-0.6-1.5c-0.3-0.5-0.7-0.9-1.2-1.4l-0.8-0.8v27.7h1.4h0.1l0.1,0c0.2-0.1,0.4-0.2,0.7-0.3l-0.2-0.4l-0.2,0.4
		c0.2,0.1,0.5,0.2,0.7,0.3l0.1,0h1.1h0.5v-27.6l-0.8,0.8L251.8,252h-0.5v25.6h-0.5v0.5l0.2-0.4c-0.2-0.1-0.5-0.2-0.7-0.3l-0.2-0.1
		l-0.2,0.1c-0.2,0.1-0.4,0.2-0.7,0.3l0.2,0.4v-0.5H249v-25.7h-0.5l-0.3,0.3c0.4,0.4,0.8,0.8,1.1,1.2c0.3,0.4,0.4,0.8,0.4,1l0,0.4
		h0.5h0.4l0-0.4c0-0.2,0.1-0.6,0.4-0.9c0.3-0.4,0.6-0.8,1-1.2L251.8,252h-0.5H251.8z"/>
	<path id="XMLID_98_" class="st5" d="M250.6,233.3h-0.7c-3.6,0-6.6,2.6-7.4,6.2c-1,4.7,1.1,7.7,4.3,10.7c0.8,0.8,3.4,2.8,3.4,4.2
		h0.1c0.1-1.4,2.6-3.4,3.4-4.2c3.2-3,5.3-6,4.3-10.7C257.2,235.8,254.2,233.3,250.6,233.3h-0.7H250.6z"/>
	<path id="XMLID_99_" class="st3" d="M250.6,232.8h-0.7c-3.8,0-7,2.8-7.9,6.6c-0.2,0.8-0.3,1.6-0.3,2.4c0,1.8,0.5,3.4,1.4,4.8
		c0.8,1.4,2,2.7,3.4,4c0.4,0.4,1.3,1.1,2,1.9c0.4,0.4,0.7,0.8,0.9,1.1c0.2,0.4,0.4,0.7,0.4,0.9c0,0.2,0.2,0.4,0.5,0.4h0.1
		c0.2,0,0.4-0.2,0.5-0.4c0-0.2,0.1-0.5,0.4-0.9c0.3-0.5,0.9-1.1,1.5-1.7c0.6-0.5,1.1-1,1.4-1.3c1.3-1.3,2.5-2.5,3.4-4
		c0.8-1.4,1.4-3,1.4-4.8c0-0.8-0.1-1.6-0.3-2.4C257.6,235.6,254.5,232.8,250.6,232.8h-0.7v0.9h0.7c3.4,0,6.2,2.4,7,5.9
		c0.2,0.8,0.3,1.5,0.3,2.2c0,1.6-0.5,3-1.2,4.3c-0.8,1.3-1.9,2.5-3.2,3.8c-0.4,0.4-1.3,1.1-2,1.9c-0.4,0.4-0.7,0.8-1,1.3
		c-0.3,0.4-0.5,0.9-0.5,1.4l0.5,0v-0.5h-0.1v0.5l0.5,0c0-0.5-0.2-0.9-0.5-1.4c-0.4-0.6-1-1.3-1.6-1.8c-0.6-0.6-1.1-1-1.4-1.3
		c-1.3-1.2-2.4-2.5-3.2-3.8c-0.8-1.3-1.2-2.7-1.2-4.3c0-0.7,0.1-1.4,0.3-2.2c0.8-3.4,3.6-5.9,7-5.9h0.7V232.8L250.6,232.8z"/>
	<path id="XMLID_100_" class="st5" d="M242.5,239.5c0.5-2.4,2.1-4.4,4.1-5.4l0.3-0.4c0,0-8.9-7.3-20.1,1.5c0.5-0.2,4.9,3.5,5.4,3.9
		c3,2.1,6.1,3,9.8,2.3l0.3-0.5C242.3,240.4,242.4,239.9,242.5,239.5"/>
	<path id="XMLID_101_" class="st3" d="M242.5,239.5l0.4,0.1c0.5-2.3,2-4.1,3.9-5.1l0.2-0.2l0.3-0.4c0.1-0.2,0.1-0.5-0.1-0.6
		c0,0-3.6-2.9-9.1-2.9c-3.3,0-7.3,1.1-11.6,4.4c-0.2,0.1-0.2,0.4-0.1,0.6c0.1,0.2,0.4,0.3,0.6,0.2l-0.1-0.3v0.3l0.1,0l-0.1-0.3v0.3
		v-0.1l0,0.1l0,0v-0.1l0,0.1c0,0,0.2,0.1,0.3,0.2c0.6,0.4,1.7,1.2,2.7,2c0.5,0.4,0.9,0.8,1.3,1.1c0.4,0.3,0.6,0.5,0.8,0.6
		c2.4,1.7,4.9,2.6,7.7,2.6c0.8,0,1.6-0.1,2.5-0.2c0.1,0,0.2-0.1,0.3-0.2l0.3-0.5l0.1-0.2c0-0.4,0.1-0.9,0.2-1.3L242.5,239.5
		l-0.3,0.3l0,0c0.1,0.1,0.3,0.2,0.5,0.1c0.2,0,0.3-0.2,0.3-0.3L242.5,239.5l0.3-0.3l0,0c-0.1-0.1-0.3-0.2-0.4-0.1
		c-0.2,0-0.3,0.2-0.3,0.3c-0.1,0.5-0.2,1-0.2,1.4l0.5,0l-0.4-0.2l-0.3,0.5l0.4,0.2l-0.1-0.4c-0.8,0.1-1.6,0.2-2.3,0.2
		c-2.6,0-4.9-0.8-7.1-2.5c-0.1-0.1-0.5-0.4-0.9-0.8c-0.7-0.6-1.7-1.4-2.5-2c-0.4-0.3-0.8-0.6-1.2-0.8c-0.2-0.1-0.3-0.2-0.5-0.3
		c-0.2-0.1-0.3-0.1-0.5-0.1l-0.3,0.1l0.2,0.4l0.3,0.4c4.1-3.2,7.9-4.2,11-4.2c2.6,0,4.7,0.7,6.2,1.4c0.7,0.3,1.3,0.7,1.7,0.9
		c0.2,0.1,0.3,0.2,0.4,0.3l0.1,0.1l0,0l0.3-0.4l-0.4-0.2l-0.3,0.4l0.4,0.2l-0.2-0.4c-2.2,1.1-3.8,3.2-4.4,5.7L242.5,239.5l0.3-0.3
		L242.5,239.5z"/>
	<path id="XMLID_102_" class="st5" d="M253.1,233.5l0.1,0.2c2.4,0.9,4.2,3,4.8,5.8c0.1,0.7,0.2,1.3,0.2,1.9c3.5,0.5,6.5-0.3,9.4-2.4
		c0.6-0.4,4.9-4.2,5.4-3.9C261.9,226.4,253.1,233.5,253.1,233.5"/>
	<path id="XMLID_103_" class="st3" d="M253.1,233.5l-0.4,0.2l0.1,0.2l0.2,0.2c2.2,0.8,4,2.8,4.6,5.4l0,0c0.1,0.6,0.2,1.2,0.2,1.8
		c0,0.2,0.2,0.4,0.4,0.4c0.7,0.1,1.4,0.2,2.1,0.2c2.8,0,5.3-0.9,7.7-2.6c0.2-0.1,0.5-0.4,1-0.8c0.7-0.6,1.7-1.4,2.5-2
		c0.4-0.3,0.8-0.6,1.1-0.8c0.2-0.1,0.3-0.2,0.4-0.2l0.1,0l0,0l0-0.1v0.1l0,0l0-0.1v0.1v-0.3l-0.1,0.3l0.1,0v-0.3l-0.1,0.3
		c0.2,0.1,0.5,0,0.6-0.2s0.1-0.5-0.1-0.6c-4.3-3.3-8.3-4.4-11.6-4.4c-5.4,0-9,2.8-9,2.9L253.1,233.5l0-0.5h0c-0.2,0-0.3,0.1-0.4,0.2
		c-0.1,0.1-0.1,0.3,0,0.5L253.1,233.5v0.5h0l0.3-0.1l0,0c0.4-0.3,3.6-2.7,8.4-2.7c3.1,0,6.9,1,11,4.2l0.3-0.4l0.2-0.4l-0.3-0.1
		c-0.3,0-0.4,0.1-0.6,0.2c-0.7,0.4-1.8,1.2-2.8,2.1c-0.5,0.4-1,0.8-1.4,1.1c-0.4,0.3-0.7,0.6-0.8,0.6c-2.2,1.6-4.5,2.4-7.1,2.4
		c-0.6,0-1.3-0.1-1.9-0.2l-0.1,0.5l0.5,0c0-0.6-0.1-1.3-0.3-1.9l0,0c-0.6-2.9-2.6-5.1-5.1-6.1l-0.2,0.4l0.4-0.2l-0.1-0.2
		L253.1,233.5v0.5V233.5z"/>
	<path id="XMLID_104_" class="st5" d="M249.8,182.2c0,0-23,35.1-2.8,50.7h5.6C272.8,217.4,249.8,182.2,249.8,182.2L249.8,182.2z"/>
	<path id="XMLID_105_" class="st3" d="M249.4,182c0,0-2.8,4.3-5.6,10.5c-2.8,6.2-5.6,14.4-5.6,22.3c0,6.9,2.2,13.7,8.5,18.5l0.3,0.1
		h5.6l0.3-0.1c6.3-4.8,8.5-11.6,8.5-18.5c0-7.9-2.8-16.1-5.6-22.3c-2.8-6.2-5.6-10.5-5.6-10.5c-0.1-0.2-0.4-0.3-0.6-0.1
		c-0.2,0.1-0.3,0.4-0.1,0.6c0,0,0.2,0.3,0.5,0.7c2.1,3.4,10.6,18.1,10.6,31.5c0,6.7-2.1,13.1-8.1,17.8l0.3,0.4v-0.5H247v0.5l0.3-0.4
		c-6-4.6-8.1-11-8.1-17.8c0-7.7,2.8-15.8,5.5-21.9c1.4-3.1,2.8-5.7,3.8-7.5c0.5-0.9,0.9-1.6,1.3-2.1c0.3-0.5,0.5-0.7,0.5-0.7
		c0.1-0.2,0.1-0.5-0.1-0.6C249.8,181.7,249.6,181.8,249.4,182L249.4,182z"/>
	<path id="XMLID_106_" class="st5" d="M244.8,191.4l-9.7-8.5c0.9,0.8,0.5,5.7,0.5,6.8c0,2.7-0.1,5.4-0.4,8.1
		c-0.4,3.6-1.1,7-1.7,10.5c-0.9,5.5-0.2,11.4,2.9,16.2c2.3,3.5,6.5,6.6,10.3,8.2C233.4,222.2,239.5,202.9,244.8,191.4"/>
	<path id="XMLID_107_" class="st3" d="M244.8,191.4l0.3-0.3l-9.7-8.5c-0.2-0.2-0.5-0.1-0.6,0c-0.2,0.2-0.1,0.5,0,0.6
		c0,0,0.1,0.1,0.2,0.3c0.2,0.6,0.3,1.9,0.3,3.1c0,1.2-0.1,2.4-0.1,3l0,0.1l0,0c0,0.3,0,0.6,0,0.9c0,2.4-0.1,4.8-0.4,7.2
		c-0.3,3.5-1.1,7-1.7,10.5c-0.2,1.5-0.4,3-0.4,4.5c0,4.2,1,8.4,3.3,12c2.3,3.6,6.6,6.7,10.5,8.4c0.2,0.1,0.5,0,0.6-0.2
		c0.1-0.2,0.1-0.4-0.1-0.6c-5.9-4.6-7.9-11-7.9-17.6c0-8.2,3.1-16.8,6.1-23.1c0.1-0.2,0-0.4-0.1-0.5h0L244.8,191.4l0.3-0.3
		L244.8,191.4l-0.3,0.4h0L244.8,191.4l-0.4-0.2c-3,6.3-6.1,15.1-6.1,23.5c0,6.8,2.1,13.5,8.3,18.3l0.3-0.4l0.2-0.4
		c-3.8-1.6-7.9-4.6-10.1-8c-2.2-3.5-3.1-7.4-3.1-11.5c0-1.5,0.1-2.9,0.3-4.4c0.6-3.5,1.3-7,1.7-10.5c0.2-2.4,0.4-4.8,0.4-7.3
		c0-0.3,0-0.6,0-0.9l0,0l0-0.1c0-0.5,0.1-1.8,0.1-3c0-0.8,0-1.7-0.1-2.4c0-0.4-0.1-0.7-0.2-1c-0.1-0.3-0.2-0.5-0.4-0.7
		c-0.1-0.1-0.2-0.1-0.3-0.1s-0.2,0.1-0.3,0.2c-0.1,0.1-0.1,0.2-0.1,0.3c0,0.1,0.1,0.2,0.2,0.3l9.7,8.5l0,0L244.8,191.4z"/>
	<path id="XMLID_108_" class="st5" d="M266.1,208.4c-0.6-3.5-1.3-7-1.7-10.5c-0.3-2.7-0.4-5.4-0.4-8.1c0-1.1-0.3-6.1,0.5-6.8
		l-9.7,8.6c5.4,11.5,11.4,30.8-2.1,41.3c3.9-1.6,8.3-4.7,10.5-8.3C266.3,219.7,267,213.9,266.1,208.4"/>
	<path id="XMLID_109_" class="st3" d="M266.1,208.4l0.5-0.1c-0.6-3.5-1.3-7-1.7-10.5c-0.2-2.4-0.4-4.7-0.4-7.1c0-0.3,0-0.6,0-0.9
		l0,0l0-0.1c0-0.6-0.1-1.8-0.1-3c0-0.8,0-1.6,0.1-2.3c0-0.3,0.1-0.6,0.2-0.8c0.1-0.2,0.1-0.3,0.2-0.3c0.2-0.2,0.2-0.5,0-0.6
		c-0.2-0.2-0.5-0.2-0.6,0l-9.7,8.6c-0.2,0.1-0.2,0.4-0.1,0.5c2.9,6.3,6,14.9,6,23c0,6.7-2.1,13.1-8,17.7c-0.2,0.1-0.2,0.4-0.1,0.6
		c0.1,0.2,0.4,0.3,0.6,0.2c4-1.6,8.4-4.8,10.8-8.5c2.3-3.6,3.3-7.8,3.3-12c0-1.5-0.1-3-0.4-4.5L266.1,208.4l-0.5,0.1
		c0.2,1.4,0.3,2.9,0.3,4.4c0,4.1-0.9,8-3.1,11.5c-2.2,3.5-6.5,6.6-10.3,8.1l0.2,0.4l0.3,0.4c6.2-4.8,8.4-11.5,8.4-18.4
		c0-8.4-3.2-17.1-6.1-23.4l-0.4,0.2l0.3,0.3l9.7-8.6c0.1-0.1,0.1-0.2,0.2-0.3c0-0.1,0-0.2-0.1-0.3c-0.1-0.1-0.2-0.1-0.3-0.2
		c-0.1,0-0.2,0-0.3,0.1c-0.2,0.2-0.3,0.5-0.4,0.7c-0.3,0.8-0.3,2.1-0.3,3.3c0,1.3,0.1,2.5,0.1,3l0,0.1v0c0,0.3,0,0.6,0,1
		c0,2.4,0.1,4.8,0.4,7.2c0.4,3.6,1.1,7,1.7,10.5L266.1,208.4z"/>
	<path id="XMLID_110_" class="st5" d="M254.1,232.2l0.5,0.4c2.3-1.2,6.9-2.9,12.7-0.8l0.4-0.1c0,0,2-5.5,5.4-5.5
		c0,0-4.5-2.4-10.5-0.8C260.5,228.2,257.3,230.7,254.1,232.2"/>
	<path id="XMLID_111_" class="st3" d="M254.1,232.2l-0.3,0.4l0.5,0.4c0.1,0.1,0.3,0.1,0.5,0c1.4-0.8,3.9-1.8,7-1.8
		c1.6,0,3.4,0.3,5.4,1l0.3,0l0.4-0.1c0.1,0,0.2-0.1,0.3-0.3c0,0,0-0.1,0.1-0.2c0.2-0.5,0.8-1.8,1.6-2.9c0.4-0.6,0.9-1.1,1.5-1.5
		c0.6-0.4,1.1-0.6,1.8-0.6c0.2,0,0.4-0.1,0.4-0.3c0.1-0.2,0-0.4-0.2-0.5c0,0-2.6-1.4-6.5-1.4c-1.3,0-2.8,0.2-4.3,0.6l-0.2,0.2
		c-2,2.7-5.2,5.1-8.3,6.6L254.1,232.2l0.3-0.3v0L254.1,232.2l-0.3,0.4L254.1,232.2l-0.3,0.3v0c0.1,0.1,0.3,0.2,0.5,0.1
		c3.2-1.6,6.5-4,8.7-6.9l-0.4-0.3l0.1,0.4c1.5-0.4,2.8-0.5,4.1-0.5c1.8,0,3.4,0.3,4.5,0.7c0.5,0.2,1,0.3,1.2,0.4
		c0.1,0.1,0.3,0.1,0.3,0.1l0.1,0l0,0l0.2-0.4v-0.5c-1,0-1.8,0.4-2.6,0.9c-2.2,1.7-3.3,4.8-3.3,4.8l0.4,0.2l-0.1-0.4l-0.4,0.1
		l0.1,0.4l0.2-0.4c-2.1-0.8-4-1-5.7-1c-3.3,0-5.9,1-7.4,1.9l0.2,0.4l0.3-0.4l-0.5-0.4c-0.2-0.1-0.5-0.1-0.6,0.1
		c-0.2,0.2-0.1,0.5,0,0.6L254.1,232.2z"/>
	<path id="XMLID_112_" class="st5" d="M245.1,232.5l0.3-0.1l-0.1-0.4c-3.1-1.5-6.2-3.9-8.2-6.6l0,0c-6-1.6-10.6,0.8-10.6,0.8
		c3.4,0,5.4,5.5,5.4,5.5l0.4,0.2C238.1,229.7,242.7,231.3,245.1,232.5"/>
	<path id="XMLID_113_" class="st3" d="M245.1,232.5l0.2,0.4l0.3-0.1c0.2-0.1,0.3-0.3,0.2-0.6l-0.1-0.4l-0.2-0.3
		c-3-1.5-6.1-3.8-8-6.5c-0.1-0.1-0.2-0.2-0.3-0.2l0,0l0,0.5l0.1-0.4c-1.6-0.4-3-0.6-4.4-0.6c-3.9,0-6.5,1.4-6.5,1.4
		c-0.2,0.1-0.3,0.3-0.2,0.5c0.1,0.2,0.2,0.3,0.4,0.3c0.7,0,1.4,0.3,2,0.8c0.9,0.7,1.7,1.8,2.2,2.7c0.3,0.5,0.5,0.9,0.6,1.2
		c0.1,0.2,0.1,0.3,0.1,0.4l0,0.1c0,0.1,0.1,0.2,0.2,0.3l0.4,0.2c0.1,0.1,0.2,0.1,0.4,0c2-0.8,3.9-1,5.6-1c3,0,5.4,0.9,6.8,1.7
		L245.1,232.5l0-0.5h0L245.1,232.5l0.2,0.4L245.1,232.5l0,0.5l0,0c0.2,0,0.4-0.2,0.4-0.4c0-0.2-0.1-0.4-0.2-0.5
		c-1.6-0.8-4.1-1.8-7.3-1.8c-1.8,0-3.8,0.3-5.9,1.1l0.2,0.4l0.2-0.4l-0.4-0.2l-0.2,0.4l0.4-0.2c0,0-0.5-1.4-1.5-2.8
		c-0.5-0.7-1.1-1.4-1.8-2c-0.7-0.6-1.6-0.9-2.6-0.9v0.5l0.2,0.4l0,0c0.3-0.1,2.6-1.3,6.1-1.3c1.2,0,2.6,0.2,4.1,0.6l0.1,0l0,0l0-0.5
		l-0.4,0.3C238.8,228.5,242,230.9,245.1,232.5l0.2-0.5l-0.4,0.2l0.1,0.4l0.4-0.2l-0.2-0.4l-0.3,0.1c-0.2,0.1-0.3,0.3-0.3,0.5
		c0,0.2,0.2,0.4,0.5,0.4L245.1,232.5z"/>
	<path id="XMLID_114_" class="st5" d="M244.7,191.6c1-2.2,2-4,2.8-5.5l-4-5.5l-3.1,6.8v0.3l4.3,3.8L244.7,191.6"/>
	<path id="XMLID_115_" class="st3" d="M244.7,191.6l0.4,0.2c1-2.1,2-4,2.8-5.5l0.1-0.3l-4.6-6.4l-3.5,7.6v0.4v0.2l4.5,3.9l0.3-0.3
		l-0.4-0.2l-0.1,0.1L244,192h0.7h0.3l0.1-0.3L244.7,191.6v-0.5l0,0V191.6l0.4,0.2l0.1-0.1l0.1-0.3l-4.4-3.9v-0.1h-0.5l0.4,0.2
		l2.8-6.1l3.5,4.9l0.4-0.3l-0.4-0.2c-0.8,1.5-1.8,3.4-2.8,5.6L244.7,191.6v-0.5V191.6z"/>
	<path id="XMLID_116_" class="st5" d="M254.8,191.5l4.8-4.2l-3.1-6.8l-4,5.6v0.7c0.8,1.4,1.6,3.1,2.5,4.9L254.8,191.5"/>
	<path id="XMLID_117_" class="st3" d="M254.8,191.5l0.3,0.3l5-4.4l-3.6-7.8L252,186v0.8v0.1l0.1,0.1c0.7,1.4,1.6,3,2.5,4.9l0.8-0.4
		l-0.1-0.2L254.8,191.5l0.5,0v0H254.8l0.3,0.3L254.8,191.5h-0.5v0v0.1l0.1,0.3l0.8-0.4c-0.9-1.9-1.7-3.5-2.5-4.9l-0.4,0.2h0.5v-0.5
		l3.5-4.8l2.6,5.8l-4.7,4.1v0.2H254.8z"/>
</g>
</svg>
