<?xml version="1.0" standalone="no"?>
<!DOCTYPE svg PUBLIC "-//W3C//DTD SVG 20010904//EN"
 "http://www.w3.org/TR/2001/REC-SVG-20010904/DTD/svg10.dtd">
<svg version="1.0" xmlns="http://www.w3.org/2000/svg"
 width="224.000000pt" height="224.000000pt" viewBox="0 0 224.000000 224.000000"
 preserveAspectRatio="xMidYMid meet">

<g transform="translate(0.000000,224.000000) scale(0.100000,-0.100000)"
fill="#000000" stroke="none">
<path d="M1025 1744 c-11 -2 -45 -9 -75 -15 -75 -15 -202 -76 -278 -133 -113
-87 -210 -233 -247 -376 -95 -365 106 -730 470 -857 72 -25 93 -27 215 -27
119 0 144 3 215 27 115 38 199 91 290 182 144 142 214 329 202 535 -5 96 -32
201 -69 273 -17 34 -23 38 -51 35 -29 -3 -32 -6 -30 -33 1 -16 16 -70 33 -120
28 -76 33 -104 33 -185 1 -116 -13 -180 -63 -285 -113 -236 -380 -380 -638
-344 -255 35 -463 219 -526 465 -20 79 -21 229 0 307 56 218 234 393 458 453
70 19 223 18 301 -2 75 -19 98 -10 93 35 -2 20 -12 29 -41 38 -81 27 -225 40
-292 27z"/>
<path d="M1813 1704 c-15 -39 38 -67 60 -32 8 12 7 21 -2 32 -17 21 -50 20
-58 0z"/>
<path d="M1542 1658 c6 -18 28 -21 28 -4 0 9 -7 16 -16 16 -9 0 -14 -5 -12
-12z"/>
<path d="M1655 1620 c3 -5 10 -10 16 -10 5 0 9 5 9 10 0 6 -7 10 -16 10 -8 0
-12 -4 -9 -10z"/>
<path d="M1742 1604 c-31 -21 -31 -87 0 -108 34 -24 73 -20 97 10 12 15 21 34
21 44 0 10 -9 29 -21 44 -24 30 -63 34 -97 10z"/>
<path d="M1450 1590 c-27 -27 -25 -66 5 -95 29 -30 68 -32 95 -5 26 26 26 81
2 103 -25 23 -78 21 -102 -3z"/>
<path d="M1614 1555 c-4 -9 0 -23 9 -32 21 -21 49 -9 45 19 -4 28 -45 38 -54
13z"/>
<path d="M1385 1510 c3 -5 10 -10 16 -10 5 0 9 5 9 10 0 6 -7 10 -16 10 -8 0
-12 -4 -9 -10z"/>
<path d="M1567 1473 c-4 -3 -7 -12 -7 -20 0 -15 26 -18 34 -4 7 11 -18 33 -27
24z"/>
<path d="M1260 1445 c0 -8 9 -15 20 -15 11 0 20 7 20 15 0 8 -9 15 -20 15 -11
0 -20 -7 -20 -15z"/>
<path d="M1246 1368 c-9 -12 -16 -28 -16 -34 0 -21 38 -46 66 -42 36 4 51 29
38 65 -13 38 -65 45 -88 11z"/>
<path d="M1093 1350 c-45 -18 -58 -95 -23 -130 31 -31 93 -27 119 6 27 34 27
67 -1 98 -26 29 -63 39 -95 26z"/>
<path d="M890 1230 c-42 -42 -12 -120 48 -120 44 0 72 26 72 66 0 43 -29 74
-70 74 -17 0 -39 -9 -50 -20z"/>
<path d="M1292 1137 c-44 -47 -13 -117 52 -117 41 0 69 29 69 72 0 61 -78 91
-121 45z"/>
<path d="M1133 1143 c-7 -2 -13 -18 -13 -34 0 -22 7 -32 25 -41 22 -10 29 -9
47 10 19 18 20 25 10 47 -11 24 -38 31 -69 18z"/>
<path d="M1046 1121 c-4 -5 -2 -12 3 -15 5 -4 12 -2 15 3 4 5 2 12 -3 15 -5 4
-12 2 -15 -3z"/>
<path d="M895 1061 c-7 -12 12 -24 25 -16 11 7 4 25 -10 25 -5 0 -11 -4 -15
-9z"/>
<path d="M981 1044 c-36 -26 -54 -79 -41 -120 16 -48 53 -74 107 -74 33 0 50
6 68 24 46 46 45 129 -2 166 -32 25 -99 27 -132 4z"/>
<path d="M801 1006 c-35 -42 20 -111 63 -82 35 23 41 42 23 70 -20 29 -66 36
-86 12z"/>
<path d="M1210 1005 c0 -8 9 -15 20 -15 11 0 20 7 20 15 0 8 -9 15 -20 15 -11
0 -20 -7 -20 -15z"/>
<path d="M890 849 c0 -14 5 -19 17 -17 26 5 29 38 4 38 -15 0 -21 -6 -21 -21z"/>
<path d="M1124 826 c-10 -26 4 -48 28 -44 17 2 23 10 23 28 0 18 -6 26 -23 28
-13 2 -25 -3 -28 -12z"/>
</g>
</svg>
