<?xml version="1.0" standalone="no"?>
<!DOCTYPE svg PUBLIC "-//W3C//DTD SVG 20010904//EN"
 "http://www.w3.org/TR/2001/REC-SVG-20010904/DTD/svg10.dtd">
<svg version="1.0" xmlns="http://www.w3.org/2000/svg"
 width="720.000000pt" height="100.000000pt" viewBox="0 0 720.000000 100.000000"
 preserveAspectRatio="xMidYMid meet">

<g transform="translate(0.000000,100.000000) scale(0.100000,-0.100000)"
fill="#000000" stroke="none">
<path d="M1491 951 c-38 -10 -66 -56 -66 -106 0 -55 22 -79 101 -115 79 -36
97 -75 49 -106 -35 -23 -75 -6 -75 31 0 23 -4 25 -40 25 -36 0 -40 -2 -40 -26
0 -59 48 -94 128 -94 87 0 141 57 127 136 -7 39 -35 65 -107 97 -60 28 -77 52
-58 87 16 31 68 28 76 -5 5 -21 12 -25 45 -25 46 0 49 12 16 61 -29 44 -89 59
-156 40z"/>
<path d="M4321 952 c-39 -12 -63 -53 -63 -106 0 -60 18 -80 99 -117 64 -29 82
-53 64 -88 -24 -43 -91 -33 -91 14 0 22 -4 25 -40 25 -44 0 -50 -13 -30 -64
30 -79 209 -72 240 10 28 72 -1 120 -99 167 -50 24 -67 38 -69 55 -5 32 15 52
49 52 22 0 30 -6 35 -25 5 -21 12 -25 44 -25 l39 0 -10 32 c-5 18 -17 40 -27
50 -20 20 -102 32 -141 20z"/>
<path d="M5902 953 c-12 -2 -33 -19 -47 -37 -30 -40 -42 -126 -30 -231 6 -56
12 -74 35 -97 36 -36 104 -40 138 -8 l22 21 0 -21 c0 -17 5 -21 28 -18 l27 3
3 103 3 102 -66 0 c-63 0 -65 -1 -65 -25 0 -20 5 -25 25 -25 22 0 25 -4 25
-35 0 -32 -27 -75 -47 -75 -36 1 -53 48 -53 149 0 112 12 143 54 139 23 -2 32
-9 36 -28 5 -21 13 -26 44 -28 l39 -3 -6 35 c-11 69 -70 97 -165 79z"/>
<path d="M230 754 l0 -197 83 5 c145 8 172 39 172 198 0 161 -26 190 -169 190
l-86 0 0 -196z m155 121 c23 -22 25 -32 25 -110 0 -113 -16 -145 -72 -145
l-28 0 0 140 0 140 25 0 c14 0 37 -11 50 -25z"/>
<path d="M2002 923 c3 -24 8 -28 41 -31 35 -3 37 -2 37 27 0 30 -2 31 -41 31
-38 0 -40 -1 -37 -27z"/>
<path d="M3382 758 l3 -193 40 0 40 0 3 82 3 82 62 3 c62 3 62 3 62 33 0 30 0
30 -62 33 l-63 3 0 44 0 45 70 0 70 0 0 30 0 30 -115 0 -115 0 2 -192z"/>
<path d="M5110 920 c0 -28 3 -30 35 -30 32 0 35 2 35 30 0 28 -3 30 -35 30
-32 0 -35 -2 -35 -30z"/>
<path d="M5532 758 l3 -193 38 -3 37 -3 0 195 0 196 -40 0 -40 0 2 -192z"/>
<path d="M6850 889 l0 -60 -22 15 c-23 17 -64 21 -93 10 -26 -10 -45 -72 -45
-149 0 -94 26 -138 84 -143 25 -2 44 2 57 14 17 16 19 16 19 1 0 -13 9 -17 35
-17 l35 0 0 195 0 195 -35 0 -35 0 0 -61z m-6 -146 c11 -93 -22 -159 -61 -120
-27 26 -26 153 1 172 30 23 53 3 60 -52z"/>
<path d="M850 899 c0 -32 -4 -42 -20 -46 -13 -3 -20 -14 -20 -29 0 -17 6 -24
20 -24 19 0 20 -7 20 -104 0 -124 8 -139 74 -134 32 2 42 7 44 23 2 13 -5 24
-20 30 -21 9 -23 17 -26 97 -3 84 -2 87 20 90 33 4 38 45 6 50 -19 2 -23 10
-26 46 -3 41 -4 42 -38 42 -33 0 -34 -1 -34 -41z"/>
<path d="M597 854 c-17 -5 -47 -52 -47 -74 0 -5 15 -10 34 -10 25 0 35 5 39
20 6 25 55 28 64 4 10 -26 -11 -48 -55 -59 -59 -15 -87 -46 -86 -95 1 -24 9
-49 19 -60 22 -25 81 -27 107 -4 16 16 18 16 24 0 4 -10 18 -16 41 -16 32 0
35 2 29 23 -3 12 -6 70 -6 128 0 132 -6 142 -86 145 -33 2 -67 0 -77 -2z m82
-230 c-16 -19 -55 -18 -63 2 -11 28 4 55 37 69 l32 13 3 -34 c2 -20 -2 -42 -9
-50z"/>
<path d="M1035 835 c-35 -34 -33 -65 3 -65 16 0 32 8 40 20 14 23 44 26 61 6
20 -24 0 -46 -55 -62 -31 -9 -60 -25 -69 -37 -22 -31 -19 -93 5 -117 24 -24
77 -26 108 -4 20 14 22 14 22 0 0 -12 10 -16 35 -16 l35 0 0 125 c0 120 -1
127 -25 150 -20 21 -34 25 -80 25 -46 0 -60 -4 -80 -25z m104 -202 c-9 -17
-20 -23 -38 -21 -51 6 -31 82 23 90 26 4 34 -33 15 -69z"/>
<path d="M1771 844 c-46 -33 -65 -130 -41 -216 14 -48 43 -68 98 -68 72 0 111
31 112 88 0 30 -2 32 -35 32 -28 0 -35 -4 -35 -19 0 -34 -12 -51 -36 -51 -29
0 -39 31 -38 113 1 66 19 93 53 82 14 -4 21 -15 21 -31 0 -21 5 -24 35 -24 32
0 35 3 35 28 -1 48 -31 75 -91 79 -40 3 -60 0 -78 -13z"/>
<path d="M2169 831 c-31 -31 -34 -51 -30 -161 2 -47 7 -59 32 -82 60 -57 178
-24 179 50 0 18 -5 22 -30 22 -23 0 -33 -6 -40 -25 -18 -49 -70 -25 -70 32 l0
33 75 0 c84 0 85 1 65 85 -12 54 -40 75 -102 75 -41 0 -54 -5 -79 -29z m112
-53 c9 -33 4 -38 -38 -38 -28 0 -33 4 -33 23 0 51 58 63 71 15z"/>
<path d="M2500 838 c-17 -18 -20 -19 -20 -5 0 13 -9 17 -35 17 l-35 0 0 -146
0 -145 38 3 37 3 3 112 c2 99 5 114 22 123 10 5 26 7 34 4 13 -5 16 -26 16
-126 l0 -119 38 3 37 3 3 110 c3 121 0 146 -24 169 -24 24 -89 21 -114 -6z"/>
<path d="M2737 840 c-62 -49 -61 -219 1 -266 9 -7 36 -14 60 -14 72 0 111 31
112 88 0 30 -2 32 -34 32 -32 0 -35 -3 -38 -32 -2 -26 -8 -34 -27 -36 -34 -5
-41 12 -41 99 0 83 12 106 50 94 13 -4 20 -15 20 -31 0 -21 5 -24 35 -24 32 0
35 3 35 29 0 16 -10 39 -25 55 -31 34 -108 37 -148 6z"/>
<path d="M3014 850 c-31 -12 -54 -70 -54 -138 0 -110 31 -152 114 -152 52 0
91 28 102 73 6 25 4 27 -28 27 -25 0 -36 -6 -43 -22 -11 -24 -41 -36 -55 -21
-5 4 -12 25 -15 46 l-7 37 76 0 76 0 0 51 c0 43 -5 55 -29 80 -24 23 -38 29
-73 28 -24 0 -52 -4 -64 -9z m80 -46 c10 -4 16 -18 16 -35 0 -26 -3 -29 -34
-29 -42 0 -49 10 -36 44 9 26 24 31 54 20z"/>
<path d="M3688 853 c-26 -7 -58 -83 -58 -137 0 -108 35 -156 114 -156 88 0
121 50 114 173 -4 72 -8 83 -32 104 -21 17 -38 23 -74 22 -26 -1 -55 -3 -64
-6z m92 -69 c6 -14 10 -47 10 -74 0 -68 -14 -100 -44 -100 -30 0 -36 16 -36
100 0 84 6 100 36 100 17 0 27 -8 34 -26z"/>
<path d="M4010 838 c-17 -18 -20 -19 -20 -5 0 13 -9 17 -35 17 l-35 0 0 -145
0 -145 35 0 35 0 0 98 c0 107 11 132 58 132 18 0 22 6 22 35 0 28 -4 35 -20
35 -10 0 -28 -10 -40 -22z"/>
<path d="M4602 844 c-35 -24 -52 -68 -52 -132 0 -108 33 -152 114 -152 83 0
116 43 116 150 0 76 -16 122 -49 140 -29 15 -104 12 -129 -6z m98 -60 c14 -35
13 -118 -2 -149 -7 -16 -19 -25 -34 -25 -18 0 -25 8 -33 38 -6 20 -11 48 -11
62 0 14 5 42 11 63 8 30 15 37 35 37 17 0 27 -8 34 -26z"/>
<path d="M4890 853 c-8 -2 -24 -16 -35 -31 -17 -22 -20 -43 -20 -120 0 -90 1
-95 28 -118 43 -37 118 -34 158 5 19 20 29 40 29 60 0 29 -3 31 -35 31 -30 0
-35 -3 -35 -24 0 -28 -22 -49 -47 -44 -41 8 -43 180 -2 193 24 8 49 -11 49
-36 0 -15 7 -19 35 -19 31 0 35 3 35 26 0 15 -12 38 -29 55 -24 24 -37 29 -73
28 -24 -1 -50 -3 -58 -6z"/>
<path d="M5300 853 c-21 -8 -50 -45 -50 -65 0 -28 66 -25 73 3 4 16 12 20 34
17 41 -5 44 -42 4 -62 -16 -9 -38 -16 -48 -16 -10 -1 -29 -10 -43 -21 -32 -27
-35 -96 -6 -128 23 -26 81 -28 108 -5 16 16 18 16 24 0 4 -10 18 -16 38 -16
l31 0 -3 107 c-3 150 -8 172 -38 183 -27 11 -99 12 -124 3z m79 -229 c-6 -8
-22 -14 -35 -14 -21 0 -24 5 -24 35 0 31 5 38 33 50 l32 13 3 -34 c2 -20 -2
-42 -9 -50z"/>
<path d="M6188 853 c-48 -12 -74 -155 -43 -230 20 -48 41 -62 92 -63 96 0 128
46 121 173 -4 72 -8 83 -32 104 -21 17 -38 23 -74 22 -26 -1 -55 -3 -64 -6z
m96 -95 c4 -27 4 -69 0 -95 -8 -40 -13 -49 -33 -51 -33 -5 -41 12 -41 99 0 80
10 102 45 97 15 -2 22 -14 29 -50z"/>
<path d="M6468 853 c-64 -17 -80 -214 -21 -269 29 -27 93 -33 137 -13 70 32
76 242 8 278 -20 11 -90 13 -124 4z m92 -85 c11 -38 7 -108 -7 -144 -6 -17
-49 -19 -59 -3 -4 6 -7 46 -7 89 0 88 5 100 38 100 20 0 26 -7 35 -42z"/>
<path d="M2002 708 l3 -143 38 -3 37 -3 0 145 0 146 -40 0 -41 0 3 -142z"/>
<path d="M5110 705 l0 -145 35 0 35 0 0 145 0 145 -35 0 -35 0 0 -145z"/>
</g>
</svg>
