<?xml version="1.0" standalone="no"?>
<!DOCTYPE svg PUBLIC "-//W3C//DTD SVG 20010904//EN"
 "http://www.w3.org/TR/2001/REC-SVG-20010904/DTD/svg10.dtd">
<svg version="1.0" xmlns="http://www.w3.org/2000/svg"
 width="1200.000000pt" height="507.000000pt" viewBox="0 0 1200.000000 507.000000"
 preserveAspectRatio="xMidYMid meet">

<g transform="translate(0.000000,507.000000) scale(0.100000,-0.100000)"
fill="#000000" stroke="none">
<path d="M50 4890 l0 -130 240 0 240 0 0 -610 0 -610 155 0 155 0 0 610 0 610
240 0 240 0 0 130 0 130 -635 0 -635 0 0 -130z"/>
<path d="M1400 4280 l0 -740 150 0 150 0 0 298 c0 326 8 402 48 476 36 67 78
91 159 91 70 0 104 -19 138 -76 19 -32 20 -55 23 -411 l3 -378 149 0 150 0 0
378 c0 435 -6 482 -68 572 -79 116 -249 175 -388 135 -72 -21 -116 -46 -171
-99 l-43 -40 0 267 0 267 -150 0 -150 0 0 -740z"/>
<path d="M2823 4621 c-171 -49 -300 -186 -350 -373 -23 -85 -22 -260 1 -347
68 -250 255 -391 521 -392 170 0 289 39 382 124 56 52 96 109 123 176 l20 51
-160 0 c-96 0 -160 -4 -160 -10 0 -18 -65 -83 -97 -96 -47 -20 -160 -17 -209
5 -71 32 -134 126 -134 200 l0 21 380 0 380 0 0 80 c0 290 -143 504 -377 565
-79 21 -241 18 -320 -4z m255 -217 c69 -28 113 -83 131 -163 l9 -41 -229 0
-229 0 0 23 c0 37 49 125 84 151 17 13 45 28 61 34 45 16 131 14 173 -4z"/>
<path d="M2525 3288 c-67 -187 -505 -1460 -505 -1468 0 -7 51 -10 156 -8 l157
3 59 183 59 182 279 0 278 0 62 -185 62 -185 159 0 c106 0 159 4 159 11 0 5
-109 322 -241 702 -133 381 -248 711 -256 735 l-15 42 -204 0 c-155 0 -206 -3
-209 -12z m305 -541 c50 -159 90 -291 87 -293 -2 -2 -89 -3 -193 -2 l-190 3
95 298 c52 163 98 294 102 290 4 -5 48 -138 99 -296z"/>
<path d="M3525 3288 c-3 -7 -4 -341 -3 -743 l3 -730 148 -3 147 -3 0 746 0
745 -145 0 c-107 0 -147 -3 -150 -12z"/>
<path d="M6470 3170 l0 -130 240 0 240 0 2 -612 3 -613 155 0 155 0 3 613 2
612 240 0 240 0 0 130 0 130 -640 0 -640 0 0 -130z"/>
<path d="M9410 3155 l0 -146 148 3 147 3 3 143 3 142 -151 0 -150 0 0 -145z"/>
<path d="M4283 2901 c-93 -26 -145 -53 -203 -107 -51 -48 -94 -131 -106 -202
l-7 -43 154 3 153 3 7 32 c8 42 32 78 66 100 41 27 181 25 220 -3 38 -27 62
-79 65 -139 l3 -49 -105 -12 c-430 -49 -583 -137 -598 -344 -14 -199 127 -334
363 -347 155 -9 276 38 351 135 l34 45 0 -35 c0 -19 3 -56 6 -82 l7 -46 124 0
125 0 -6 38 c-4 20 -11 199 -15 397 -5 198 -13 376 -18 395 -32 118 -117 204
-248 251 -88 31 -274 36 -372 10z m357 -621 c0 -36 -22 -125 -40 -160 -52
-102 -173 -147 -280 -104 -52 21 -80 60 -80 114 0 78 67 116 265 151 131 23
135 23 135 -1z"/>
<path d="M9149 2910 c-77 -10 -138 -41 -193 -100 l-46 -49 0 64 0 65 -140 0
-140 0 0 -540 0 -540 145 0 145 0 0 266 c0 350 13 431 80 508 44 49 107 71
208 70 l82 0 0 122 c0 68 -3 125 -7 127 -19 10 -82 14 -134 7z"/>
<path d="M11325 2909 c-177 -20 -324 -166 -371 -365 -9 -40 -16 -111 -16 -171
1 -231 95 -405 261 -481 46 -21 75 -27 156 -30 126 -5 193 17 266 87 l49 47 0
-96 c0 -177 -44 -257 -154 -280 -103 -21 -195 14 -227 86 l-20 44 -146 0 -145
0 6 -37 c17 -96 100 -204 193 -251 72 -37 162 -55 278 -55 168 0 272 33 362
116 59 54 89 107 113 202 19 73 20 111 20 622 l0 543 -130 0 -130 0 0 -67 0
-68 -51 52 c-86 87 -178 117 -314 102z m198 -243 c18 -7 46 -29 64 -47 115
-122 98 -412 -30 -497 -44 -30 -119 -39 -171 -22 -110 36 -172 216 -135 390
30 140 160 224 272 176z"/>
<path d="M5545 2897 c-62 -21 -103 -45 -151 -89 l-44 -41 0 62 0 61 -145 0
-145 0 2 -537 3 -538 147 -3 146 -3 5 348 c4 362 7 390 50 454 70 103 239 97
295 -11 22 -44 22 -50 22 -417 l0 -373 150 0 150 0 0 368 c0 396 -7 477 -44
550 -30 59 -102 127 -164 155 -59 26 -216 34 -277 14z"/>
<path d="M10346 2894 c-63 -20 -90 -37 -148 -93 l-48 -45 0 67 0 67 -140 0
-140 0 0 -540 0 -540 149 0 150 0 4 353 c4 389 6 404 67 468 78 82 204 71 274
-24 20 -28 21 -41 24 -413 l3 -385 147 3 147 3 3 325 c3 380 -7 511 -43 587
-31 63 -90 117 -164 151 -71 33 -208 41 -285 16z"/>
<path d="M7512 2483 c5 -452 7 -471 71 -555 37 -49 111 -102 165 -119 70 -21
174 -23 238 -4 68 19 143 64 179 107 l25 30 0 -67 0 -66 143 3 142 3 3 538 2
537 -149 0 -150 0 -3 -352 c-3 -314 -5 -357 -21 -393 -65 -144 -233 -171 -321
-52 -20 28 -21 41 -24 413 l-3 384 -150 0 -151 0 4 -407z"/>
<path d="M9410 2350 l0 -541 148 3 147 3 3 538 2 537 -150 0 -150 0 0 -540z"/>
<path d="M330 835 l0 -745 145 0 145 0 0 745 0 745 -145 0 -145 0 0 -745z"/>
<path d="M3530 1435 l0 -145 145 0 145 0 0 145 0 145 -145 0 -145 0 0 -145z"/>
<path d="M2940 1300 l0 -130 -80 0 -80 0 0 -115 0 -115 79 0 80 0 3 -332 c3
-315 4 -336 24 -379 26 -56 77 -109 130 -134 43 -21 191 -32 269 -21 l45 7 0
108 0 109 -60 4 c-111 8 -120 38 -120 401 l0 237 90 0 90 0 0 115 0 115 -90 0
-90 0 0 130 0 130 -145 0 -145 0 0 -130z"/>
<path d="M4080 1300 l0 -129 -77 -3 -78 -3 0 -110 0 -110 76 -3 77 -3 4 -322
c5 -363 9 -381 79 -461 56 -64 121 -86 247 -86 151 0 142 -7 142 121 l0 109
-48 0 c-28 0 -57 7 -71 16 -47 33 -51 64 -51 354 l0 270 85 0 85 0 0 115 0
115 -85 0 -85 0 0 130 0 130 -150 0 -150 0 0 -130z"/>
<path d="M5910 1300 l0 -130 -80 0 -80 0 0 -115 0 -115 80 0 80 0 0 -313 c0
-348 5 -383 63 -458 50 -65 113 -92 224 -97 51 -3 113 -1 138 2 l45 7 0 110 0
109 -54 0 c-71 0 -101 23 -115 91 -6 28 -11 158 -11 299 l0 249 88 3 87 3 0
110 0 110 -87 3 -88 3 0 129 0 130 -145 0 -145 0 0 -130z"/>
<path d="M2160 1189 c-114 -17 -205 -62 -268 -134 -97 -110 -97 -280 -1 -389
54 -61 135 -98 306 -140 201 -49 244 -74 246 -140 1 -38 -21 -69 -65 -92 -35
-18 -149 -18 -191 0 -45 18 -83 66 -91 115 l-6 41 -150 0 c-168 0 -158 6 -139
-82 43 -202 208 -308 479 -308 169 0 291 40 378 124 66 62 85 106 90 207 4 72
1 93 -18 137 -45 105 -135 157 -380 222 -85 23 -168 49 -185 59 -63 36 -66
108 -5 149 26 17 47 22 102 22 110 0 156 -32 172 -122 l7 -38 144 0 c167 0
159 -7 130 105 -37 142 -142 230 -311 260 -87 16 -160 17 -244 4z"/>
<path d="M6873 1190 c-275 -50 -449 -294 -429 -600 23 -332 228 -530 551 -530
220 0 384 89 472 256 17 33 34 69 38 82 l6 22 -159 0 -160 0 -12 -30 c-45
-109 -238 -135 -345 -47 -43 35 -85 116 -85 165 l0 32 380 0 380 0 0 74 c0
275 -136 490 -352 557 -72 23 -212 32 -285 19z m238 -255 c48 -34 88 -103 89
-152 l0 -33 -225 0 -225 0 0 23 c0 31 43 118 71 144 44 40 88 53 171 51 66 -3
82 -7 119 -33z"/>
<path d="M1247 1180 c-61 -16 -119 -49 -169 -98 l-48 -46 0 67 0 67 -140 0
-140 0 0 -540 0 -540 144 0 144 0 5 337 c5 368 11 410 64 474 76 90 234 76
287 -26 20 -38 21 -58 24 -413 l4 -372 144 0 145 0 -3 418 c-4 476 -4 473 -89
566 -66 73 -144 107 -253 112 -45 2 -98 -1 -119 -6z"/>
<path d="M3530 630 l0 -540 145 0 145 0 0 540 0 540 -145 0 -145 0 0 -540z"/>
<path d="M4684 1155 c-11 -28 4 -788 16 -838 25 -100 119 -197 224 -230 75
-24 187 -22 265 4 45 16 78 36 122 76 l59 55 0 -66 0 -66 140 0 140 0 0 540 0
540 -149 0 -150 0 -3 -358 -3 -358 -26 -49 c-15 -30 -42 -62 -68 -80 -80 -56
-198 -34 -246 47 -19 31 -20 54 -23 416 l-3 382 -145 0 c-120 0 -146 -3 -150
-15z"/>
</g>
</svg>
