<?xml version="1.0" standalone="no"?>
<!DOCTYPE svg PUBLIC "-//W3C//DTD SVG 20010904//EN"
 "http://www.w3.org/TR/2001/REC-SVG-20010904/DTD/svg10.dtd">
<svg version="1.0" xmlns="http://www.w3.org/2000/svg"
 width="309.000000pt" height="135.000000pt" viewBox="0 0 309.000000 135.000000"
 preserveAspectRatio="xMidYMid meet">

<g transform="translate(0.000000,135.000000) scale(0.100000,-0.100000)"
fill="#000000" stroke="none">
<path d="M733 1210 c-45 -10 -146 -101 -130 -116 19 -20 207 86 207 116 0 11
-30 12 -77 0z"/>
<path d="M546 1030 c-35 -11 -120 -92 -224 -215 -95 -113 -155 -206 -177 -273
-19 -58 -15 -92 17 -124 32 -32 137 -22 229 24 38 19 69 32 69 29 0 -3 -9 -17
-20 -31 -29 -36 -25 -43 21 -37 33 4 54 18 107 69 102 97 240 188 287 188 24
0 18 -12 -40 -80 -30 -36 -60 -82 -67 -104 -11 -36 -10 -40 12 -58 45 -36 163
-8 257 61 35 25 43 37 43 62 l0 31 -33 -28 c-65 -55 -177 -93 -177 -60 0 8 29
51 64 95 36 45 68 90 71 102 24 73 -112 65 -240 -16 -27 -17 -57 -35 -65 -40
-8 -5 1 11 21 36 58 72 58 73 6 67 -42 -5 -53 -13 -134 -95 -89 -89 -185 -152
-260 -168 -40 -8 -73 9 -73 38 0 52 138 243 310 429 50 53 90 99 90 102 0 9
-60 6 -94 -4z"/>
<path d="M1855 916 c-35 -16 -135 -109 -135 -127 0 -7 9 -9 23 -5 12 3 27 6
34 6 16 0 173 119 173 131 0 13 -60 10 -95 -5z"/>
<path d="M1259 730 c-26 -4 -55 -13 -65 -18 -28 -15 -92 -85 -94 -102 -6 -40
2 -40 45 -1 55 51 80 61 151 61 l55 0 -67 -67 c-75 -75 -99 -119 -85 -156 21
-54 106 -59 206 -12 63 30 63 30 67 3 7 -53 119 -45 220 16 l55 33 9 -31 c12
-41 47 -58 106 -52 45 5 140 46 153 66 10 16 25 11 25 -8 0 -11 9 -27 21 -38
31 -28 104 -23 319 24 300 65 435 77 526 46 25 -8 48 -13 51 -10 13 13 -21 66
-50 79 -87 40 -197 29 -520 -49 -126 -31 -235 -53 -243 -50 -20 8 -13 29 37
114 43 73 45 103 7 135 -15 12 -38 17 -89 17 -101 0 -161 -27 -287 -127 -143
-114 -242 -159 -242 -110 0 17 57 95 128 176 l54 61 -39 0 c-55 0 -93 -28
-163 -118 -51 -66 -73 -86 -124 -111 -73 -36 -129 -44 -134 -20 -2 9 28 50 71
95 89 95 105 121 85 140 -17 17 -129 25 -189 14z m861 -64 c0 -24 -86 -121
-141 -159 -63 -43 -116 -57 -125 -34 -20 54 151 207 234 207 21 0 32 -5 32
-14z"/>
</g>
</svg>
